{"glyphs":{"0":{"ha":1414,"x_min":0,"x_max":1414,"o":"m 710 -26 q 412 78 539 -26 q 215 383 285 182 q 146 871 146 583 q 164 1137 146 1015 q 216 1358 182 1258 q 299 1535 250 1458 q 412 1663 349 1611 q 549 1740 475 1714 q 710 1767 624 1767 q 1004 1663 879 1767 q 1199 1358 1129 1558 q 1268 871 1268 1158 q 1250 605 1268 726 q 1199 383 1232 483 q 1116 207 1165 283 q 1005 78 1067 131 q 869 0 943 26 q 710 -26 794 -26 m 708 49 q 846 73 782 49 q 963 145 910 97 q 1058 263 1015 193 q 1128 425 1100 333 q 1172 628 1157 517 q 1186 871 1186 740 q 1128 1317 1186 1133 q 963 1597 1069 1500 q 710 1693 856 1693 q 572 1669 636 1693 q 453 1597 507 1644 q 358 1478 400 1549 q 287 1317 315 1408 q 243 1113 258 1225 q 228 871 228 1001 q 287 426 228 610 q 454 145 346 242 q 708 49 563 49 m 0 -1037 l 1414 -1037 l 1414 -1051 l 0 -1051 l 0 -1037 m 0 28 l 1414 28 l 1414 0 l 0 0 l 0 28 m 0 701 l 1414 701 l 1414 694 l 0 694 l 0 701 m 0 1760 l 1414 1760 l 1414 1746 l 0 1746 l 0 1760 z "},"1":{"ha":833,"x_min":0,"x_max":833,"o":"m 450 -19 q 420 -12 429 -19 q 411 7 411 -6 l 411 1654 q 315 1562 365 1607 q 213 1478 264 1517 q 113 1406 161 1439 q 81 1394 94 1394 q 57 1410 67 1393 q 49 1438 46 1426 q 68 1458 53 1449 q 178 1538 122 1493 q 292 1635 235 1582 q 406 1749 350 1688 q 418 1760 413 1757 q 432 1765 424 1764 q 453 1767 440 1767 q 480 1760 472 1767 q 488 1740 488 1753 l 488 7 q 478 -12 488 -6 q 450 -19 469 -19 m 0 -1037 l 833 -1037 l 833 -1051 l 0 -1051 l 0 -1037 m 0 28 l 833 28 l 833 0 l 0 0 l 0 28 m 0 701 l 833 701 l 833 694 l 0 694 l 0 701 m 0 1760 l 833 1760 l 833 1746 l 0 1746 l 0 1760 z "},"2":{"ha":1231,"x_min":0,"x_max":1231,"o":"m 140 0 q 117 9 126 0 q 108 31 108 18 q 118 54 108 44 l 414 368 q 562 533 490 450 q 696 697 633 615 q 809 860 758 779 q 897 1020 860 942 q 953 1174 933 1099 q 972 1321 972 1250 q 927 1528 972 1446 q 799 1653 882 1611 q 603 1694 717 1694 q 390 1651 488 1694 q 206 1524 293 1607 q 181 1509 193 1510 q 154 1519 168 1508 q 140 1546 139 1533 q 153 1569 142 1558 q 269 1668 200 1624 q 425 1740 339 1713 q 606 1767 511 1767 q 785 1738 704 1767 q 926 1654 867 1710 q 1019 1516 986 1599 q 1051 1325 1051 1433 q 1029 1161 1051 1246 q 965 990 1007 1076 q 868 815 924 903 q 745 641 813 728 q 604 469 678 554 q 453 303 531 383 l 233 69 l 1056 69 q 1073 63 1067 69 q 1079 38 1079 56 q 1074 9 1079 18 q 1056 0 1068 0 l 140 0 m 0 -1037 l 1231 -1037 l 1231 -1051 l 0 -1051 l 0 -1037 m 0 28 l 1231 28 l 1231 0 l 0 0 l 0 28 m 0 701 l 1231 701 l 1231 694 l 0 694 l 0 701 m 0 1760 l 1231 1760 l 1231 1746 l 0 1746 l 0 1760 z "},"3":{"ha":1314,"x_min":0,"x_max":1314,"o":"m 624 -26 q 438 -1 529 -26 q 262 81 347 25 q 103 231 176 138 q 89 257 92 244 q 103 283 86 269 q 128 296 117 296 q 153 281 140 296 q 297 146 222 197 q 451 70 371 94 q 622 46 532 46 q 811 76 728 46 q 951 163 894 106 q 1038 301 1008 219 q 1068 483 1068 382 q 1010 701 1068 608 q 848 844 953 793 q 601 896 743 896 l 471 896 q 453 905 460 896 q 447 932 447 914 q 453 958 447 951 q 471 965 460 965 l 604 965 q 780 998 706 965 q 902 1085 854 1031 q 973 1208 950 1140 q 996 1347 996 1276 q 965 1502 996 1436 q 881 1610 935 1568 q 759 1674 828 1653 q 615 1694 690 1694 q 460 1676 531 1694 q 327 1624 389 1658 q 203 1539 265 1590 q 176 1526 189 1528 q 150 1536 164 1524 q 137 1564 133 1551 q 149 1585 140 1576 q 274 1679 203 1639 q 432 1743 346 1719 q 615 1767 518 1767 q 794 1741 711 1767 q 941 1663 878 1715 q 1040 1532 1004 1611 q 1076 1347 1076 1453 q 1059 1221 1076 1285 q 1005 1101 1042 1157 q 909 1001 968 1044 q 768 935 850 958 q 983 845 899 910 q 1108 687 1067 781 q 1149 481 1149 593 q 1115 272 1149 365 q 1013 113 1081 179 q 848 10 946 46 q 624 -26 750 -26 m 0 -1037 l 1314 -1037 l 1314 -1051 l 0 -1051 l 0 -1037 m 0 28 l 1314 28 l 1314 0 l 0 0 l 0 28 m 0 701 l 1314 701 l 1314 694 l 0 694 l 0 701 m 0 1760 l 1314 1760 l 1314 1746 l 0 1746 l 0 1760 z "},"4":{"ha":1339,"x_min":0,"x_max":1339,"o":"m 1000 -19 q 973 -12 982 -19 q 964 7 964 -6 l 964 515 l 131 515 q 101 527 113 515 q 100 558 90 539 l 654 1744 q 672 1765 661 1760 q 700 1767 682 1769 q 722 1760 714 1765 q 731 1746 729 1754 q 726 1725 733 1738 l 190 585 l 964 585 l 964 1229 q 1001 1256 964 1256 q 1030 1249 1021 1256 q 1039 1229 1039 1243 l 1039 585 l 1242 585 q 1262 578 1256 585 q 1268 551 1268 571 q 1263 524 1268 532 q 1242 515 1257 515 l 1039 515 l 1039 7 q 1000 -19 1039 -19 m 0 -1037 l 1339 -1037 l 1339 -1051 l 0 -1051 l 0 -1037 m 0 28 l 1339 28 l 1339 0 l 0 0 l 0 28 m 0 701 l 1339 701 l 1339 694 l 0 694 l 0 701 m 0 1760 l 1339 1760 l 1339 1746 l 0 1746 l 0 1760 z "},"5":{"ha":1314,"x_min":0,"x_max":1314,"o":"m 658 -26 q 525 -12 592 -26 q 394 33 458 3 q 270 113 331 64 q 157 229 210 161 q 144 256 146 244 q 157 282 142 268 q 183 294 171 294 q 207 279 194 294 q 347 145 275 197 q 496 69 418 93 q 660 46 574 46 q 845 79 764 46 q 983 176 926 113 q 1067 331 1039 240 q 1096 535 1096 421 q 1066 726 1096 640 q 978 874 1036 813 q 841 968 921 935 q 661 1001 761 1001 q 522 986 589 1001 q 399 940 456 971 q 296 857 342 908 q 269 844 283 844 q 244 852 254 843 q 235 872 235 861 l 265 1710 q 275 1730 267 1724 q 300 1736 283 1736 l 1079 1736 q 1097 1729 1090 1736 q 1103 1703 1103 1722 q 1097 1676 1103 1685 q 1079 1667 1092 1667 l 336 1667 l 308 953 q 408 1016 351 989 q 529 1058 464 1043 q 663 1072 594 1072 q 939 1006 824 1072 q 1115 818 1054 939 q 1176 535 1176 697 q 1140 300 1176 404 q 1036 123 1104 196 q 873 12 968 50 q 658 -26 778 -26 m 0 -1037 l 1314 -1037 l 1314 -1051 l 0 -1051 l 0 -1037 m 0 28 l 1314 28 l 1314 0 l 0 0 l 0 28 m 0 701 l 1314 701 l 1314 694 l 0 694 l 0 701 m 0 1760 l 1314 1760 l 1314 1746 l 0 1746 l 0 1760 z "},"6":{"ha":1413,"x_min":0,"x_max":1413,"o":"m 744 -26 q 447 64 569 -26 q 262 319 325 154 q 199 707 199 483 q 224 1038 199 883 q 307 1320 250 1193 q 460 1542 364 1447 q 694 1694 556 1638 q 1022 1765 833 1751 q 1065 1763 1054 1768 q 1076 1739 1075 1758 q 1074 1712 1079 1721 q 1053 1701 1069 1703 q 738 1633 869 1688 q 517 1490 606 1579 q 376 1281 428 1400 q 301 1017 324 1163 q 279 704 279 871 q 315 412 279 536 q 414 206 350 288 q 563 85 478 125 q 744 46 647 46 q 928 78 847 46 q 1065 174 1008 111 q 1153 326 1122 238 q 1183 528 1183 415 q 1131 765 1183 665 q 983 919 1078 865 q 756 974 888 974 q 622 956 688 974 q 497 904 556 938 q 390 826 438 871 q 307 726 342 781 q 254 608 272 671 l 238 699 q 313 837 263 774 q 434 947 364 900 q 587 1019 504 993 q 758 1044 669 1044 q 969 1008 876 1044 q 1128 905 1063 972 q 1229 742 1194 838 q 1264 528 1264 646 q 1228 297 1264 400 q 1124 122 1192 194 q 961 12 1057 50 q 744 -26 865 -26 m 0 -1037 l 1413 -1037 l 1413 -1051 l 0 -1051 l 0 -1037 m 0 28 l 1413 28 l 1413 0 l 0 0 l 0 28 m 0 701 l 1413 701 l 1413 694 l 0 694 l 0 701 m 0 1760 l 1413 1760 l 1413 1746 l 0 1746 l 0 1760 z "},"7":{"ha":1067,"x_min":0,"x_max":1067,"o":"m 276 -17 q 253 1 257 -8 q 256 25 249 10 l 936 1667 l 65 1667 q 48 1674 54 1667 q 42 1701 42 1682 q 47 1727 42 1718 q 65 1736 53 1736 l 999 1736 q 1023 1724 1014 1736 q 1025 1694 1032 1711 l 328 14 q 310 -17 319 -10 q 276 -17 300 -25 m 0 -1037 l 1067 -1037 l 1067 -1051 l 0 -1051 l 0 -1037 m 0 28 l 1067 28 l 1067 0 l 0 0 l 0 28 m 0 701 l 1067 701 l 1067 694 l 0 694 l 0 701 m 0 1760 l 1067 1760 l 1067 1746 l 0 1746 l 0 1760 z "},"8":{"ha":1314,"x_min":0,"x_max":1314,"o":"m 658 -26 q 438 6 536 -26 q 268 97 339 38 q 160 241 197 157 q 122 431 122 325 q 149 592 122 515 q 227 735 175 669 q 359 853 279 801 q 546 939 439 906 q 350 1039 428 976 q 234 1182 272 1101 q 196 1356 196 1263 q 232 1534 196 1457 q 333 1663 268 1611 q 483 1741 397 1715 q 664 1767 568 1767 q 845 1743 763 1767 q 990 1671 928 1719 q 1085 1549 1051 1622 q 1119 1376 1119 1475 q 1099 1246 1119 1310 q 1037 1125 1079 1182 q 930 1022 994 1068 q 776 942 865 975 q 1014 825 922 897 q 1149 660 1106 753 q 1193 463 1193 568 q 1156 262 1193 351 q 1048 107 1118 172 q 879 8 978 42 q 658 -26 781 -26 m 658 47 q 846 76 763 47 q 988 158 929 104 q 1079 289 1047 213 q 1111 461 1111 365 q 1056 660 1111 572 q 901 808 1001 747 q 661 901 800 869 q 469 833 554 876 q 326 731 385 790 q 235 596 267 671 q 203 433 203 521 q 235 270 203 342 q 328 149 268 199 q 472 73 389 99 q 658 47 556 47 m 669 972 q 878 1065 796 1004 q 999 1207 960 1126 q 1039 1376 1039 1288 q 1009 1521 1039 1461 q 927 1619 979 1581 q 807 1676 875 1658 q 661 1694 739 1694 q 513 1673 583 1694 q 390 1609 443 1651 q 307 1503 338 1567 q 276 1357 276 1440 q 319 1192 276 1268 q 450 1060 363 1115 q 669 972 538 1004 m 0 -1037 l 1314 -1037 l 1314 -1051 l 0 -1051 l 0 -1037 m 0 28 l 1314 28 l 1314 0 l 0 0 l 0 28 m 0 701 l 1314 701 l 1314 694 l 0 694 l 0 701 m 0 1760 l 1314 1760 l 1314 1746 l 0 1746 l 0 1760 z "},"9":{"ha":1413,"x_min":0,"x_max":1413,"o":"m 668 1772 q 965 1682 844 1772 q 1150 1428 1086 1592 q 1214 1039 1214 1264 q 1188 708 1214 863 q 1105 426 1163 554 q 952 203 1047 299 q 718 51 857 108 q 390 -19 579 -6 q 348 -17 358 -22 q 335 7 338 -12 q 338 34 333 25 q 360 44 343 43 q 674 113 543 60 q 894 256 806 167 q 1036 465 983 346 q 1111 729 1089 583 q 1133 1042 1133 875 q 1097 1334 1133 1210 q 998 1540 1061 1458 q 850 1660 935 1621 q 668 1700 765 1700 q 484 1667 565 1700 q 346 1572 403 1635 q 259 1419 289 1508 q 229 1218 229 1331 q 281 981 229 1081 q 430 826 333 881 q 657 772 526 772 q 791 790 725 772 q 915 842 857 808 q 1022 920 974 875 q 1106 1021 1071 965 q 1158 1138 1140 1076 l 1175 1047 q 1099 909 1150 972 q 977 799 1047 846 q 825 727 907 753 q 654 701 743 701 q 444 738 538 701 q 284 841 350 774 q 183 1004 218 908 q 149 1218 149 1100 q 184 1449 149 1346 q 288 1624 219 1551 q 451 1734 356 1696 q 668 1772 547 1772 m 0 -1037 l 1413 -1037 l 1413 -1051 l 0 -1051 l 0 -1037 m 0 28 l 1413 28 l 1413 0 l 0 0 l 0 28 m 0 701 l 1413 701 l 1413 694 l 0 694 l 0 701 m 0 1760 l 1413 1760 l 1413 1746 l 0 1746 l 0 1760 z "},"\r":{"ha":417,"x_min":0,"x_max":0,"o":""}," ":{"ha":417,"x_min":0,"x_max":0,"o":""}," ":{"ha":139,"x_min":0,"x_max":0,"o":""}," ":{"ha":417,"x_min":0,"x_max":0,"o":""},"Ð":{"ha":1613,"x_min":0,"x_max":1613,"o":"m 313 0 q 274 26 274 0 l 274 1708 q 283 1729 274 1722 q 313 1736 293 1736 l 650 1736 q 982 1685 836 1736 q 1230 1535 1128 1635 q 1386 1292 1332 1436 q 1440 957 1440 1147 q 1402 639 1440 786 q 1289 374 1364 492 q 1106 172 1214 256 q 858 44 997 89 q 547 0 718 0 l 313 0 m 351 72 l 544 72 q 827 113 700 72 q 1053 231 954 154 q 1219 416 1151 307 q 1322 661 1288 525 q 1357 957 1357 797 q 1308 1263 1357 1131 q 1168 1484 1260 1394 q 946 1619 1076 1574 q 650 1664 815 1664 l 351 1664 l 351 72 m 79 835 q 58 844 64 835 q 53 865 53 853 q 58 892 53 882 q 79 901 64 901 l 721 901 q 742 892 736 901 q 747 865 747 882 q 742 844 747 853 q 721 835 736 835 l 79 835 m 0 -1037 l 1613 -1037 l 1613 -1051 l 0 -1051 l 0 -1037 m 0 28 l 1613 28 l 1613 0 l 0 0 l 0 28 m 0 701 l 1613 701 l 1613 694 l 0 694 l 0 701 m 0 1760 l 1613 1760 l 1613 1746 l 0 1746 l 0 1760 z "},"Ŋ":{"ha":1647,"x_min":0,"x_max":1647,"o":"m 1372 -244 q 1349 -394 1372 -335 q 1281 -483 1326 -454 q 1167 -512 1236 -512 q 1049 -475 1099 -512 q 975 -376 1000 -437 q 975 -353 971 -364 q 992 -335 979 -343 q 1019 -328 1007 -325 q 1038 -344 1031 -331 q 1072 -399 1054 -376 q 1115 -433 1090 -421 q 1168 -444 1139 -444 q 1247 -422 1219 -444 q 1287 -354 1275 -399 q 1299 -244 1299 -310 l 1299 -3 l 350 1608 l 350 7 q 341 -13 350 -7 q 313 -19 332 -19 q 274 7 274 -19 l 274 1740 q 283 1760 274 1754 q 311 1767 293 1767 q 337 1762 328 1767 q 354 1746 346 1757 l 1297 144 l 1297 1740 q 1306 1760 1297 1754 q 1335 1767 1315 1767 q 1372 1740 1372 1767 l 1372 -244 m 0 -1037 l 1647 -1037 l 1647 -1051 l 0 -1051 l 0 -1037 m 0 28 l 1647 28 l 1647 0 l 0 0 l 0 28 m 0 701 l 1647 701 l 1647 694 l 0 694 l 0 701 m 0 1760 l 1647 1760 l 1647 1746 l 0 1746 l 0 1760 z "},"Þ":{"ha":1336,"x_min":0,"x_max":1336,"o":"m 313 -19 q 283 -13 293 -19 q 274 7 274 -7 l 274 1740 q 283 1760 274 1754 q 313 1767 293 1767 q 341 1760 332 1767 q 350 1740 350 1754 l 350 1458 l 668 1458 q 965 1415 844 1458 q 1147 1276 1085 1372 q 1208 1024 1208 1181 q 1165 804 1208 900 q 1044 640 1122 708 q 858 531 965 572 q 621 474 750 489 q 482 460 550 465 q 350 451 414 456 l 350 7 q 341 -13 350 -7 q 313 -19 332 -19 m 350 521 q 438 526 392 524 q 530 534 483 529 q 618 543 576 539 q 885 619 771 561 q 1064 777 1000 676 q 1128 1022 1128 878 q 1076 1235 1128 1156 q 922 1352 1024 1315 q 668 1389 819 1389 l 350 1389 l 350 521 m 0 -1037 l 1336 -1037 l 1336 -1051 l 0 -1051 l 0 -1037 m 0 28 l 1336 28 l 1336 0 l 0 0 l 0 28 m 0 701 l 1336 701 l 1336 694 l 0 694 l 0 701 m 0 1760 l 1336 1760 l 1336 1746 l 0 1746 l 0 1760 z "},"ẞ":{"ha":1604,"x_min":0,"x_max":1604,"o":"m 949 -26 q 835 -19 888 -26 q 731 6 782 -11 q 624 47 681 22 q 598 71 603 57 q 603 104 593 85 q 622 120 608 115 q 657 115 635 125 q 752 78 706 93 q 847 56 799 63 q 949 49 896 49 q 1108 76 1033 49 q 1242 160 1183 104 q 1333 296 1300 215 q 1367 482 1367 376 q 1341 643 1367 574 q 1270 765 1315 713 q 1170 860 1225 818 q 1057 941 1115 903 q 943 1020 999 979 q 843 1110 888 1061 q 772 1221 799 1158 q 746 1367 746 1283 q 771 1506 746 1443 q 840 1618 796 1569 q 942 1696 883 1667 q 642 1629 761 1681 q 457 1494 524 1578 q 363 1299 390 1411 q 336 1049 336 1188 l 336 8 q 327 -12 336 -6 q 299 -18 318 -18 q 270 -12 279 -18 q 261 8 261 -6 l 261 1047 q 285 1292 261 1181 q 367 1492 310 1404 q 522 1641 424 1579 q 765 1735 619 1703 q 1114 1767 911 1767 l 1171 1767 q 1192 1759 1186 1767 q 1199 1732 1199 1751 q 1192 1704 1199 1713 q 1171 1696 1186 1696 q 1017 1671 1082 1696 q 909 1601 951 1646 q 847 1499 867 1557 q 826 1375 826 1442 q 852 1242 826 1299 q 922 1142 878 1186 q 1022 1060 967 1099 q 1137 982 1078 1021 q 1251 899 1196 943 q 1351 796 1306 854 q 1422 661 1396 738 q 1447 482 1447 585 q 1408 269 1447 363 q 1299 109 1368 175 q 1140 8 1231 43 q 949 -26 1050 -26 m 0 -1037 l 1604 -1037 l 1604 -1051 l 0 -1051 l 0 -1037 m 0 28 l 1604 28 l 1604 0 l 0 0 l 0 28 m 0 701 l 1604 701 l 1604 694 l 0 694 l 0 701 m 0 1760 l 1604 1760 l 1604 1746 l 0 1746 l 0 1760 z "},"ŋ":{"ha":851,"x_min":0,"x_max":851,"o":"m 710 -164 q 691 -267 710 -225 q 636 -332 672 -310 q 549 -354 600 -354 q 456 -326 494 -354 q 400 -258 417 -299 q 398 -236 394 -247 q 414 -217 401 -225 q 441 -211 431 -208 q 460 -226 451 -214 q 497 -271 476 -254 q 550 -287 518 -287 q 619 -253 603 -287 q 635 -164 635 -219 l 635 453 q 618 560 635 515 q 565 628 601 604 q 468 651 528 651 q 392 640 429 651 q 322 605 354 629 q 263 539 289 581 q 221 436 238 497 l 221 6 q 212 -15 221 -8 q 183 -21 203 -21 q 157 -15 165 -21 q 149 6 149 -8 l 149 689 q 157 709 149 703 q 183 715 165 715 q 212 709 203 715 q 221 689 221 703 l 221 563 q 274 638 244 607 q 337 686 303 668 q 406 713 371 704 q 478 721 442 721 q 597 694 544 721 q 679 612 649 668 q 710 464 710 556 l 710 -164 m 0 -1037 l 851 -1037 l 851 -1051 l 0 -1051 l 0 -1037 m 0 28 l 851 28 l 851 0 l 0 0 l 0 28 m 0 701 l 851 701 l 851 694 l 0 694 l 0 701 m 0 1760 l 851 1760 l 851 1746 l 0 1746 l 0 1760 z "},"$":{"ha":1265,"x_min":0,"x_max":1265,"o":"m 610 -26 q 478 -15 543 -26 q 353 22 414 -3 q 240 85 293 46 q 144 178 186 124 q 133 201 133 190 q 147 222 133 211 q 169 235 160 235 q 197 218 179 236 q 310 126 249 164 q 447 68 372 88 q 610 49 522 49 q 781 76 703 49 q 915 157 858 104 q 1003 285 972 210 q 1033 451 1033 360 q 1001 601 1033 539 q 915 709 969 664 q 790 789 860 754 q 646 854 721 824 q 515 913 579 882 q 396 981 451 943 q 297 1069 340 1018 q 230 1187 254 1119 q 206 1343 206 1254 q 240 1521 206 1443 q 336 1654 275 1599 q 476 1738 397 1710 q 646 1767 556 1767 q 824 1739 746 1767 q 966 1667 903 1711 q 1083 1572 1029 1622 q 1095 1551 1096 1561 q 1083 1529 1094 1542 q 1059 1516 1069 1517 q 1033 1526 1049 1515 q 915 1615 974 1576 q 790 1673 856 1653 q 646 1693 725 1693 q 499 1667 565 1693 q 385 1596 433 1642 q 312 1485 338 1550 q 286 1343 286 1421 q 320 1181 286 1247 q 411 1067 354 1114 q 539 986 468 1021 q 683 922 610 951 q 839 852 763 890 q 978 761 915 814 q 1077 633 1040 708 q 1114 451 1114 557 q 1078 258 1114 346 q 974 107 1042 171 q 815 8 907 43 q 610 -26 722 -26 m 642 -186 q 606 -160 606 -186 l 606 1919 q 642 1946 606 1946 q 678 1919 678 1946 l 678 -160 q 642 -186 678 -186 m 0 -1037 l 1265 -1037 l 1265 -1051 l 0 -1051 l 0 -1037 m 0 28 l 1265 28 l 1265 0 l 0 0 l 0 28 m 0 701 l 1265 701 l 1265 694 l 0 694 l 0 701 m 0 1760 l 1265 1760 l 1265 1746 l 0 1746 l 0 1760 z "},"€":{"ha":1431,"x_min":0,"x_max":1431,"o":"m 833 -26 q 568 37 685 -26 q 370 217 451 100 q 245 499 289 335 q 201 867 201 664 q 224 1122 201 1003 q 288 1340 246 1240 q 389 1519 329 1440 q 523 1653 449 1599 q 684 1738 597 1708 q 867 1767 771 1767 q 1024 1745 947 1767 q 1169 1681 1101 1724 q 1292 1574 1238 1638 q 1303 1551 1304 1561 q 1289 1529 1301 1542 q 1265 1517 1275 1517 q 1242 1529 1254 1517 q 1126 1622 1186 1586 q 1001 1676 1065 1658 q 867 1693 936 1693 q 706 1667 782 1693 q 565 1590 631 1640 q 447 1467 500 1539 q 358 1303 394 1396 q 302 1101 322 1211 q 282 867 282 992 q 320 531 282 682 q 430 272 358 381 q 603 106 501 164 q 833 49 706 49 q 962 65 901 49 q 1076 111 1022 81 q 1181 183 1131 142 q 1281 275 1232 225 q 1303 288 1292 288 q 1329 274 1314 288 q 1342 252 1342 261 q 1329 231 1342 243 q 1172 88 1251 144 q 1010 2 1093 31 q 833 -26 928 -26 m 44 951 q 28 959 35 951 q 22 986 22 967 q 28 1013 22 1006 q 44 1019 35 1019 l 1053 1019 q 1070 1013 1064 1019 q 1076 988 1076 1007 q 1070 960 1076 968 q 1053 951 1064 951 l 44 951 m 44 724 q 28 731 35 724 q 22 758 22 739 q 28 784 22 776 q 44 792 35 792 l 1053 792 q 1070 785 1064 792 q 1076 758 1076 778 q 1070 732 1076 740 q 1053 724 1064 724 l 44 724 m 0 -1037 l 1431 -1037 l 1431 -1051 l 0 -1051 l 0 -1037 m 0 28 l 1431 28 l 1431 0 l 0 0 l 0 28 m 0 701 l 1431 701 l 1431 694 l 0 694 l 0 701 m 0 1760 l 1431 1760 l 1431 1746 l 0 1746 l 0 1760 z "},"¢":{"ha":983,"x_min":0,"x_max":983,"o":"m 522 -26 q 306 35 397 -26 q 165 210 214 96 q 115 485 115 325 q 133 673 115 588 q 185 826 150 758 q 269 940 219 893 q 383 1013 319 988 q 524 1038 447 1038 q 638 1018 582 1038 q 743 966 694 999 q 826 892 792 933 q 833 872 833 882 q 818 850 832 863 q 796 840 806 840 q 776 850 786 840 q 698 917 738 890 q 615 956 658 943 q 522 969 572 969 q 408 948 460 969 q 317 886 357 926 q 249 787 276 846 q 206 653 221 728 q 192 488 192 578 q 231 251 192 351 q 344 97 269 151 q 522 42 418 42 q 633 58 585 42 q 724 110 682 75 q 807 199 765 146 q 827 210 817 210 q 849 200 838 210 q 865 183 861 193 q 861 161 868 172 q 763 57 818 99 q 647 -6 708 15 q 522 -26 586 -26 m 518 -186 q 482 -160 482 -186 l 482 1188 q 518 1214 482 1214 q 553 1188 553 1214 l 553 -160 q 518 -186 553 -186 m 0 -1037 l 983 -1037 l 983 -1051 l 0 -1051 l 0 -1037 m 0 28 l 983 28 l 983 0 l 0 0 l 0 28 m 0 701 l 983 701 l 983 694 l 0 694 l 0 701 m 0 1760 l 983 1760 l 983 1746 l 0 1746 l 0 1760 z "},"£":{"ha":1253,"x_min":0,"x_max":1253,"o":"m 110 0 q 92 8 99 0 q 86 36 86 17 q 93 62 86 54 q 110 69 100 69 l 385 69 l 385 715 l 161 715 q 144 723 150 715 q 138 750 138 731 q 144 776 138 769 q 161 783 150 783 l 385 783 l 385 1333 q 431 1565 385 1468 q 565 1715 478 1663 q 772 1767 653 1767 q 974 1728 878 1767 q 1156 1614 1069 1690 q 1171 1592 1167 1604 q 1161 1564 1175 1581 q 1135 1549 1147 1549 q 1108 1558 1124 1549 q 942 1662 1025 1629 q 772 1694 860 1694 q 543 1600 626 1694 q 460 1331 460 1506 l 460 783 l 882 783 q 899 776 893 783 q 904 750 904 769 q 899 723 904 731 q 882 715 893 715 l 460 715 l 460 69 l 1174 69 q 1190 62 1185 69 q 1196 36 1196 54 q 1191 8 1196 17 q 1174 0 1186 0 l 110 0 m 0 -1037 l 1253 -1037 l 1253 -1051 l 0 -1051 l 0 -1037 m 0 28 l 1253 28 l 1253 0 l 0 0 l 0 28 m 0 701 l 1253 701 l 1253 694 l 0 694 l 0 701 m 0 1760 l 1253 1760 l 1253 1746 l 0 1746 l 0 1760 z "},"¥":{"ha":1251,"x_min":0,"x_max":1251,"o":"m 615 -19 q 578 7 578 -19 l 578 508 l 181 508 q 165 517 171 508 q 158 543 158 525 q 165 570 158 563 q 181 578 171 578 l 578 578 l 578 738 l 181 738 q 165 745 171 738 q 158 772 158 753 q 165 799 158 792 q 181 806 171 806 l 550 806 l 56 1719 q 53 1743 49 1733 q 75 1761 58 1753 q 103 1767 93 1769 q 121 1749 113 1764 l 617 831 l 1129 1744 q 1151 1766 1140 1763 q 1176 1761 1161 1769 q 1200 1742 1196 1751 q 1197 1719 1204 1733 l 681 806 l 1050 806 q 1067 799 1061 806 q 1074 772 1074 793 q 1067 746 1074 754 q 1050 738 1061 738 l 653 738 l 653 578 l 1050 578 q 1067 571 1061 578 q 1074 544 1074 564 q 1067 517 1074 525 q 1050 508 1061 508 l 653 508 l 653 7 q 615 -19 653 -19 m 0 -1037 l 1251 -1037 l 1251 -1051 l 0 -1051 l 0 -1037 m 0 28 l 1251 28 l 1251 0 l 0 0 l 0 28 m 0 701 l 1251 701 l 1251 694 l 0 694 l 0 701 m 0 1760 l 1251 1760 l 1251 1746 l 0 1746 l 0 1760 z "},"%":{"ha":1528,"x_min":0,"x_max":1528,"o":"m 407 1018 q 252 1065 318 1018 q 151 1197 186 1113 q 115 1393 115 1281 q 128 1517 115 1460 q 167 1622 142 1575 q 228 1700 192 1668 q 309 1749 264 1732 q 407 1767 354 1767 q 560 1720 494 1767 q 662 1590 626 1674 q 697 1393 697 1506 q 684 1267 697 1325 q 646 1164 671 1210 q 585 1085 621 1118 q 505 1035 550 1053 q 407 1018 460 1018 m 407 1085 q 481 1097 447 1085 q 541 1135 514 1110 q 587 1197 568 1160 q 615 1283 606 1235 q 625 1393 625 1332 q 566 1622 625 1543 q 407 1700 507 1700 q 333 1688 367 1700 q 273 1650 300 1675 q 227 1588 246 1625 q 199 1501 208 1550 q 189 1393 189 1453 q 248 1164 189 1243 q 407 1085 307 1085 m 308 -15 q 291 -27 301 -26 q 264 -18 281 -28 q 243 1 246 -8 q 246 21 240 10 l 1214 1753 q 1230 1765 1221 1764 q 1257 1754 1239 1765 q 1277 1737 1274 1746 q 1274 1717 1281 1728 l 308 -15 m 1121 -26 q 966 20 1032 -26 q 865 151 900 67 q 829 349 829 236 q 842 474 829 415 q 881 578 856 532 q 942 656 906 624 q 1023 706 978 689 q 1121 724 1068 724 q 1274 677 1210 724 q 1375 546 1339 631 q 1411 349 1411 461 q 1398 224 1411 282 q 1360 119 1385 165 q 1299 41 1335 74 q 1219 -9 1264 8 q 1121 -26 1174 -26 m 1121 42 q 1194 54 1161 42 q 1255 92 1228 67 q 1301 154 1282 117 q 1329 240 1319 192 q 1339 349 1339 289 q 1280 578 1339 499 q 1121 657 1221 657 q 1047 644 1081 657 q 986 606 1013 631 q 941 543 960 581 q 913 457 922 506 q 903 349 903 408 q 962 121 903 200 q 1121 42 1021 42 m 0 -1037 l 1528 -1037 l 1528 -1051 l 0 -1051 l 0 -1037 m 0 28 l 1528 28 l 1528 0 l 0 0 l 0 28 m 0 701 l 1528 701 l 1528 694 l 0 694 l 0 701 m 0 1760 l 1528 1760 l 1528 1746 l 0 1746 l 0 1760 z "},".":{"ha":435,"x_min":0,"x_max":435,"o":"m 217 -29 q 168 -10 185 -29 q 151 43 151 8 q 168 97 151 79 q 217 115 185 115 q 267 97 250 115 q 283 43 283 79 q 267 -10 283 8 q 217 -29 250 -29 m 0 -1037 l 435 -1037 l 435 -1051 l 0 -1051 l 0 -1037 m 0 28 l 435 28 l 435 0 l 0 0 l 0 28 m 0 701 l 435 701 l 435 694 l 0 694 l 0 701 m 0 1760 l 435 1760 l 435 1746 l 0 1746 l 0 1760 z "},",":{"ha":435,"x_min":0,"x_max":435,"o":"m 129 -331 q 103 -322 117 -331 q 90 -301 90 -312 q 93 -289 90 -296 q 100 -274 96 -282 q 140 -174 125 -221 q 162 -72 156 -128 q 168 65 168 -15 q 180 94 168 83 q 215 106 192 106 q 253 93 242 106 q 265 61 265 81 q 253 -69 265 -1 q 218 -199 242 -136 q 158 -310 194 -261 q 146 -324 153 -318 q 129 -331 139 -331 m 0 -1037 l 435 -1037 l 435 -1051 l 0 -1051 l 0 -1037 m 0 28 l 435 28 l 435 0 l 0 0 l 0 28 m 0 701 l 435 701 l 435 694 l 0 694 l 0 701 m 0 1760 l 435 1760 l 435 1746 l 0 1746 l 0 1760 z "},":":{"ha":435,"x_min":0,"x_max":435,"o":"m 217 -29 q 168 -10 185 -29 q 151 43 151 8 q 168 97 151 79 q 217 115 185 115 q 267 97 250 115 q 283 43 283 79 q 267 -10 283 8 q 217 -29 250 -29 m 217 576 q 168 595 185 576 q 151 649 151 614 q 168 703 151 685 q 217 721 185 721 q 267 703 250 721 q 283 649 283 685 q 267 595 283 614 q 217 576 250 576 m 0 -1037 l 435 -1037 l 435 -1051 l 0 -1051 l 0 -1037 m 0 28 l 435 28 l 435 0 l 0 0 l 0 28 m 0 701 l 435 701 l 435 694 l 0 694 l 0 701 m 0 1760 l 435 1760 l 435 1746 l 0 1746 l 0 1760 z "},";":{"ha":435,"x_min":0,"x_max":435,"o":"m 217 576 q 168 595 185 576 q 151 649 151 614 q 168 703 151 685 q 217 721 185 721 q 267 703 250 721 q 283 649 283 685 q 267 595 283 614 q 217 576 250 576 m 129 -331 q 103 -322 117 -331 q 90 -301 90 -312 q 93 -289 90 -296 q 100 -274 96 -282 q 140 -174 125 -221 q 162 -72 156 -128 q 168 65 168 -15 q 180 94 168 83 q 215 106 192 106 q 253 93 242 106 q 265 61 265 81 q 253 -69 265 -1 q 218 -199 242 -136 q 158 -310 194 -261 q 146 -324 153 -318 q 129 -331 139 -331 m 0 -1037 l 435 -1037 l 435 -1051 l 0 -1051 l 0 -1037 m 0 28 l 435 28 l 435 0 l 0 0 l 0 28 m 0 701 l 435 701 l 435 694 l 0 694 l 0 701 m 0 1760 l 435 1760 l 435 1746 l 0 1746 l 0 1760 z "},"…":{"ha":1178,"x_min":0,"x_max":1178,"o":"m 589 -29 q 540 -10 557 -29 q 524 43 524 8 q 540 97 524 79 q 589 115 557 115 q 639 97 622 115 q 656 43 656 79 q 639 -10 656 8 q 589 -29 622 -29 m 960 -29 q 911 -10 928 -29 q 894 43 894 8 q 911 97 894 79 q 960 115 928 115 q 1010 97 993 115 q 1026 43 1026 79 q 1010 -10 1026 8 q 960 -29 993 -29 m 217 -29 q 168 -10 185 -29 q 151 43 151 8 q 168 97 151 79 q 217 115 185 115 q 267 97 250 115 q 283 43 283 79 q 267 -10 283 8 q 217 -29 250 -29 m 0 -1037 l 1178 -1037 l 1178 -1051 l 0 -1051 l 0 -1037 m 0 28 l 1178 28 l 1178 0 l 0 0 l 0 28 m 0 701 l 1178 701 l 1178 694 l 0 694 l 0 701 m 0 1760 l 1178 1760 l 1178 1746 l 0 1746 l 0 1760 z "},"!":{"ha":674,"x_min":0,"x_max":674,"o":"m 338 300 q 300 326 300 300 l 300 1740 q 309 1760 300 1754 q 338 1767 318 1767 q 375 1740 375 1767 l 375 326 q 367 307 375 314 q 338 300 358 300 m 338 -19 q 291 -1 307 -19 q 275 51 275 17 q 291 105 275 88 q 338 122 307 122 q 384 105 368 122 q 400 51 400 88 q 384 -1 400 17 q 338 -19 368 -19 m 0 -1037 l 674 -1037 l 674 -1051 l 0 -1051 l 0 -1037 m 0 28 l 674 28 l 674 0 l 0 0 l 0 28 m 0 701 l 674 701 l 674 694 l 0 694 l 0 701 m 0 1760 l 674 1760 l 674 1746 l 0 1746 l 0 1760 z "},"¡":{"ha":674,"x_min":0,"x_max":674,"o":"m 338 -1071 q 300 -1044 300 -1071 l 300 369 q 309 389 300 382 q 338 396 318 396 q 375 369 375 396 l 375 -1044 q 365 -1065 375 -1058 q 338 -1071 356 -1071 m 338 574 q 291 592 307 574 q 275 644 275 610 q 291 698 275 681 q 338 715 307 715 q 384 698 368 715 q 400 644 400 681 q 384 592 400 610 q 338 574 368 574 m 0 -1037 l 674 -1037 l 674 -1051 l 0 -1051 l 0 -1037 m 0 28 l 674 28 l 674 0 l 0 0 l 0 28 m 0 701 l 674 701 l 674 694 l 0 694 l 0 701 m 0 1760 l 674 1760 l 674 1746 l 0 1746 l 0 1760 z "},"?":{"ha":988,"x_min":0,"x_max":988,"o":"m 386 300 q 357 306 367 300 q 347 329 347 313 l 347 783 q 355 806 347 799 q 375 813 363 813 q 568 842 481 813 q 720 928 656 871 q 820 1073 785 986 q 856 1274 856 1160 q 809 1500 856 1406 q 678 1645 763 1594 q 482 1696 594 1696 q 339 1677 408 1696 q 204 1622 269 1658 q 78 1535 139 1586 q 58 1527 69 1526 q 36 1539 47 1528 q 24 1564 25 1553 q 33 1583 24 1575 q 168 1683 96 1642 q 320 1745 240 1724 q 482 1767 400 1767 q 720 1708 618 1767 q 878 1539 822 1649 q 935 1272 935 1429 q 897 1055 935 1150 q 791 893 860 960 q 628 789 722 826 q 424 744 535 751 l 424 328 q 415 306 424 313 q 386 300 406 300 m 386 -19 q 339 -1 356 -19 q 322 51 322 17 q 339 105 322 88 q 386 122 356 122 q 433 105 417 122 q 449 51 449 88 q 433 -1 449 17 q 386 -19 417 -19 m 0 -1037 l 988 -1037 l 988 -1051 l 0 -1051 l 0 -1037 m 0 28 l 988 28 l 988 0 l 0 0 l 0 28 m 0 701 l 988 701 l 988 694 l 0 694 l 0 701 m 0 1760 l 988 1760 l 988 1746 l 0 1746 l 0 1760 z "},"¿":{"ha":988,"x_min":0,"x_max":988,"o":"m 574 396 q 603 390 594 396 q 611 367 611 383 l 611 -87 q 604 -110 611 -103 q 583 -117 597 -117 q 391 -146 479 -117 q 239 -233 303 -175 q 140 -377 175 -290 q 104 -578 104 -464 q 151 -803 104 -708 q 281 -949 197 -899 q 478 -1000 365 -1000 q 621 -981 551 -1000 q 756 -926 690 -961 q 881 -839 821 -890 q 901 -831 890 -829 q 922 -843 913 -832 q 935 -868 935 -857 q 926 -887 936 -879 q 791 -987 864 -946 q 639 -1049 718 -1028 q 478 -1071 560 -1071 q 240 -1012 342 -1071 q 81 -842 138 -953 q 24 -576 24 -732 q 61 -359 24 -454 q 167 -197 99 -264 q 331 -93 236 -131 q 536 -49 425 -56 l 536 368 q 545 390 536 383 q 574 396 554 396 m 574 715 q 621 698 606 715 q 636 644 636 681 q 621 592 636 610 q 574 574 606 574 q 527 592 543 574 q 511 644 511 610 q 527 698 511 681 q 574 715 543 715 m 0 -1037 l 988 -1037 l 988 -1051 l 0 -1051 l 0 -1037 m 0 28 l 988 28 l 988 0 l 0 0 l 0 28 m 0 701 l 988 701 l 988 694 l 0 694 l 0 701 m 0 1760 l 988 1760 l 988 1746 l 0 1746 l 0 1760 z "},"'":{"ha":235,"x_min":0,"x_max":235,"o":"m 119 1174 q 97 1183 104 1174 q 88 1206 89 1192 l 72 1579 q 83 1608 71 1596 q 119 1621 94 1621 q 156 1608 144 1621 q 167 1579 168 1596 l 151 1208 q 142 1184 150 1194 q 119 1174 135 1174 m 0 -1037 l 235 -1037 l 235 -1051 l 0 -1051 l 0 -1037 m 0 28 l 235 28 l 235 0 l 0 0 l 0 28 m 0 701 l 235 701 l 235 694 l 0 694 l 0 701 m 0 1760 l 235 1760 l 235 1746 l 0 1746 l 0 1760 z "},"\"":{"ha":478,"x_min":0,"x_max":478,"o":"m 119 1174 q 97 1183 104 1174 q 88 1206 89 1192 l 72 1579 q 83 1608 71 1596 q 119 1621 94 1621 q 156 1608 144 1621 q 167 1579 168 1596 l 151 1208 q 142 1184 150 1194 q 119 1174 135 1174 m 363 1174 q 340 1183 347 1174 q 332 1206 332 1192 l 315 1579 q 326 1608 314 1596 q 363 1621 338 1621 q 400 1608 389 1621 q 411 1579 411 1596 l 394 1208 q 386 1184 393 1194 q 363 1174 379 1174 m 0 -1037 l 478 -1037 l 478 -1051 l 0 -1051 l 0 -1037 m 0 28 l 478 28 l 478 0 l 0 0 l 0 28 m 0 701 l 478 701 l 478 694 l 0 694 l 0 701 m 0 1760 l 478 1760 l 478 1746 l 0 1746 l 0 1760 z "},"‘":{"ha":286,"x_min":0,"x_max":286,"o":"m 129 1174 q 92 1187 104 1174 q 81 1218 81 1200 q 85 1314 81 1263 q 99 1417 89 1365 q 126 1515 110 1468 q 168 1600 143 1563 q 181 1615 174 1608 q 197 1621 188 1621 q 224 1612 211 1621 q 236 1592 236 1603 q 233 1579 236 1586 q 225 1563 229 1572 q 192 1460 204 1510 q 178 1353 181 1411 q 175 1214 175 1294 q 163 1185 175 1196 q 129 1174 151 1174 m 0 -1037 l 286 -1037 l 286 -1051 l 0 -1051 l 0 -1037 m 0 28 l 286 28 l 286 0 l 0 0 l 0 28 m 0 701 l 286 701 l 286 694 l 0 694 l 0 701 m 0 1760 l 286 1760 l 286 1746 l 0 1746 l 0 1760 z "},"’":{"ha":286,"x_min":0,"x_max":286,"o":"m 158 1621 q 195 1608 183 1621 q 207 1576 207 1594 q 202 1479 207 1531 q 188 1376 197 1428 q 160 1278 178 1325 q 119 1193 143 1231 q 106 1180 114 1186 q 89 1174 99 1174 q 63 1182 76 1174 q 50 1203 50 1190 q 53 1215 50 1208 q 61 1231 57 1221 q 95 1333 85 1283 q 109 1442 106 1383 q 113 1581 113 1500 q 124 1610 113 1599 q 158 1621 136 1621 m 0 -1037 l 286 -1037 l 286 -1051 l 0 -1051 l 0 -1037 m 0 28 l 286 28 l 286 0 l 0 0 l 0 28 m 0 701 l 286 701 l 286 694 l 0 694 l 0 701 m 0 1760 l 286 1760 l 286 1746 l 0 1746 l 0 1760 z "},"‚":{"ha":354,"x_min":0,"x_max":354,"o":"m 101 -331 q 76 -322 89 -331 q 63 -301 63 -312 q 65 -289 63 -296 q 72 -274 68 -282 q 113 -174 97 -221 q 134 -72 128 -128 q 140 65 140 -15 q 152 94 140 83 q 188 106 164 106 q 226 93 214 106 q 238 61 238 81 q 226 -69 238 -1 q 190 -199 214 -136 q 131 -310 167 -261 q 118 -324 125 -318 q 101 -331 111 -331 m 0 -1037 l 354 -1037 l 354 -1051 l 0 -1051 l 0 -1037 m 0 28 l 354 28 l 354 0 l 0 0 l 0 28 m 0 701 l 354 701 l 354 694 l 0 694 l 0 701 m 0 1760 l 354 1760 l 354 1746 l 0 1746 l 0 1760 z "},"“":{"ha":532,"x_min":0,"x_max":532,"o":"m 129 1174 q 92 1187 104 1174 q 81 1218 81 1200 q 85 1314 81 1263 q 99 1417 89 1365 q 126 1515 110 1468 q 168 1600 143 1563 q 181 1615 174 1608 q 197 1621 188 1621 q 224 1612 211 1621 q 236 1592 236 1603 q 233 1579 236 1586 q 225 1563 229 1572 q 192 1460 204 1510 q 178 1353 181 1411 q 175 1214 175 1294 q 163 1185 175 1196 q 129 1174 151 1174 m 375 1174 q 338 1187 350 1174 q 326 1218 326 1200 q 331 1314 326 1263 q 346 1417 336 1365 q 372 1515 356 1468 q 414 1600 389 1563 q 427 1615 419 1608 q 443 1621 435 1621 q 469 1612 457 1621 q 482 1592 482 1603 q 479 1579 482 1586 q 472 1563 476 1572 q 439 1460 450 1510 q 424 1353 428 1411 q 421 1214 421 1294 q 410 1185 421 1196 q 375 1174 399 1174 m 0 -1037 l 532 -1037 l 532 -1051 l 0 -1051 l 0 -1037 m 0 28 l 532 28 l 532 0 l 0 0 l 0 28 m 0 701 l 532 701 l 532 694 l 0 694 l 0 701 m 0 1760 l 532 1760 l 532 1746 l 0 1746 l 0 1760 z "},"”":{"ha":539,"x_min":0,"x_max":539,"o":"m 410 1621 q 447 1608 436 1621 q 458 1576 458 1594 q 454 1479 458 1531 q 440 1376 450 1428 q 413 1278 429 1325 q 371 1193 396 1231 q 358 1180 365 1186 q 340 1174 350 1174 q 315 1182 328 1174 q 303 1203 303 1190 q 306 1215 303 1208 q 313 1231 308 1221 q 347 1333 336 1283 q 360 1442 357 1383 q 364 1581 364 1500 q 376 1610 364 1599 q 410 1621 388 1621 m 158 1621 q 195 1608 183 1621 q 207 1576 207 1594 q 202 1479 207 1531 q 188 1376 197 1428 q 160 1278 178 1325 q 119 1193 143 1231 q 106 1180 114 1186 q 89 1174 99 1174 q 63 1182 76 1174 q 50 1203 50 1190 q 53 1215 50 1208 q 61 1231 57 1221 q 95 1333 85 1283 q 109 1442 106 1383 q 113 1581 113 1500 q 124 1610 113 1599 q 158 1621 136 1621 m 0 -1037 l 539 -1037 l 539 -1051 l 0 -1051 l 0 -1037 m 0 28 l 539 28 l 539 0 l 0 0 l 0 28 m 0 701 l 539 701 l 539 694 l 0 694 l 0 701 m 0 1760 l 539 1760 l 539 1746 l 0 1746 l 0 1760 z "},"„":{"ha":593,"x_min":0,"x_max":593,"o":"m 339 -331 q 313 -322 326 -331 q 300 -301 300 -312 q 303 -289 300 -296 q 310 -274 306 -282 q 349 -174 335 -221 q 372 -72 364 -128 q 379 65 379 -15 q 390 94 379 83 q 425 106 401 106 q 463 93 451 106 q 475 61 475 81 q 463 -69 475 -1 q 428 -199 451 -136 q 369 -310 404 -261 q 356 -324 363 -318 q 339 -331 349 -331 m 101 -331 q 76 -322 89 -331 q 63 -301 63 -312 q 65 -289 63 -296 q 72 -274 68 -282 q 113 -174 97 -221 q 134 -72 128 -128 q 140 65 140 -15 q 152 94 140 83 q 188 106 164 106 q 226 93 214 106 q 238 61 238 81 q 226 -69 238 -1 q 190 -199 214 -136 q 131 -310 167 -261 q 118 -324 125 -318 q 101 -331 111 -331 m 0 -1037 l 593 -1037 l 593 -1051 l 0 -1051 l 0 -1037 m 0 28 l 593 28 l 593 0 l 0 0 l 0 28 m 0 701 l 593 701 l 593 694 l 0 694 l 0 701 m 0 1760 l 593 1760 l 593 1746 l 0 1746 l 0 1760 z "},"«":{"ha":1007,"x_min":0,"x_max":1007,"o":"m 458 -19 q 435 -13 444 -19 q 415 4 425 -7 l 182 303 q 160 331 167 321 q 154 349 154 342 q 160 368 154 358 q 182 396 167 378 l 418 693 q 436 710 425 704 q 460 715 447 715 q 484 708 474 715 q 497 690 494 701 q 488 665 499 679 l 238 349 l 488 32 q 492 -4 504 11 q 458 -19 481 -19 m 806 -19 q 782 -13 792 -19 q 763 4 772 -7 l 529 303 q 508 331 514 321 q 501 349 501 342 q 508 368 501 358 q 529 396 514 378 l 765 693 q 783 710 772 704 q 807 715 794 715 q 831 708 821 715 q 844 690 842 701 q 835 665 846 679 l 585 349 l 835 32 q 840 -4 851 11 q 806 -19 828 -19 m 0 -1037 l 1007 -1037 l 1007 -1051 l 0 -1051 l 0 -1037 m 0 28 l 1007 28 l 1007 0 l 0 0 l 0 28 m 0 701 l 1007 701 l 1007 694 l 0 694 l 0 701 m 0 1760 l 1007 1760 l 1007 1746 l 0 1746 l 0 1760 z "},"»":{"ha":1007,"x_min":0,"x_max":1007,"o":"m 201 -19 q 176 -12 186 -19 q 164 6 165 -6 q 172 32 163 18 l 422 349 l 172 665 q 167 701 156 686 q 200 715 179 715 q 224 710 214 715 q 243 693 235 704 l 479 396 q 499 368 493 378 q 506 349 506 358 q 499 331 506 342 q 479 303 493 321 l 244 4 q 226 -13 236 -7 q 201 -19 215 -19 m 549 -19 q 523 -12 533 -19 q 511 6 513 -6 q 519 32 510 18 l 769 349 l 519 665 q 515 701 503 686 q 547 715 526 715 q 572 710 561 715 q 590 693 582 704 l 826 396 q 847 368 840 378 q 853 349 853 358 q 847 331 853 342 q 826 303 840 321 l 592 4 q 573 -13 583 -7 q 549 -19 563 -19 m 0 -1037 l 1007 -1037 l 1007 -1051 l 0 -1051 l 0 -1037 m 0 28 l 1007 28 l 1007 0 l 0 0 l 0 28 m 0 701 l 1007 701 l 1007 694 l 0 694 l 0 701 m 0 1760 l 1007 1760 l 1007 1746 l 0 1746 l 0 1760 z "},"‹":{"ha":660,"x_min":0,"x_max":660,"o":"m 458 -19 q 435 -13 444 -19 q 415 4 425 -7 l 182 303 q 160 331 167 321 q 154 349 154 342 q 160 368 154 358 q 182 396 167 378 l 418 693 q 436 710 425 704 q 460 715 447 715 q 484 708 474 715 q 497 690 494 701 q 488 665 499 679 l 238 349 l 488 32 q 492 -4 504 11 q 458 -19 481 -19 m 0 -1037 l 660 -1037 l 660 -1051 l 0 -1051 l 0 -1037 m 0 28 l 660 28 l 660 0 l 0 0 l 0 28 m 0 701 l 660 701 l 660 694 l 0 694 l 0 701 m 0 1760 l 660 1760 l 660 1746 l 0 1746 l 0 1760 z "},"›":{"ha":660,"x_min":0,"x_max":660,"o":"m 201 -19 q 176 -12 186 -19 q 164 6 165 -6 q 172 32 163 18 l 422 349 l 172 665 q 167 701 156 686 q 200 715 179 715 q 224 710 214 715 q 243 693 235 704 l 479 396 q 499 368 493 378 q 506 349 506 358 q 499 331 506 342 q 479 303 493 321 l 244 4 q 226 -13 236 -7 q 201 -19 215 -19 m 0 -1037 l 660 -1037 l 660 -1051 l 0 -1051 l 0 -1037 m 0 28 l 660 28 l 660 0 l 0 0 l 0 28 m 0 701 l 660 701 l 660 694 l 0 694 l 0 701 m 0 1760 l 660 1760 l 660 1746 l 0 1746 l 0 1760 z "},"Á":{"ha":1392,"x_min":0,"x_max":1392,"o":"m 89 -18 q 63 -4 68 -14 q 63 22 57 6 l 649 1735 q 665 1760 654 1753 q 696 1767 675 1767 q 725 1760 715 1767 q 740 1735 735 1753 l 1329 22 q 1329 -4 1336 6 q 1301 -18 1322 -14 q 1272 -15 1282 -21 q 1256 14 1263 -8 l 1078 538 l 314 538 l 135 14 q 119 -14 128 -7 q 89 -18 110 -21 m 339 607 l 1050 607 l 696 1653 l 339 607 m 610 1843 q 587 1856 599 1843 q 575 1878 575 1868 q 576 1885 575 1881 q 583 1896 578 1890 l 825 2106 q 835 2114 831 2110 q 846 2118 839 2118 q 866 2110 856 2118 q 883 2092 876 2103 q 890 2071 890 2081 q 889 2061 890 2065 q 879 2050 888 2057 l 629 1853 q 619 1847 622 1850 q 610 1843 615 1843 m 0 -1037 l 1392 -1037 l 1392 -1051 l 0 -1051 l 0 -1037 m 0 28 l 1392 28 l 1392 0 l 0 0 l 0 28 m 0 701 l 1392 701 l 1392 694 l 0 694 l 0 701 m 0 1760 l 1392 1760 l 1392 1746 l 0 1746 l 0 1760 z "},"Ă":{"ha":1392,"x_min":0,"x_max":1392,"o":"m 89 -18 q 63 -4 68 -14 q 63 22 57 6 l 649 1735 q 665 1760 654 1753 q 696 1767 675 1767 q 725 1760 715 1767 q 740 1735 735 1753 l 1329 22 q 1329 -4 1336 6 q 1301 -18 1322 -14 q 1272 -15 1282 -21 q 1256 14 1263 -8 l 1078 538 l 314 538 l 135 14 q 119 -14 128 -7 q 89 -18 110 -21 m 339 607 l 1050 607 l 696 1653 l 339 607 m 696 1844 q 522 1905 589 1844 q 449 2090 456 1965 q 457 2110 449 2103 q 483 2118 465 2118 q 506 2111 499 2118 q 515 2090 513 2104 q 570 1963 524 2003 q 696 1922 617 1922 q 822 1963 775 1922 q 878 2090 869 2003 q 885 2111 879 2104 q 908 2118 892 2118 q 935 2110 926 2118 q 943 2090 943 2103 q 907 1954 939 2008 q 821 1872 875 1900 q 696 1844 767 1844 m 0 -1037 l 1392 -1037 l 1392 -1051 l 0 -1051 l 0 -1037 m 0 28 l 1392 28 l 1392 0 l 0 0 l 0 28 m 0 701 l 1392 701 l 1392 694 l 0 694 l 0 701 m 0 1760 l 1392 1760 l 1392 1746 l 0 1746 l 0 1760 z "},"Ǎ":{"ha":1392,"x_min":0,"x_max":1392,"o":"m 89 -18 q 63 -4 68 -14 q 63 22 57 6 l 649 1735 q 665 1760 654 1753 q 696 1767 675 1767 q 725 1760 715 1767 q 740 1735 735 1753 l 1329 22 q 1329 -4 1336 6 q 1301 -18 1322 -14 q 1272 -15 1282 -21 q 1256 14 1263 -8 l 1078 538 l 314 538 l 135 14 q 119 -14 128 -7 q 89 -18 110 -21 m 339 607 l 1050 607 l 696 1653 l 339 607 m 931 2118 q 951 2108 940 2118 q 961 2085 961 2097 q 960 2076 961 2081 q 954 2067 958 2072 l 731 1861 q 716 1848 724 1853 q 696 1843 708 1843 q 676 1848 683 1843 q 661 1861 669 1853 l 439 2068 q 432 2078 433 2074 q 431 2086 431 2083 q 441 2108 431 2099 q 463 2118 451 2118 q 474 2115 469 2118 q 486 2107 479 2111 l 696 1932 l 907 2107 q 918 2115 913 2111 q 931 2118 924 2118 m 0 -1037 l 1392 -1037 l 1392 -1051 l 0 -1051 l 0 -1037 m 0 28 l 1392 28 l 1392 0 l 0 0 l 0 28 m 0 701 l 1392 701 l 1392 694 l 0 694 l 0 701 m 0 1760 l 1392 1760 l 1392 1746 l 0 1746 l 0 1760 z "},"Â":{"ha":1392,"x_min":0,"x_max":1392,"o":"m 89 -18 q 63 -4 68 -14 q 63 22 57 6 l 649 1735 q 665 1760 654 1753 q 696 1767 675 1767 q 725 1760 715 1767 q 740 1735 735 1753 l 1329 22 q 1329 -4 1336 6 q 1301 -18 1322 -14 q 1272 -15 1282 -21 q 1256 14 1263 -8 l 1078 538 l 314 538 l 135 14 q 119 -14 128 -7 q 89 -18 110 -21 m 339 607 l 1050 607 l 696 1653 l 339 607 m 463 1839 q 441 1850 451 1839 q 431 1872 431 1861 q 432 1881 431 1876 q 439 1890 433 1885 l 661 2096 q 676 2109 668 2104 q 696 2114 683 2114 q 715 2109 708 2114 q 731 2096 722 2104 l 954 1889 q 960 1880 958 1885 q 961 1871 961 1875 q 951 1849 961 1860 q 929 1839 940 1839 q 918 1842 924 1839 q 907 1851 913 1846 l 696 2025 l 486 1851 q 474 1842 479 1846 q 463 1839 469 1839 m 0 -1037 l 1392 -1037 l 1392 -1051 l 0 -1051 l 0 -1037 m 0 28 l 1392 28 l 1392 0 l 0 0 l 0 28 m 0 701 l 1392 701 l 1392 694 l 0 694 l 0 701 m 0 1760 l 1392 1760 l 1392 1746 l 0 1746 l 0 1760 z "},"Ä":{"ha":1392,"x_min":0,"x_max":1392,"o":"m 89 -18 q 63 -4 68 -14 q 63 22 57 6 l 649 1735 q 665 1760 654 1753 q 696 1767 675 1767 q 725 1760 715 1767 q 740 1735 735 1753 l 1329 22 q 1329 -4 1336 6 q 1301 -18 1322 -14 q 1272 -15 1282 -21 q 1256 14 1263 -8 l 1078 538 l 314 538 l 135 14 q 119 -14 128 -7 q 89 -18 110 -21 m 339 607 l 1050 607 l 696 1653 l 339 607 m 506 1901 q 460 1918 475 1901 q 446 1969 446 1935 q 460 2022 446 2004 q 506 2039 475 2039 q 551 2022 536 2039 q 567 1969 567 2004 q 551 1918 567 1935 q 506 1901 536 1901 m 886 1901 q 841 1918 856 1901 q 826 1969 826 1935 q 841 2022 826 2004 q 886 2039 856 2039 q 932 2022 917 2039 q 947 1969 947 2004 q 932 1918 947 1935 q 886 1901 917 1901 m 0 -1037 l 1392 -1037 l 1392 -1051 l 0 -1051 l 0 -1037 m 0 28 l 1392 28 l 1392 0 l 0 0 l 0 28 m 0 701 l 1392 701 l 1392 694 l 0 694 l 0 701 m 0 1760 l 1392 1760 l 1392 1746 l 0 1746 l 0 1760 z "},"Ǽ":{"ha":1789,"x_min":0,"x_max":1789,"o":"m 1675 0 l 965 0 q 937 8 946 0 q 928 32 928 15 l 928 833 l 524 833 l 119 1 q 99 -18 111 -15 q 69 -14 88 -21 q 51 6 54 -6 q 54 32 47 17 l 869 1706 q 890 1730 879 1724 q 922 1736 900 1736 l 1675 1736 q 1693 1728 1688 1736 q 1699 1701 1699 1721 q 1693 1674 1699 1682 q 1675 1667 1688 1667 l 1003 1667 l 1003 903 l 1558 903 q 1576 896 1571 903 q 1582 868 1582 889 q 1576 842 1582 850 q 1558 833 1571 833 l 1003 833 l 1003 69 l 1675 69 q 1693 62 1688 69 q 1699 36 1699 54 q 1693 8 1699 17 q 1675 0 1688 0 m 557 903 l 928 903 l 928 1665 l 557 903 m 1189 1843 q 1166 1856 1178 1843 q 1154 1878 1154 1868 q 1155 1885 1154 1881 q 1161 1896 1156 1890 l 1403 2106 q 1413 2114 1408 2110 q 1425 2118 1417 2118 q 1444 2110 1433 2118 q 1461 2092 1454 2103 q 1468 2071 1468 2081 q 1467 2061 1468 2065 q 1458 2050 1465 2057 l 1208 1853 q 1197 1847 1201 1850 q 1189 1843 1193 1843 m 0 -1037 l 1789 -1037 l 1789 -1051 l 0 -1051 l 0 -1037 m 0 28 l 1789 28 l 1789 0 l 0 0 l 0 28 m 0 701 l 1789 701 l 1789 694 l 0 694 l 0 701 m 0 1760 l 1789 1760 l 1789 1746 l 0 1746 l 0 1760 z "},"À":{"ha":1392,"x_min":0,"x_max":1392,"o":"m 89 -18 q 63 -4 68 -14 q 63 22 57 6 l 649 1735 q 665 1760 654 1753 q 696 1767 675 1767 q 725 1760 715 1767 q 740 1735 735 1753 l 1329 22 q 1329 -4 1336 6 q 1301 -18 1322 -14 q 1272 -15 1282 -21 q 1256 14 1263 -8 l 1078 538 l 314 538 l 135 14 q 119 -14 128 -7 q 89 -18 110 -21 m 339 607 l 1050 607 l 696 1653 l 339 607 m 774 1843 q 765 1847 769 1843 q 756 1853 761 1850 l 506 2050 q 497 2061 499 2057 q 494 2071 494 2065 q 501 2092 494 2081 q 519 2110 508 2103 q 539 2118 529 2118 q 550 2114 546 2118 q 561 2104 554 2110 l 801 1896 q 808 1885 807 1890 q 810 1878 810 1881 q 798 1856 810 1868 q 774 1843 786 1843 m 0 -1037 l 1392 -1037 l 1392 -1051 l 0 -1051 l 0 -1037 m 0 28 l 1392 28 l 1392 0 l 0 0 l 0 28 m 0 701 l 1392 701 l 1392 694 l 0 694 l 0 701 m 0 1760 l 1392 1760 l 1392 1746 l 0 1746 l 0 1760 z "},"Ā":{"ha":1392,"x_min":0,"x_max":1392,"o":"m 89 -18 q 63 -4 68 -14 q 63 22 57 6 l 649 1735 q 665 1760 654 1753 q 696 1767 675 1767 q 725 1760 715 1767 q 740 1735 735 1753 l 1329 22 q 1329 -4 1336 6 q 1301 -18 1322 -14 q 1272 -15 1282 -21 q 1256 14 1263 -8 l 1078 538 l 314 538 l 135 14 q 119 -14 128 -7 q 89 -18 110 -21 m 339 607 l 1050 607 l 696 1653 l 339 607 m 486 1940 q 465 1949 471 1940 q 460 1975 460 1958 q 465 2001 460 1992 q 486 2011 471 2011 l 906 2011 q 926 2001 921 2011 q 932 1975 932 1992 q 926 1949 932 1958 q 906 1940 921 1940 l 486 1940 m 0 -1037 l 1392 -1037 l 1392 -1051 l 0 -1051 l 0 -1037 m 0 28 l 1392 28 l 1392 0 l 0 0 l 0 28 m 0 701 l 1392 701 l 1392 694 l 0 694 l 0 701 m 0 1760 l 1392 1760 l 1392 1746 l 0 1746 l 0 1760 z "},"Ą":{"ha":1392,"x_min":0,"x_max":1392,"o":"m 89 -18 q 63 -4 68 -14 q 63 22 57 6 l 649 1735 q 665 1760 654 1753 q 696 1767 675 1767 q 725 1760 715 1767 q 740 1735 735 1753 l 1329 22 q 1329 -4 1336 6 q 1301 -18 1322 -14 q 1272 -15 1282 -21 q 1256 14 1263 -8 l 1078 538 l 314 538 l 135 14 q 119 -14 128 -7 q 89 -18 110 -21 m 339 607 l 1050 607 l 696 1653 l 339 607 m 1200 -394 q 1111 -362 1147 -394 q 1075 -262 1075 -329 q 1090 -189 1075 -225 q 1131 -118 1104 -153 q 1194 -51 1158 -83 q 1274 11 1231 -18 l 1329 11 l 1329 3 q 1263 -51 1296 -22 q 1203 -113 1231 -81 q 1160 -179 1176 -146 q 1144 -246 1144 -212 q 1163 -309 1144 -289 q 1210 -329 1181 -329 q 1263 -316 1233 -329 q 1319 -274 1292 -303 q 1338 -263 1328 -264 q 1356 -271 1347 -262 q 1368 -292 1367 -281 q 1363 -314 1369 -303 q 1318 -356 1346 -337 q 1260 -385 1290 -375 q 1200 -394 1229 -394 m 0 -1037 l 1392 -1037 l 1392 -1051 l 0 -1051 l 0 -1037 m 0 28 l 1392 28 l 1392 0 l 0 0 l 0 28 m 0 701 l 1392 701 l 1392 694 l 0 694 l 0 701 m 0 1760 l 1392 1760 l 1392 1746 l 0 1746 l 0 1760 z "},"Å":{"ha":1392,"x_min":0,"x_max":1392,"o":"m 89 -18 q 63 -4 68 -14 q 63 22 57 6 l 649 1735 q 665 1760 654 1753 q 696 1767 675 1767 q 725 1760 715 1767 q 740 1735 735 1753 l 1329 22 q 1329 -4 1336 6 q 1301 -18 1322 -14 q 1272 -15 1282 -21 q 1256 14 1263 -8 l 1078 538 l 314 538 l 135 14 q 119 -14 128 -7 q 89 -18 110 -21 m 339 607 l 1050 607 l 696 1653 l 339 607 m 696 1826 q 601 1847 643 1826 q 536 1906 560 1868 q 513 1990 513 1943 q 536 2074 513 2038 q 601 2131 560 2110 q 696 2151 643 2151 q 792 2131 750 2151 q 856 2074 833 2110 q 879 1990 879 2038 q 856 1906 879 1943 q 792 1847 833 1868 q 696 1826 750 1826 m 696 1888 q 778 1917 747 1888 q 808 1990 808 1946 q 778 2063 808 2035 q 696 2090 747 2090 q 614 2063 644 2090 q 583 1990 583 2035 q 614 1917 583 1946 q 696 1888 644 1888 m 0 -1037 l 1392 -1037 l 1392 -1051 l 0 -1051 l 0 -1037 m 0 28 l 1392 28 l 1392 0 l 0 0 l 0 28 m 0 701 l 1392 701 l 1392 694 l 0 694 l 0 701 m 0 1760 l 1392 1760 l 1392 1746 l 0 1746 l 0 1760 z "},"Ã":{"ha":1392,"x_min":0,"x_max":1392,"o":"m 89 -18 q 63 -4 68 -14 q 63 22 57 6 l 649 1735 q 665 1760 654 1753 q 696 1767 675 1767 q 725 1760 715 1767 q 740 1735 735 1753 l 1329 22 q 1329 -4 1336 6 q 1301 -18 1322 -14 q 1272 -15 1282 -21 q 1256 14 1263 -8 l 1078 538 l 314 538 l 135 14 q 119 -14 128 -7 q 89 -18 110 -21 m 339 607 l 1050 607 l 696 1653 l 339 607 m 467 1889 q 435 1917 435 1889 q 472 2034 439 1992 q 563 2076 506 2076 q 642 2058 607 2076 q 707 2017 676 2040 q 766 1977 738 1994 q 824 1960 794 1960 q 870 1984 854 1960 q 888 2053 886 2008 q 921 2078 890 2078 q 947 2072 940 2078 q 953 2050 953 2065 q 917 1933 951 1974 q 822 1892 883 1892 q 746 1909 781 1892 q 681 1950 711 1926 q 622 1991 650 1974 q 564 2008 593 2008 q 519 1985 535 2008 q 500 1915 503 1963 q 491 1894 499 1900 q 467 1889 483 1889 m 0 -1037 l 1392 -1037 l 1392 -1051 l 0 -1051 l 0 -1037 m 0 28 l 1392 28 l 1392 0 l 0 0 l 0 28 m 0 701 l 1392 701 l 1392 694 l 0 694 l 0 701 m 0 1760 l 1392 1760 l 1392 1746 l 0 1746 l 0 1760 z "},"Ắ":{"ha":1392,"x_min":0,"x_max":1392,"o":"m 89 -18 q 63 -4 68 -14 q 63 22 57 6 l 649 1735 q 665 1760 654 1753 q 696 1767 675 1767 q 725 1760 715 1767 q 740 1735 735 1753 l 1329 22 q 1329 -4 1336 6 q 1301 -18 1322 -14 q 1272 -15 1282 -21 q 1256 14 1263 -8 l 1078 538 l 314 538 l 135 14 q 119 -14 128 -7 q 89 -18 110 -21 m 339 607 l 1050 607 l 696 1653 l 339 607 m 696 1844 q 522 1905 589 1844 q 449 2090 456 1965 q 457 2110 449 2103 q 483 2118 465 2118 q 506 2111 499 2118 q 515 2090 513 2104 q 570 1963 524 2003 q 696 1922 617 1922 q 822 1963 775 1922 q 878 2090 869 2003 q 885 2111 879 2104 q 908 2118 892 2118 q 935 2110 926 2118 q 943 2090 943 2103 q 907 1954 939 2008 q 821 1872 875 1900 q 696 1844 767 1844 m 610 2097 q 587 2109 599 2097 q 575 2131 575 2121 q 576 2140 575 2135 q 583 2150 578 2144 l 825 2358 q 835 2367 831 2364 q 846 2371 839 2371 q 866 2364 856 2371 q 883 2346 876 2357 q 890 2325 890 2335 q 889 2315 890 2319 q 879 2304 888 2311 l 629 2107 q 619 2100 622 2103 q 610 2097 615 2097 m 0 -1037 l 1392 -1037 l 1392 -1051 l 0 -1051 l 0 -1037 m 0 28 l 1392 28 l 1392 0 l 0 0 l 0 28 m 0 701 l 1392 701 l 1392 694 l 0 694 l 0 701 m 0 1760 l 1392 1760 l 1392 1746 l 0 1746 l 0 1760 z "},"Ặ":{"ha":1392,"x_min":0,"x_max":1392,"o":"m 89 -18 q 63 -4 68 -14 q 63 22 57 6 l 649 1735 q 665 1760 654 1753 q 696 1767 675 1767 q 725 1760 715 1767 q 740 1735 735 1753 l 1329 22 q 1329 -4 1336 6 q 1301 -18 1322 -14 q 1272 -15 1282 -21 q 1256 14 1263 -8 l 1078 538 l 314 538 l 135 14 q 119 -14 128 -7 q 89 -18 110 -21 m 339 607 l 1050 607 l 696 1653 l 339 607 m 696 -306 q 651 -289 665 -306 q 636 -237 636 -272 q 651 -185 636 -201 q 696 -168 665 -168 q 742 -185 726 -168 q 757 -237 757 -201 q 742 -289 757 -272 q 696 -306 726 -306 m 696 1844 q 522 1905 589 1844 q 449 2090 456 1965 q 457 2110 449 2103 q 483 2118 465 2118 q 506 2111 499 2118 q 515 2090 513 2104 q 570 1963 524 2003 q 696 1922 617 1922 q 822 1963 775 1922 q 878 2090 869 2003 q 885 2111 879 2104 q 908 2118 892 2118 q 935 2110 926 2118 q 943 2090 943 2103 q 907 1954 939 2008 q 821 1872 875 1900 q 696 1844 767 1844 m 0 -1037 l 1392 -1037 l 1392 -1051 l 0 -1051 l 0 -1037 m 0 28 l 1392 28 l 1392 0 l 0 0 l 0 28 m 0 701 l 1392 701 l 1392 694 l 0 694 l 0 701 m 0 1760 l 1392 1760 l 1392 1746 l 0 1746 l 0 1760 z "},"Ằ":{"ha":1392,"x_min":0,"x_max":1392,"o":"m 89 -18 q 63 -4 68 -14 q 63 22 57 6 l 649 1735 q 665 1760 654 1753 q 696 1767 675 1767 q 725 1760 715 1767 q 740 1735 735 1753 l 1329 22 q 1329 -4 1336 6 q 1301 -18 1322 -14 q 1272 -15 1282 -21 q 1256 14 1263 -8 l 1078 538 l 314 538 l 135 14 q 119 -14 128 -7 q 89 -18 110 -21 m 339 607 l 1050 607 l 696 1653 l 339 607 m 696 1844 q 522 1905 589 1844 q 449 2090 456 1965 q 457 2110 449 2103 q 483 2118 465 2118 q 506 2111 499 2118 q 515 2090 513 2104 q 570 1963 524 2003 q 696 1922 617 1922 q 822 1963 775 1922 q 878 2090 869 2003 q 885 2111 879 2104 q 908 2118 892 2118 q 935 2110 926 2118 q 943 2090 943 2103 q 907 1954 939 2008 q 821 1872 875 1900 q 696 1844 767 1844 m 783 2097 q 775 2100 779 2097 q 765 2107 771 2103 l 515 2304 q 506 2314 508 2310 q 504 2325 504 2318 q 511 2345 504 2335 q 528 2363 518 2356 q 549 2371 539 2371 q 560 2367 556 2371 q 571 2358 564 2364 l 811 2149 q 818 2140 817 2144 q 819 2131 819 2135 q 807 2109 819 2121 q 783 2097 794 2097 m 0 -1037 l 1392 -1037 l 1392 -1051 l 0 -1051 l 0 -1037 m 0 28 l 1392 28 l 1392 0 l 0 0 l 0 28 m 0 701 l 1392 701 l 1392 694 l 0 694 l 0 701 m 0 1760 l 1392 1760 l 1392 1746 l 0 1746 l 0 1760 z "},"Ẳ":{"ha":1392,"x_min":0,"x_max":1392,"o":"m 89 -18 q 63 -4 68 -14 q 63 22 57 6 l 649 1735 q 665 1760 654 1753 q 696 1767 675 1767 q 725 1760 715 1767 q 740 1735 735 1753 l 1329 22 q 1329 -4 1336 6 q 1301 -18 1322 -14 q 1272 -15 1282 -21 q 1256 14 1263 -8 l 1078 538 l 314 538 l 135 14 q 119 -14 128 -7 q 89 -18 110 -21 m 339 607 l 1050 607 l 696 1653 l 339 607 m 696 1844 q 522 1905 589 1844 q 449 2090 456 1965 q 457 2110 449 2103 q 483 2118 465 2118 q 506 2111 499 2118 q 515 2090 513 2104 q 570 1963 524 2003 q 696 1922 617 1922 q 822 1963 775 1922 q 878 2090 869 2003 q 885 2111 879 2104 q 908 2118 892 2118 q 935 2110 926 2118 q 943 2090 943 2103 q 907 1954 939 2008 q 821 1872 875 1900 q 696 1844 767 1844 m 710 2388 q 811 2357 774 2388 q 849 2281 849 2326 q 831 2223 849 2247 q 771 2172 813 2199 q 736 2141 744 2154 q 739 2106 728 2128 l 740 2097 q 738 2077 744 2086 q 719 2065 732 2068 q 696 2063 707 2061 q 681 2075 685 2065 l 669 2103 q 667 2165 656 2138 q 710 2211 678 2192 q 754 2244 740 2229 q 768 2276 768 2258 q 749 2308 768 2296 q 699 2321 729 2321 q 648 2313 672 2321 q 604 2293 624 2306 q 565 2306 579 2278 q 571 2346 553 2329 q 633 2376 599 2365 q 710 2388 668 2388 m 0 -1037 l 1392 -1037 l 1392 -1051 l 0 -1051 l 0 -1037 m 0 28 l 1392 28 l 1392 0 l 0 0 l 0 28 m 0 701 l 1392 701 l 1392 694 l 0 694 l 0 701 m 0 1760 l 1392 1760 l 1392 1746 l 0 1746 l 0 1760 z "},"Ẵ":{"ha":1392,"x_min":0,"x_max":1392,"o":"m 89 -18 q 63 -4 68 -14 q 63 22 57 6 l 649 1735 q 665 1760 654 1753 q 696 1767 675 1767 q 725 1760 715 1767 q 740 1735 735 1753 l 1329 22 q 1329 -4 1336 6 q 1301 -18 1322 -14 q 1272 -15 1282 -21 q 1256 14 1263 -8 l 1078 538 l 314 538 l 135 14 q 119 -14 128 -7 q 89 -18 110 -21 m 339 607 l 1050 607 l 696 1653 l 339 607 m 696 1844 q 522 1905 589 1844 q 449 2090 456 1965 q 457 2110 449 2103 q 483 2118 465 2118 q 506 2111 499 2118 q 515 2090 513 2104 q 570 1963 524 2003 q 696 1922 617 1922 q 822 1963 775 1922 q 878 2090 869 2003 q 885 2111 879 2104 q 908 2118 892 2118 q 935 2110 926 2118 q 943 2090 943 2103 q 907 1954 939 2008 q 821 1872 875 1900 q 696 1844 767 1844 m 467 2169 q 435 2199 435 2169 q 472 2315 439 2274 q 563 2357 506 2357 q 642 2340 607 2357 q 707 2299 676 2322 q 766 2258 738 2276 q 824 2240 794 2240 q 870 2265 854 2240 q 888 2335 886 2290 q 921 2360 890 2360 q 947 2353 940 2360 q 953 2331 953 2346 q 917 2213 951 2254 q 822 2172 883 2172 q 746 2190 781 2172 q 681 2231 711 2208 q 622 2272 650 2254 q 564 2290 593 2290 q 519 2267 535 2290 q 500 2197 503 2244 q 491 2176 499 2182 q 467 2169 483 2169 m 0 -1037 l 1392 -1037 l 1392 -1051 l 0 -1051 l 0 -1037 m 0 28 l 1392 28 l 1392 0 l 0 0 l 0 28 m 0 701 l 1392 701 l 1392 694 l 0 694 l 0 701 m 0 1760 l 1392 1760 l 1392 1746 l 0 1746 l 0 1760 z "},"Ấ":{"ha":1392,"x_min":0,"x_max":1392,"o":"m 89 -18 q 63 -4 68 -14 q 63 22 57 6 l 649 1735 q 665 1760 654 1753 q 696 1767 675 1767 q 725 1760 715 1767 q 740 1735 735 1753 l 1329 22 q 1329 -4 1336 6 q 1301 -18 1322 -14 q 1272 -15 1282 -21 q 1256 14 1263 -8 l 1078 538 l 314 538 l 135 14 q 119 -14 128 -7 q 89 -18 110 -21 m 339 607 l 1050 607 l 696 1653 l 339 607 m 463 1839 q 441 1850 451 1839 q 431 1872 431 1861 q 432 1881 431 1876 q 439 1890 433 1885 l 661 2096 q 676 2109 668 2104 q 696 2114 683 2114 q 715 2109 708 2114 q 731 2096 722 2104 l 954 1889 q 960 1880 958 1885 q 961 1871 961 1875 q 951 1849 961 1860 q 929 1839 940 1839 q 918 1842 924 1839 q 907 1851 913 1846 l 696 2025 l 486 1851 q 474 1842 479 1846 q 463 1839 469 1839 m 917 2054 q 894 2066 906 2054 q 882 2089 882 2078 q 883 2097 882 2093 q 890 2107 885 2100 l 1111 2299 q 1121 2308 1117 2304 q 1133 2311 1125 2311 q 1152 2303 1142 2311 q 1169 2285 1163 2296 q 1176 2265 1176 2275 q 1175 2255 1176 2260 q 1165 2244 1174 2250 l 936 2064 q 926 2057 931 2060 q 917 2054 921 2054 m 0 -1037 l 1392 -1037 l 1392 -1051 l 0 -1051 l 0 -1037 m 0 28 l 1392 28 l 1392 0 l 0 0 l 0 28 m 0 701 l 1392 701 l 1392 694 l 0 694 l 0 701 m 0 1760 l 1392 1760 l 1392 1746 l 0 1746 l 0 1760 z "},"Ậ":{"ha":1392,"x_min":0,"x_max":1392,"o":"m 89 -18 q 63 -4 68 -14 q 63 22 57 6 l 649 1735 q 665 1760 654 1753 q 696 1767 675 1767 q 725 1760 715 1767 q 740 1735 735 1753 l 1329 22 q 1329 -4 1336 6 q 1301 -18 1322 -14 q 1272 -15 1282 -21 q 1256 14 1263 -8 l 1078 538 l 314 538 l 135 14 q 119 -14 128 -7 q 89 -18 110 -21 m 339 607 l 1050 607 l 696 1653 l 339 607 m 696 -306 q 651 -289 665 -306 q 636 -237 636 -272 q 651 -185 636 -201 q 696 -168 665 -168 q 742 -185 726 -168 q 757 -237 757 -201 q 742 -289 757 -272 q 696 -306 726 -306 m 463 1839 q 441 1850 451 1839 q 431 1872 431 1861 q 432 1881 431 1876 q 439 1890 433 1885 l 661 2096 q 676 2109 668 2104 q 696 2114 683 2114 q 715 2109 708 2114 q 731 2096 722 2104 l 954 1889 q 960 1880 958 1885 q 961 1871 961 1875 q 951 1849 961 1860 q 929 1839 940 1839 q 918 1842 924 1839 q 907 1851 913 1846 l 696 2025 l 486 1851 q 474 1842 479 1846 q 463 1839 469 1839 m 0 -1037 l 1392 -1037 l 1392 -1051 l 0 -1051 l 0 -1037 m 0 28 l 1392 28 l 1392 0 l 0 0 l 0 28 m 0 701 l 1392 701 l 1392 694 l 0 694 l 0 701 m 0 1760 l 1392 1760 l 1392 1746 l 0 1746 l 0 1760 z "},"Ầ":{"ha":1392,"x_min":0,"x_max":1392,"o":"m 89 -18 q 63 -4 68 -14 q 63 22 57 6 l 649 1735 q 665 1760 654 1753 q 696 1767 675 1767 q 725 1760 715 1767 q 740 1735 735 1753 l 1329 22 q 1329 -4 1336 6 q 1301 -18 1322 -14 q 1272 -15 1282 -21 q 1256 14 1263 -8 l 1078 538 l 314 538 l 135 14 q 119 -14 128 -7 q 89 -18 110 -21 m 339 607 l 1050 607 l 696 1653 l 339 607 m 463 1839 q 441 1850 451 1839 q 431 1872 431 1861 q 432 1881 431 1876 q 439 1890 433 1885 l 661 2096 q 676 2109 668 2104 q 696 2114 683 2114 q 715 2109 708 2114 q 731 2096 722 2104 l 954 1889 q 960 1880 958 1885 q 961 1871 961 1875 q 951 1849 961 1860 q 929 1839 940 1839 q 918 1842 924 1839 q 907 1851 913 1846 l 696 2025 l 486 1851 q 474 1842 479 1846 q 463 1839 469 1839 m 1014 2039 q 1006 2042 1010 2039 q 994 2049 1001 2044 l 763 2249 q 754 2258 756 2254 q 753 2269 753 2263 q 760 2290 753 2279 q 777 2307 767 2300 q 797 2314 788 2314 q 808 2310 804 2314 q 818 2301 813 2307 l 1042 2090 q 1048 2081 1047 2086 q 1049 2072 1049 2076 q 1038 2051 1049 2063 q 1014 2039 1026 2039 m 0 -1037 l 1392 -1037 l 1392 -1051 l 0 -1051 l 0 -1037 m 0 28 l 1392 28 l 1392 0 l 0 0 l 0 28 m 0 701 l 1392 701 l 1392 694 l 0 694 l 0 701 m 0 1760 l 1392 1760 l 1392 1746 l 0 1746 l 0 1760 z "},"Ẩ":{"ha":1392,"x_min":0,"x_max":1392,"o":"m 89 -18 q 63 -4 68 -14 q 63 22 57 6 l 649 1735 q 665 1760 654 1753 q 696 1767 675 1767 q 725 1760 715 1767 q 740 1735 735 1753 l 1329 22 q 1329 -4 1336 6 q 1301 -18 1322 -14 q 1272 -15 1282 -21 q 1256 14 1263 -8 l 1078 538 l 314 538 l 135 14 q 119 -14 128 -7 q 89 -18 110 -21 m 339 607 l 1050 607 l 696 1653 l 339 607 m 463 1839 q 441 1850 451 1839 q 431 1872 431 1861 q 432 1881 431 1876 q 439 1890 433 1885 l 661 2096 q 676 2109 668 2104 q 696 2114 683 2114 q 715 2109 708 2114 q 731 2096 722 2104 l 954 1889 q 960 1880 958 1885 q 961 1871 961 1875 q 951 1849 961 1860 q 929 1839 940 1839 q 918 1842 924 1839 q 907 1851 913 1846 l 696 2025 l 486 1851 q 474 1842 479 1846 q 463 1839 469 1839 m 942 2333 q 1044 2303 1007 2333 q 1081 2225 1081 2272 q 1063 2169 1081 2193 q 1004 2117 1044 2144 q 969 2087 978 2100 q 971 2051 961 2074 l 974 2043 q 971 2023 978 2032 q 952 2010 964 2014 q 929 2008 940 2007 q 914 2021 918 2010 l 901 2047 q 899 2110 888 2082 q 943 2157 910 2138 q 987 2190 974 2175 q 1000 2222 1000 2204 q 981 2254 1000 2242 q 932 2267 961 2267 q 881 2259 906 2267 q 838 2238 857 2251 q 797 2251 813 2224 q 804 2292 786 2275 q 867 2322 832 2311 q 942 2333 901 2333 m 0 -1037 l 1392 -1037 l 1392 -1051 l 0 -1051 l 0 -1037 m 0 28 l 1392 28 l 1392 0 l 0 0 l 0 28 m 0 701 l 1392 701 l 1392 694 l 0 694 l 0 701 m 0 1760 l 1392 1760 l 1392 1746 l 0 1746 l 0 1760 z "},"Ẫ":{"ha":1392,"x_min":0,"x_max":1392,"o":"m 89 -18 q 63 -4 68 -14 q 63 22 57 6 l 649 1735 q 665 1760 654 1753 q 696 1767 675 1767 q 725 1760 715 1767 q 740 1735 735 1753 l 1329 22 q 1329 -4 1336 6 q 1301 -18 1322 -14 q 1272 -15 1282 -21 q 1256 14 1263 -8 l 1078 538 l 314 538 l 135 14 q 119 -14 128 -7 q 89 -18 110 -21 m 339 607 l 1050 607 l 696 1653 l 339 607 m 463 1839 q 441 1850 451 1839 q 431 1872 431 1861 q 432 1881 431 1876 q 439 1890 433 1885 l 661 2096 q 676 2109 668 2104 q 696 2114 683 2114 q 715 2109 708 2114 q 731 2096 722 2104 l 954 1889 q 960 1880 958 1885 q 961 1871 961 1875 q 951 1849 961 1860 q 929 1839 940 1839 q 918 1842 924 1839 q 907 1851 913 1846 l 696 2025 l 486 1851 q 474 1842 479 1846 q 463 1839 469 1839 m 468 2139 q 436 2167 436 2139 q 474 2284 440 2242 q 565 2326 507 2326 q 644 2308 608 2326 q 709 2267 679 2290 q 767 2227 739 2244 q 825 2210 796 2210 q 872 2234 856 2210 q 889 2303 888 2258 q 922 2328 892 2328 q 949 2322 942 2328 q 954 2299 956 2315 q 919 2183 953 2224 q 824 2142 885 2142 q 747 2159 782 2142 q 683 2199 713 2176 q 624 2240 653 2222 q 565 2258 594 2258 q 521 2235 536 2258 q 501 2165 506 2213 q 492 2144 500 2150 q 468 2139 485 2139 m 0 -1037 l 1392 -1037 l 1392 -1051 l 0 -1051 l 0 -1037 m 0 28 l 1392 28 l 1392 0 l 0 0 l 0 28 m 0 701 l 1392 701 l 1392 694 l 0 694 l 0 701 m 0 1760 l 1392 1760 l 1392 1746 l 0 1746 l 0 1760 z "},"Ạ":{"ha":1392,"x_min":0,"x_max":1392,"o":"m 89 -18 q 63 -4 68 -14 q 63 22 57 6 l 649 1735 q 665 1760 654 1753 q 696 1767 675 1767 q 725 1760 715 1767 q 740 1735 735 1753 l 1329 22 q 1329 -4 1336 6 q 1301 -18 1322 -14 q 1272 -15 1282 -21 q 1256 14 1263 -8 l 1078 538 l 314 538 l 135 14 q 119 -14 128 -7 q 89 -18 110 -21 m 339 607 l 1050 607 l 696 1653 l 339 607 m 696 -306 q 651 -289 665 -306 q 636 -237 636 -272 q 651 -185 636 -201 q 696 -168 665 -168 q 742 -185 726 -168 q 757 -237 757 -201 q 742 -289 757 -272 q 696 -306 726 -306 m 0 -1037 l 1392 -1037 l 1392 -1051 l 0 -1051 l 0 -1037 m 0 28 l 1392 28 l 1392 0 l 0 0 l 0 28 m 0 701 l 1392 701 l 1392 694 l 0 694 l 0 701 m 0 1760 l 1392 1760 l 1392 1746 l 0 1746 l 0 1760 z "},"Ả":{"ha":1392,"x_min":0,"x_max":1392,"o":"m 89 -18 q 63 -4 68 -14 q 63 22 57 6 l 649 1735 q 665 1760 654 1753 q 696 1767 675 1767 q 725 1760 715 1767 q 740 1735 735 1753 l 1329 22 q 1329 -4 1336 6 q 1301 -18 1322 -14 q 1272 -15 1282 -21 q 1256 14 1263 -8 l 1078 538 l 314 538 l 135 14 q 119 -14 128 -7 q 89 -18 110 -21 m 339 607 l 1050 607 l 696 1653 l 339 607 m 711 2154 q 813 2124 775 2154 q 850 2047 850 2094 q 832 1990 850 2014 q 772 1939 814 1965 q 738 1908 746 1921 q 740 1872 731 1894 l 743 1865 q 740 1844 747 1853 q 722 1832 733 1836 q 698 1830 710 1828 q 682 1842 686 1832 l 671 1869 q 668 1931 657 1904 q 711 1979 679 1958 q 756 2011 742 1996 q 769 2043 769 2026 q 750 2076 769 2063 q 700 2089 731 2089 q 650 2081 675 2089 q 606 2060 625 2074 q 567 2072 581 2046 q 574 2113 554 2096 q 635 2144 600 2133 q 711 2154 669 2154 m 0 -1037 l 1392 -1037 l 1392 -1051 l 0 -1051 l 0 -1037 m 0 28 l 1392 28 l 1392 0 l 0 0 l 0 28 m 0 701 l 1392 701 l 1392 694 l 0 694 l 0 701 m 0 1760 l 1392 1760 l 1392 1746 l 0 1746 l 0 1760 z "},"Ć":{"ha":1438,"x_min":0,"x_max":1438,"o":"m 833 -26 q 560 37 682 -26 q 352 217 439 100 q 219 499 265 335 q 172 867 172 664 q 195 1124 172 1004 q 262 1343 218 1243 q 367 1522 306 1443 q 506 1655 429 1600 q 674 1738 583 1710 q 865 1767 764 1767 q 1028 1744 947 1767 q 1180 1675 1108 1721 q 1306 1561 1251 1629 q 1315 1538 1317 1547 q 1300 1518 1314 1529 q 1276 1506 1286 1506 q 1254 1519 1267 1507 q 1135 1617 1199 1579 q 1004 1674 1072 1656 q 865 1693 936 1693 q 697 1667 776 1693 q 550 1592 618 1642 q 427 1470 482 1542 q 333 1306 372 1399 q 274 1104 294 1214 q 254 867 254 994 q 295 531 254 681 q 412 272 336 381 q 594 106 488 164 q 833 49 701 49 q 968 67 906 49 q 1086 118 1031 85 q 1192 197 1142 151 q 1292 297 1242 243 q 1314 312 1303 311 q 1339 300 1325 313 q 1354 278 1353 288 q 1344 257 1356 269 q 1185 99 1265 163 q 1019 5 1106 36 q 833 -26 933 -26 m 763 1843 q 738 1856 750 1843 q 726 1878 726 1868 q 728 1885 726 1881 q 735 1896 729 1890 l 976 2106 q 986 2114 982 2110 q 997 2118 990 2118 q 1017 2110 1007 2118 q 1035 2092 1028 2103 q 1042 2071 1042 2081 q 1040 2061 1042 2065 q 1032 2050 1039 2057 l 781 1853 q 771 1847 775 1850 q 763 1843 767 1843 m 0 -1037 l 1438 -1037 l 1438 -1051 l 0 -1051 l 0 -1037 m 0 28 l 1438 28 l 1438 0 l 0 0 l 0 28 m 0 701 l 1438 701 l 1438 694 l 0 694 l 0 701 m 0 1760 l 1438 1760 l 1438 1746 l 0 1746 l 0 1760 z "},"Č":{"ha":1438,"x_min":0,"x_max":1438,"o":"m 833 -26 q 560 37 682 -26 q 352 217 439 100 q 219 499 265 335 q 172 867 172 664 q 195 1124 172 1004 q 262 1343 218 1243 q 367 1522 306 1443 q 506 1655 429 1600 q 674 1738 583 1710 q 865 1767 764 1767 q 1028 1744 947 1767 q 1180 1675 1108 1721 q 1306 1561 1251 1629 q 1315 1538 1317 1547 q 1300 1518 1314 1529 q 1276 1506 1286 1506 q 1254 1519 1267 1507 q 1135 1617 1199 1579 q 1004 1674 1072 1656 q 865 1693 936 1693 q 697 1667 776 1693 q 550 1592 618 1642 q 427 1470 482 1542 q 333 1306 372 1399 q 274 1104 294 1214 q 254 867 254 994 q 295 531 254 681 q 412 272 336 381 q 594 106 488 164 q 833 49 701 49 q 968 67 906 49 q 1086 118 1031 85 q 1192 197 1142 151 q 1292 297 1242 243 q 1314 312 1303 311 q 1339 300 1325 313 q 1354 278 1353 288 q 1344 257 1356 269 q 1185 99 1265 163 q 1019 5 1106 36 q 833 -26 933 -26 m 1082 2118 q 1102 2108 1092 2118 q 1113 2085 1113 2097 q 1111 2076 1113 2081 q 1106 2067 1110 2072 l 883 1861 q 868 1848 875 1853 q 847 1843 861 1843 q 828 1848 835 1843 q 814 1861 821 1853 l 590 2068 q 583 2078 585 2074 q 582 2086 582 2083 q 593 2108 582 2099 q 614 2118 604 2118 q 626 2115 621 2118 q 638 2107 631 2111 l 847 1932 l 1058 2107 q 1069 2115 1064 2111 q 1082 2118 1075 2118 m 0 -1037 l 1438 -1037 l 1438 -1051 l 0 -1051 l 0 -1037 m 0 28 l 1438 28 l 1438 0 l 0 0 l 0 28 m 0 701 l 1438 701 l 1438 694 l 0 694 l 0 701 m 0 1760 l 1438 1760 l 1438 1746 l 0 1746 l 0 1760 z "},"Ç":{"ha":1438,"x_min":0,"x_max":1438,"o":"m 833 -26 q 560 37 682 -26 q 352 217 439 100 q 219 499 265 335 q 172 867 172 664 q 195 1124 172 1004 q 262 1343 218 1243 q 367 1522 306 1443 q 506 1655 429 1600 q 674 1738 583 1710 q 865 1767 764 1767 q 1028 1744 947 1767 q 1180 1675 1108 1721 q 1306 1561 1251 1629 q 1315 1538 1317 1547 q 1300 1518 1314 1529 q 1276 1506 1286 1506 q 1254 1519 1267 1507 q 1135 1617 1199 1579 q 1004 1674 1072 1656 q 865 1693 936 1693 q 697 1667 776 1693 q 550 1592 618 1642 q 427 1470 482 1542 q 333 1306 372 1399 q 274 1104 294 1214 q 254 867 254 994 q 295 531 254 681 q 412 272 336 381 q 594 106 488 164 q 833 49 701 49 q 968 67 906 49 q 1086 118 1031 85 q 1192 197 1142 151 q 1292 297 1242 243 q 1314 312 1303 311 q 1339 300 1325 313 q 1354 278 1353 288 q 1344 257 1356 269 q 1185 99 1265 163 q 1019 5 1106 36 q 833 -26 933 -26 m 797 -381 q 735 -374 772 -381 q 663 -346 697 -367 q 650 -327 651 -337 q 654 -304 649 -317 q 670 -289 661 -292 q 692 -292 679 -286 q 738 -308 713 -300 q 793 -315 764 -315 q 864 -297 839 -315 q 889 -242 889 -279 q 859 -189 889 -206 q 769 -179 829 -172 q 750 -178 757 -181 q 738 -169 743 -176 q 733 -151 732 -160 q 738 -131 733 -143 l 794 6 l 856 6 l 790 -150 l 767 -131 q 864 -124 819 -115 q 935 -162 908 -132 q 963 -242 963 -192 q 942 -316 963 -285 q 884 -364 921 -347 q 797 -381 847 -381 m 0 -1037 l 1438 -1037 l 1438 -1051 l 0 -1051 l 0 -1037 m 0 28 l 1438 28 l 1438 0 l 0 0 l 0 28 m 0 701 l 1438 701 l 1438 694 l 0 694 l 0 701 m 0 1760 l 1438 1760 l 1438 1746 l 0 1746 l 0 1760 z "},"Ĉ":{"ha":1438,"x_min":0,"x_max":1438,"o":"m 833 -26 q 560 37 682 -26 q 352 217 439 100 q 219 499 265 335 q 172 867 172 664 q 195 1124 172 1004 q 262 1343 218 1243 q 367 1522 306 1443 q 506 1655 429 1600 q 674 1738 583 1710 q 865 1767 764 1767 q 1028 1744 947 1767 q 1180 1675 1108 1721 q 1306 1561 1251 1629 q 1315 1538 1317 1547 q 1300 1518 1314 1529 q 1276 1506 1286 1506 q 1254 1519 1267 1507 q 1135 1617 1199 1579 q 1004 1674 1072 1656 q 865 1693 936 1693 q 697 1667 776 1693 q 550 1592 618 1642 q 427 1470 482 1542 q 333 1306 372 1399 q 274 1104 294 1214 q 254 867 254 994 q 295 531 254 681 q 412 272 336 381 q 594 106 488 164 q 833 49 701 49 q 968 67 906 49 q 1086 118 1031 85 q 1192 197 1142 151 q 1292 297 1242 243 q 1314 312 1303 311 q 1339 300 1325 313 q 1354 278 1353 288 q 1344 257 1356 269 q 1185 99 1265 163 q 1019 5 1106 36 q 833 -26 933 -26 m 614 1839 q 593 1850 604 1839 q 582 1872 582 1861 q 583 1881 582 1876 q 590 1890 585 1885 l 813 2096 q 827 2109 819 2104 q 847 2114 835 2114 q 867 2109 860 2114 q 882 2096 874 2104 l 1106 1889 q 1111 1880 1110 1885 q 1113 1871 1113 1875 q 1102 1849 1113 1860 q 1081 1839 1092 1839 q 1069 1842 1075 1839 q 1058 1851 1064 1846 l 847 2025 l 638 1851 q 626 1842 631 1846 q 614 1839 621 1839 m 0 -1037 l 1438 -1037 l 1438 -1051 l 0 -1051 l 0 -1037 m 0 28 l 1438 28 l 1438 0 l 0 0 l 0 28 m 0 701 l 1438 701 l 1438 694 l 0 694 l 0 701 m 0 1760 l 1438 1760 l 1438 1746 l 0 1746 l 0 1760 z "},"Ċ":{"ha":1438,"x_min":0,"x_max":1438,"o":"m 833 -26 q 560 37 682 -26 q 352 217 439 100 q 219 499 265 335 q 172 867 172 664 q 195 1124 172 1004 q 262 1343 218 1243 q 367 1522 306 1443 q 506 1655 429 1600 q 674 1738 583 1710 q 865 1767 764 1767 q 1028 1744 947 1767 q 1180 1675 1108 1721 q 1306 1561 1251 1629 q 1315 1538 1317 1547 q 1300 1518 1314 1529 q 1276 1506 1286 1506 q 1254 1519 1267 1507 q 1135 1617 1199 1579 q 1004 1674 1072 1656 q 865 1693 936 1693 q 697 1667 776 1693 q 550 1592 618 1642 q 427 1470 482 1542 q 333 1306 372 1399 q 274 1104 294 1214 q 254 867 254 994 q 295 531 254 681 q 412 272 336 381 q 594 106 488 164 q 833 49 701 49 q 968 67 906 49 q 1086 118 1031 85 q 1192 197 1142 151 q 1292 297 1242 243 q 1314 312 1303 311 q 1339 300 1325 313 q 1354 278 1353 288 q 1344 257 1356 269 q 1185 99 1265 163 q 1019 5 1106 36 q 833 -26 933 -26 m 847 1901 q 802 1917 817 1901 q 788 1968 788 1933 q 802 2021 788 2004 q 847 2038 817 2038 q 893 2021 878 2038 q 908 1968 908 2004 q 893 1917 908 1933 q 847 1901 878 1901 m 0 -1037 l 1438 -1037 l 1438 -1051 l 0 -1051 l 0 -1037 m 0 28 l 1438 28 l 1438 0 l 0 0 l 0 28 m 0 701 l 1438 701 l 1438 694 l 0 694 l 0 701 m 0 1760 l 1438 1760 l 1438 1746 l 0 1746 l 0 1760 z "},"Ď":{"ha":1613,"x_min":0,"x_max":1613,"o":"m 313 0 q 274 26 274 0 l 274 1708 q 283 1729 274 1722 q 313 1736 293 1736 l 650 1736 q 982 1685 836 1736 q 1230 1535 1128 1635 q 1386 1292 1332 1436 q 1440 957 1440 1147 q 1402 639 1440 786 q 1289 374 1364 492 q 1106 172 1214 256 q 858 44 997 89 q 547 0 718 0 l 313 0 m 351 72 l 544 72 q 827 113 700 72 q 1053 231 954 154 q 1219 416 1151 307 q 1322 661 1288 525 q 1357 957 1357 797 q 1308 1263 1357 1131 q 1168 1484 1260 1394 q 946 1619 1076 1574 q 650 1664 815 1664 l 351 1664 l 351 72 m 986 2118 q 1006 2108 996 2118 q 1017 2085 1017 2097 q 1015 2076 1017 2081 q 1010 2067 1014 2072 l 786 1861 q 772 1848 779 1853 q 751 1843 764 1843 q 732 1848 739 1843 q 717 1861 725 1853 l 494 2068 q 488 2078 489 2074 q 486 2086 486 2083 q 497 2108 486 2099 q 518 2118 508 2118 q 530 2115 525 2118 q 542 2107 535 2111 l 751 1932 l 963 2107 q 974 2115 968 2111 q 986 2118 979 2118 m 0 -1037 l 1613 -1037 l 1613 -1051 l 0 -1051 l 0 -1037 m 0 28 l 1613 28 l 1613 0 l 0 0 l 0 28 m 0 701 l 1613 701 l 1613 694 l 0 694 l 0 701 m 0 1760 l 1613 1760 l 1613 1746 l 0 1746 l 0 1760 z "},"Đ":{"ha":1613,"x_min":0,"x_max":1613,"o":"m 313 0 q 274 26 274 0 l 274 1708 q 283 1729 274 1722 q 313 1736 293 1736 l 650 1736 q 982 1685 836 1736 q 1230 1535 1128 1635 q 1386 1292 1332 1436 q 1440 957 1440 1147 q 1402 639 1440 786 q 1289 374 1364 492 q 1106 172 1214 256 q 858 44 997 89 q 547 0 718 0 l 313 0 m 351 72 l 544 72 q 827 113 700 72 q 1053 231 954 154 q 1219 416 1151 307 q 1322 661 1288 525 q 1357 957 1357 797 q 1308 1263 1357 1131 q 1168 1484 1260 1394 q 946 1619 1076 1574 q 650 1664 815 1664 l 351 1664 l 351 72 m 79 835 q 58 844 64 835 q 53 865 53 853 q 58 892 53 882 q 79 901 64 901 l 721 901 q 742 892 736 901 q 747 865 747 882 q 742 844 747 853 q 721 835 736 835 l 79 835 m 0 -1037 l 1613 -1037 l 1613 -1051 l 0 -1051 l 0 -1037 m 0 28 l 1613 28 l 1613 0 l 0 0 l 0 28 m 0 701 l 1613 701 l 1613 694 l 0 694 l 0 701 m 0 1760 l 1613 1760 l 1613 1746 l 0 1746 l 0 1760 z "},"É":{"ha":1229,"x_min":0,"x_max":1229,"o":"m 313 0 q 283 8 293 0 q 274 32 274 15 l 274 1708 q 283 1729 274 1722 q 313 1736 293 1736 l 1115 1736 q 1133 1728 1128 1736 q 1139 1701 1139 1719 q 1133 1674 1139 1682 q 1115 1667 1128 1667 l 350 1667 l 350 951 l 999 951 q 1017 944 1011 951 q 1022 917 1022 936 q 1017 890 1022 899 q 999 882 1011 882 l 350 882 l 350 69 l 1115 69 q 1133 62 1128 69 q 1139 35 1139 54 q 1133 8 1139 15 q 1115 0 1128 0 l 313 0 m 632 1843 q 609 1856 621 1843 q 597 1878 597 1868 q 598 1885 597 1881 q 604 1896 599 1890 l 846 2106 q 856 2114 851 2110 q 868 2118 860 2118 q 887 2110 876 2118 q 904 2092 897 2103 q 911 2071 911 2081 q 910 2061 911 2065 q 901 2050 908 2057 l 651 1853 q 640 1847 644 1850 q 632 1843 636 1843 m 0 -1037 l 1229 -1037 l 1229 -1051 l 0 -1051 l 0 -1037 m 0 28 l 1229 28 l 1229 0 l 0 0 l 0 28 m 0 701 l 1229 701 l 1229 694 l 0 694 l 0 701 m 0 1760 l 1229 1760 l 1229 1746 l 0 1746 l 0 1760 z "},"Ĕ":{"ha":1229,"x_min":0,"x_max":1229,"o":"m 313 0 q 283 8 293 0 q 274 32 274 15 l 274 1708 q 283 1729 274 1722 q 313 1736 293 1736 l 1115 1736 q 1133 1728 1128 1736 q 1139 1701 1139 1719 q 1133 1674 1139 1682 q 1115 1667 1128 1667 l 350 1667 l 350 951 l 999 951 q 1017 944 1011 951 q 1022 917 1022 936 q 1017 890 1022 899 q 999 882 1011 882 l 350 882 l 350 69 l 1115 69 q 1133 62 1128 69 q 1139 35 1139 54 q 1133 8 1139 15 q 1115 0 1128 0 l 313 0 m 717 1844 q 544 1905 611 1844 q 471 2090 476 1965 q 478 2110 469 2103 q 504 2118 486 2118 q 527 2111 521 2118 q 536 2090 533 2104 q 591 1963 544 2003 q 717 1922 638 1922 q 843 1963 796 1922 q 899 2090 890 2003 q 908 2111 901 2104 q 929 2118 914 2118 q 956 2110 947 2118 q 964 2090 964 2103 q 928 1954 960 2008 q 842 1872 896 1900 q 717 1844 788 1844 m 0 -1037 l 1229 -1037 l 1229 -1051 l 0 -1051 l 0 -1037 m 0 28 l 1229 28 l 1229 0 l 0 0 l 0 28 m 0 701 l 1229 701 l 1229 694 l 0 694 l 0 701 m 0 1760 l 1229 1760 l 1229 1746 l 0 1746 l 0 1760 z "},"Ě":{"ha":1229,"x_min":0,"x_max":1229,"o":"m 313 0 q 283 8 293 0 q 274 32 274 15 l 274 1708 q 283 1729 274 1722 q 313 1736 293 1736 l 1115 1736 q 1133 1728 1128 1736 q 1139 1701 1139 1719 q 1133 1674 1139 1682 q 1115 1667 1128 1667 l 350 1667 l 350 951 l 999 951 q 1017 944 1011 951 q 1022 917 1022 936 q 1017 890 1022 899 q 999 882 1011 882 l 350 882 l 350 69 l 1115 69 q 1133 62 1128 69 q 1139 35 1139 54 q 1133 8 1139 15 q 1115 0 1128 0 l 313 0 m 951 2118 q 972 2108 961 2118 q 982 2085 982 2097 q 981 2076 982 2081 q 975 2067 979 2072 l 753 1861 q 738 1848 744 1853 q 717 1843 731 1843 q 697 1848 704 1843 q 683 1861 690 1853 l 460 2068 q 454 2078 456 2074 q 453 2086 453 2083 q 463 2108 453 2099 q 483 2118 474 2118 q 495 2115 490 2118 q 507 2107 500 2111 l 717 1932 l 928 2107 q 939 2115 933 2111 q 951 2118 944 2118 m 0 -1037 l 1229 -1037 l 1229 -1051 l 0 -1051 l 0 -1037 m 0 28 l 1229 28 l 1229 0 l 0 0 l 0 28 m 0 701 l 1229 701 l 1229 694 l 0 694 l 0 701 m 0 1760 l 1229 1760 l 1229 1746 l 0 1746 l 0 1760 z "},"Ê":{"ha":1229,"x_min":0,"x_max":1229,"o":"m 313 0 q 283 8 293 0 q 274 32 274 15 l 274 1708 q 283 1729 274 1722 q 313 1736 293 1736 l 1115 1736 q 1133 1728 1128 1736 q 1139 1701 1139 1719 q 1133 1674 1139 1682 q 1115 1667 1128 1667 l 350 1667 l 350 951 l 999 951 q 1017 944 1011 951 q 1022 917 1022 936 q 1017 890 1022 899 q 999 882 1011 882 l 350 882 l 350 69 l 1115 69 q 1133 62 1128 69 q 1139 35 1139 54 q 1133 8 1139 15 q 1115 0 1128 0 l 313 0 m 483 1839 q 463 1850 474 1839 q 453 1872 453 1861 q 454 1881 453 1876 q 460 1890 456 1885 l 682 2096 q 697 2109 690 2104 q 717 2114 704 2114 q 737 2109 729 2114 q 751 2096 744 2104 l 975 1889 q 981 1880 979 1885 q 982 1871 982 1875 q 972 1849 982 1860 q 951 1839 961 1839 q 939 1842 944 1839 q 928 1851 933 1846 l 717 2025 l 507 1851 q 495 1842 500 1846 q 483 1839 490 1839 m 0 -1037 l 1229 -1037 l 1229 -1051 l 0 -1051 l 0 -1037 m 0 28 l 1229 28 l 1229 0 l 0 0 l 0 28 m 0 701 l 1229 701 l 1229 694 l 0 694 l 0 701 m 0 1760 l 1229 1760 l 1229 1746 l 0 1746 l 0 1760 z "},"Ë":{"ha":1229,"x_min":0,"x_max":1229,"o":"m 313 0 q 283 8 293 0 q 274 32 274 17 l 274 1708 q 283 1729 274 1722 q 313 1736 293 1736 l 1115 1736 q 1133 1728 1128 1736 q 1139 1701 1139 1719 q 1133 1674 1139 1682 q 1115 1667 1128 1667 l 350 1667 l 350 951 l 999 951 q 1017 944 1011 951 q 1022 917 1022 936 q 1017 890 1022 899 q 999 882 1011 882 l 350 882 l 350 69 l 1115 69 q 1133 62 1128 69 q 1139 35 1139 54 q 1133 8 1139 15 q 1115 0 1128 0 l 313 0 m 526 1901 q 481 1918 496 1901 q 467 1969 467 1935 q 482 2022 467 2004 q 526 2039 497 2039 q 572 2022 557 2039 q 588 1969 588 2004 q 572 1918 588 1935 q 526 1901 557 1901 m 908 1901 q 863 1918 878 1901 q 847 1969 847 1935 q 863 2022 847 2004 q 908 2039 878 2039 q 953 2022 938 2039 q 968 1969 968 2004 q 953 1918 969 1935 q 908 1901 938 1901 m 0 -1037 l 1229 -1037 l 1229 -1051 l 0 -1051 l 0 -1037 m 0 28 l 1229 28 l 1229 0 l 0 0 l 0 28 m 0 701 l 1229 701 l 1229 694 l 0 694 l 0 701 m 0 1760 l 1229 1760 l 1229 1746 l 0 1746 l 0 1760 z "},"Ė":{"ha":1229,"x_min":0,"x_max":1229,"o":"m 313 0 q 283 8 293 0 q 274 32 274 15 l 274 1708 q 283 1729 274 1722 q 313 1736 293 1736 l 1115 1736 q 1133 1728 1128 1736 q 1139 1701 1139 1719 q 1133 1674 1139 1682 q 1115 1667 1128 1667 l 350 1667 l 350 951 l 999 951 q 1017 944 1011 951 q 1022 917 1022 936 q 1017 890 1022 899 q 999 882 1011 882 l 350 882 l 350 69 l 1115 69 q 1133 62 1128 69 q 1139 35 1139 54 q 1133 8 1139 15 q 1115 0 1128 0 l 313 0 m 717 1901 q 672 1917 686 1901 q 657 1968 657 1933 q 672 2021 657 2004 q 717 2038 686 2038 q 763 2021 747 2038 q 778 1968 778 2004 q 763 1917 778 1933 q 717 1901 747 1901 m 0 -1037 l 1229 -1037 l 1229 -1051 l 0 -1051 l 0 -1037 m 0 28 l 1229 28 l 1229 0 l 0 0 l 0 28 m 0 701 l 1229 701 l 1229 694 l 0 694 l 0 701 m 0 1760 l 1229 1760 l 1229 1746 l 0 1746 l 0 1760 z "},"È":{"ha":1229,"x_min":0,"x_max":1229,"o":"m 313 0 q 283 8 293 0 q 274 32 274 15 l 274 1708 q 283 1729 274 1722 q 313 1736 293 1736 l 1115 1736 q 1133 1728 1128 1736 q 1139 1701 1139 1719 q 1133 1674 1139 1682 q 1115 1667 1128 1667 l 350 1667 l 350 951 l 999 951 q 1017 944 1011 951 q 1022 917 1022 936 q 1017 890 1022 899 q 999 882 1011 882 l 350 882 l 350 69 l 1115 69 q 1133 62 1128 69 q 1139 35 1139 54 q 1133 8 1139 15 q 1115 0 1128 0 l 313 0 m 796 1843 q 787 1847 790 1843 q 776 1853 783 1850 l 526 2050 q 518 2061 519 2057 q 517 2071 517 2065 q 524 2092 517 2081 q 541 2110 531 2103 q 560 2118 551 2118 q 572 2114 567 2118 q 582 2104 576 2110 l 822 1896 q 830 1885 829 1890 q 831 1878 831 1881 q 819 1856 831 1868 q 796 1843 807 1843 m 0 -1037 l 1229 -1037 l 1229 -1051 l 0 -1051 l 0 -1037 m 0 28 l 1229 28 l 1229 0 l 0 0 l 0 28 m 0 701 l 1229 701 l 1229 694 l 0 694 l 0 701 m 0 1760 l 1229 1760 l 1229 1746 l 0 1746 l 0 1760 z "},"Ē":{"ha":1229,"x_min":0,"x_max":1229,"o":"m 313 0 q 283 8 293 0 q 274 32 274 15 l 274 1708 q 283 1729 274 1722 q 313 1736 293 1736 l 1115 1736 q 1133 1728 1128 1736 q 1139 1701 1139 1719 q 1133 1674 1139 1682 q 1115 1667 1128 1667 l 350 1667 l 350 951 l 999 951 q 1017 944 1011 951 q 1022 917 1022 936 q 1017 890 1022 899 q 999 882 1011 882 l 350 882 l 350 69 l 1115 69 q 1133 62 1128 69 q 1139 35 1139 54 q 1133 8 1139 15 q 1115 0 1128 0 l 313 0 m 507 1940 q 486 1949 492 1940 q 481 1975 481 1958 q 486 2001 481 1992 q 507 2011 492 2011 l 926 2011 q 947 2001 942 2011 q 953 1975 953 1992 q 947 1949 953 1958 q 926 1940 942 1940 l 507 1940 m 0 -1037 l 1229 -1037 l 1229 -1051 l 0 -1051 l 0 -1037 m 0 28 l 1229 28 l 1229 0 l 0 0 l 0 28 m 0 701 l 1229 701 l 1229 694 l 0 694 l 0 701 m 0 1760 l 1229 1760 l 1229 1746 l 0 1746 l 0 1760 z "},"Ę":{"ha":1229,"x_min":0,"x_max":1229,"o":"m 313 0 q 283 8 293 0 q 274 32 274 15 l 274 1708 q 283 1729 274 1722 q 313 1736 293 1736 l 1115 1736 q 1133 1728 1128 1736 q 1139 1701 1139 1719 q 1133 1674 1139 1682 q 1115 1667 1128 1667 l 350 1667 l 350 951 l 999 951 q 1017 944 1011 951 q 1022 917 1022 936 q 1017 890 1022 899 q 999 882 1011 882 l 350 882 l 350 69 l 1115 69 q 1133 62 1128 69 q 1139 35 1139 54 q 1133 8 1139 15 q 1115 0 1128 0 l 313 0 m 1001 -382 q 913 -349 949 -382 q 876 -250 876 -317 q 891 -176 876 -212 q 933 -106 906 -140 q 996 -38 960 -71 q 1075 24 1032 -6 l 1131 22 l 1131 15 q 1065 -40 1097 -10 q 1005 -101 1032 -69 q 962 -167 978 -133 q 946 -233 946 -201 q 964 -297 946 -276 q 1011 -317 982 -317 q 1064 -303 1035 -317 q 1121 -261 1093 -290 q 1139 -251 1129 -251 q 1157 -258 1149 -250 q 1169 -280 1168 -268 q 1164 -301 1171 -292 q 1119 -344 1147 -325 q 1061 -372 1092 -362 q 1001 -382 1031 -382 m 0 -1037 l 1229 -1037 l 1229 -1051 l 0 -1051 l 0 -1037 m 0 28 l 1229 28 l 1229 0 l 0 0 l 0 28 m 0 701 l 1229 701 l 1229 694 l 0 694 l 0 701 m 0 1760 l 1229 1760 l 1229 1746 l 0 1746 l 0 1760 z "},"Ế":{"ha":1229,"x_min":0,"x_max":1229,"o":"m 313 0 q 283 8 293 0 q 274 32 274 15 l 274 1708 q 283 1729 274 1722 q 313 1736 293 1736 l 1115 1736 q 1133 1728 1128 1736 q 1139 1701 1139 1719 q 1133 1674 1139 1682 q 1115 1667 1128 1667 l 350 1667 l 350 951 l 999 951 q 1017 944 1011 951 q 1022 917 1022 936 q 1017 890 1022 899 q 999 882 1011 882 l 350 882 l 350 69 l 1115 69 q 1133 62 1128 69 q 1139 35 1139 54 q 1133 8 1139 15 q 1115 0 1128 0 l 313 0 m 483 1839 q 463 1850 474 1839 q 453 1872 453 1861 q 454 1881 453 1876 q 460 1890 456 1885 l 682 2096 q 697 2109 690 2104 q 717 2114 704 2114 q 737 2109 729 2114 q 751 2096 744 2104 l 975 1889 q 981 1880 979 1885 q 982 1871 982 1875 q 972 1849 982 1860 q 951 1839 961 1839 q 939 1842 944 1839 q 928 1851 933 1846 l 717 2025 l 507 1851 q 495 1842 500 1846 q 483 1839 490 1839 m 938 2054 q 915 2066 926 2054 q 903 2089 903 2078 q 904 2097 903 2093 q 911 2107 906 2100 l 1132 2299 q 1142 2308 1138 2304 q 1154 2311 1147 2311 q 1174 2303 1164 2311 q 1190 2285 1183 2296 q 1197 2265 1197 2275 q 1196 2255 1197 2260 q 1186 2244 1194 2250 l 957 2064 q 947 2057 951 2060 q 938 2054 942 2054 m 0 -1037 l 1229 -1037 l 1229 -1051 l 0 -1051 l 0 -1037 m 0 28 l 1229 28 l 1229 0 l 0 0 l 0 28 m 0 701 l 1229 701 l 1229 694 l 0 694 l 0 701 m 0 1760 l 1229 1760 l 1229 1746 l 0 1746 l 0 1760 z "},"Ệ":{"ha":1229,"x_min":0,"x_max":1229,"o":"m 313 0 q 283 8 293 0 q 274 32 274 15 l 274 1708 q 283 1729 274 1722 q 313 1736 293 1736 l 1115 1736 q 1133 1728 1128 1736 q 1139 1701 1139 1719 q 1133 1674 1139 1682 q 1115 1667 1128 1667 l 350 1667 l 350 951 l 999 951 q 1017 944 1011 951 q 1022 917 1022 936 q 1017 890 1022 899 q 999 882 1011 882 l 350 882 l 350 69 l 1115 69 q 1133 62 1128 69 q 1139 35 1139 54 q 1133 8 1139 15 q 1115 0 1128 0 l 313 0 m 693 -306 q 648 -289 663 -306 q 633 -237 633 -272 q 648 -185 633 -201 q 693 -168 663 -168 q 739 -185 724 -168 q 754 -237 754 -201 q 739 -289 754 -272 q 693 -306 724 -306 m 483 1839 q 463 1850 474 1839 q 453 1872 453 1861 q 454 1881 453 1876 q 460 1890 456 1885 l 682 2096 q 697 2109 690 2104 q 717 2114 704 2114 q 737 2109 729 2114 q 751 2096 744 2104 l 975 1889 q 981 1880 979 1885 q 982 1871 982 1875 q 972 1849 982 1860 q 951 1839 961 1839 q 939 1842 944 1839 q 928 1851 933 1846 l 717 2025 l 507 1851 q 495 1842 500 1846 q 483 1839 490 1839 m 0 -1037 l 1229 -1037 l 1229 -1051 l 0 -1051 l 0 -1037 m 0 28 l 1229 28 l 1229 0 l 0 0 l 0 28 m 0 701 l 1229 701 l 1229 694 l 0 694 l 0 701 m 0 1760 l 1229 1760 l 1229 1746 l 0 1746 l 0 1760 z "},"Ề":{"ha":1229,"x_min":0,"x_max":1229,"o":"m 313 0 q 283 8 293 0 q 274 32 274 15 l 274 1708 q 283 1729 274 1722 q 313 1736 293 1736 l 1115 1736 q 1133 1728 1128 1736 q 1139 1701 1139 1719 q 1133 1674 1139 1682 q 1115 1667 1128 1667 l 350 1667 l 350 951 l 999 951 q 1017 944 1011 951 q 1022 917 1022 936 q 1017 890 1022 899 q 999 882 1011 882 l 350 882 l 350 69 l 1115 69 q 1133 62 1128 69 q 1139 35 1139 54 q 1133 8 1139 15 q 1115 0 1128 0 l 313 0 m 483 1839 q 463 1850 474 1839 q 453 1872 453 1861 q 454 1881 453 1876 q 460 1890 456 1885 l 682 2096 q 697 2109 690 2104 q 717 2114 704 2114 q 737 2109 729 2114 q 751 2096 744 2104 l 975 1889 q 981 1880 979 1885 q 982 1871 982 1875 q 972 1849 982 1860 q 951 1839 961 1839 q 939 1842 944 1839 q 928 1851 933 1846 l 717 2025 l 507 1851 q 495 1842 500 1846 q 483 1839 490 1839 m 1035 2039 q 1026 2042 1031 2039 q 1017 2049 1022 2044 l 783 2249 q 776 2258 778 2254 q 774 2269 774 2263 q 781 2290 774 2279 q 799 2307 789 2300 q 818 2314 810 2314 q 830 2310 825 2314 q 840 2301 835 2307 l 1063 2090 q 1069 2081 1068 2086 q 1071 2072 1071 2076 q 1059 2051 1071 2063 q 1035 2039 1047 2039 m 0 -1037 l 1229 -1037 l 1229 -1051 l 0 -1051 l 0 -1037 m 0 28 l 1229 28 l 1229 0 l 0 0 l 0 28 m 0 701 l 1229 701 l 1229 694 l 0 694 l 0 701 m 0 1760 l 1229 1760 l 1229 1746 l 0 1746 l 0 1760 z "},"Ể":{"ha":1229,"x_min":0,"x_max":1229,"o":"m 313 0 q 283 8 293 0 q 274 32 274 15 l 274 1708 q 283 1729 274 1722 q 313 1736 293 1736 l 1115 1736 q 1133 1728 1128 1736 q 1139 1701 1139 1719 q 1133 1674 1139 1682 q 1115 1667 1128 1667 l 350 1667 l 350 951 l 999 951 q 1017 944 1011 951 q 1022 917 1022 936 q 1017 890 1022 899 q 999 882 1011 882 l 350 882 l 350 69 l 1115 69 q 1133 62 1128 69 q 1139 35 1139 54 q 1133 8 1139 15 q 1115 0 1128 0 l 313 0 m 483 1839 q 463 1850 474 1839 q 453 1872 453 1861 q 454 1881 453 1876 q 460 1890 456 1885 l 682 2096 q 697 2109 690 2104 q 717 2114 704 2114 q 737 2109 729 2114 q 751 2096 744 2104 l 975 1889 q 981 1880 979 1885 q 982 1871 982 1875 q 972 1849 982 1860 q 951 1839 961 1839 q 939 1842 944 1839 q 928 1851 933 1846 l 717 2025 l 507 1851 q 495 1842 500 1846 q 483 1839 490 1839 m 964 2333 q 1065 2303 1028 2333 q 1101 2225 1101 2272 q 1084 2169 1101 2193 q 1025 2117 1067 2144 q 990 2087 999 2100 q 993 2051 982 2074 l 994 2043 q 992 2023 999 2032 q 974 2010 986 2014 q 950 2008 961 2007 q 935 2021 939 2010 l 924 2047 q 921 2110 910 2082 q 964 2157 932 2138 q 1008 2190 994 2175 q 1021 2222 1021 2204 q 1002 2254 1021 2242 q 953 2267 983 2267 q 902 2259 926 2267 q 858 2238 878 2251 q 819 2251 833 2224 q 825 2292 807 2275 q 888 2322 853 2311 q 964 2333 922 2333 m 0 -1037 l 1229 -1037 l 1229 -1051 l 0 -1051 l 0 -1037 m 0 28 l 1229 28 l 1229 0 l 0 0 l 0 28 m 0 701 l 1229 701 l 1229 694 l 0 694 l 0 701 m 0 1760 l 1229 1760 l 1229 1746 l 0 1746 l 0 1760 z "},"Ễ":{"ha":1229,"x_min":0,"x_max":1229,"o":"m 313 0 q 283 8 293 0 q 274 32 274 15 l 274 1708 q 283 1729 274 1722 q 313 1736 293 1736 l 1115 1736 q 1133 1728 1128 1736 q 1139 1701 1139 1719 q 1133 1674 1139 1682 q 1115 1667 1128 1667 l 350 1667 l 350 951 l 999 951 q 1017 944 1011 951 q 1022 917 1022 936 q 1017 890 1022 899 q 999 882 1011 882 l 350 882 l 350 69 l 1115 69 q 1133 62 1128 69 q 1139 35 1139 54 q 1133 8 1139 15 q 1115 0 1128 0 l 313 0 m 483 1839 q 463 1850 474 1839 q 453 1872 453 1861 q 454 1881 453 1876 q 460 1890 456 1885 l 682 2096 q 697 2109 690 2104 q 717 2114 704 2114 q 737 2109 729 2114 q 751 2096 744 2104 l 975 1889 q 981 1880 979 1885 q 982 1871 982 1875 q 972 1849 982 1860 q 951 1839 961 1839 q 939 1842 944 1839 q 928 1851 933 1846 l 717 2025 l 507 1851 q 495 1842 500 1846 q 483 1839 490 1839 m 489 2139 q 458 2167 458 2139 q 495 2284 461 2242 q 586 2326 529 2326 q 665 2308 629 2326 q 730 2267 700 2290 q 788 2227 760 2244 q 847 2210 817 2210 q 892 2234 876 2210 q 910 2303 908 2258 q 943 2328 913 2328 q 969 2322 963 2328 q 975 2299 976 2315 q 940 2183 974 2224 q 846 2142 906 2142 q 769 2159 804 2142 q 703 2199 733 2176 q 645 2240 674 2222 q 586 2258 617 2258 q 542 2235 557 2258 q 524 2165 526 2213 q 514 2144 521 2150 q 489 2139 507 2139 m 0 -1037 l 1229 -1037 l 1229 -1051 l 0 -1051 l 0 -1037 m 0 28 l 1229 28 l 1229 0 l 0 0 l 0 28 m 0 701 l 1229 701 l 1229 694 l 0 694 l 0 701 m 0 1760 l 1229 1760 l 1229 1746 l 0 1746 l 0 1760 z "},"Ẹ":{"ha":1229,"x_min":0,"x_max":1229,"o":"m 313 0 q 283 8 293 0 q 274 32 274 15 l 274 1708 q 283 1729 274 1722 q 313 1736 293 1736 l 1115 1736 q 1133 1728 1128 1736 q 1139 1701 1139 1719 q 1133 1674 1139 1682 q 1115 1667 1128 1667 l 350 1667 l 350 951 l 999 951 q 1017 944 1011 951 q 1022 917 1022 936 q 1017 890 1022 899 q 999 882 1011 882 l 350 882 l 350 69 l 1115 69 q 1133 62 1128 69 q 1139 35 1139 54 q 1133 8 1139 15 q 1115 0 1128 0 l 313 0 m 693 -306 q 648 -289 663 -306 q 633 -237 633 -272 q 648 -185 633 -201 q 693 -168 663 -168 q 739 -185 724 -168 q 754 -237 754 -201 q 739 -289 754 -272 q 693 -306 724 -306 m 0 -1037 l 1229 -1037 l 1229 -1051 l 0 -1051 l 0 -1037 m 0 28 l 1229 28 l 1229 0 l 0 0 l 0 28 m 0 701 l 1229 701 l 1229 694 l 0 694 l 0 701 m 0 1760 l 1229 1760 l 1229 1746 l 0 1746 l 0 1760 z "},"Ẻ":{"ha":1229,"x_min":0,"x_max":1229,"o":"m 313 0 q 283 8 293 0 q 274 32 274 15 l 274 1708 q 283 1729 274 1722 q 313 1736 293 1736 l 1115 1736 q 1133 1728 1128 1736 q 1139 1701 1139 1721 q 1133 1674 1139 1682 q 1115 1667 1128 1667 l 350 1667 l 350 951 l 999 951 q 1017 944 1011 951 q 1022 917 1022 936 q 1017 890 1022 899 q 999 882 1011 882 l 350 882 l 350 69 l 1115 69 q 1133 62 1128 69 q 1139 35 1139 54 q 1133 8 1139 15 q 1115 0 1128 0 l 313 0 m 732 2154 q 833 2124 796 2154 q 871 2047 871 2094 q 853 1990 871 2014 q 794 1939 835 1965 q 759 1908 767 1921 q 761 1872 751 1894 l 764 1865 q 761 1844 768 1853 q 742 1832 754 1836 q 719 1830 731 1828 q 704 1842 708 1832 l 692 1869 q 689 1931 678 1904 q 733 1979 700 1958 q 777 2011 764 1996 q 790 2043 790 2026 q 771 2076 790 2063 q 722 2089 751 2089 q 672 2081 696 2089 q 628 2060 647 2074 q 588 2072 601 2046 q 594 2113 575 2096 q 656 2144 621 2133 q 732 2154 692 2154 m 0 -1037 l 1229 -1037 l 1229 -1051 l 0 -1051 l 0 -1037 m 0 28 l 1229 28 l 1229 0 l 0 0 l 0 28 m 0 701 l 1229 701 l 1229 694 l 0 694 l 0 701 m 0 1760 l 1229 1760 l 1229 1746 l 0 1746 l 0 1760 z "},"Ẽ":{"ha":1229,"x_min":0,"x_max":1229,"o":"m 313 0 q 283 8 293 0 q 274 32 274 15 l 274 1708 q 283 1729 274 1722 q 313 1736 293 1736 l 1115 1736 q 1133 1728 1128 1736 q 1139 1701 1139 1721 q 1133 1674 1139 1682 q 1115 1667 1128 1667 l 350 1667 l 350 951 l 999 951 q 1017 944 1011 951 q 1022 917 1022 936 q 1017 890 1022 899 q 999 882 1011 882 l 350 882 l 350 69 l 1115 69 q 1133 62 1128 69 q 1139 35 1139 54 q 1133 8 1139 15 q 1115 0 1128 0 l 313 0 m 488 1889 q 457 1917 457 1889 q 494 2034 460 1992 q 585 2076 528 2076 q 663 2058 628 2076 q 728 2017 699 2040 q 787 1977 758 1994 q 846 1960 815 1960 q 891 1984 875 1960 q 908 2053 907 2008 q 942 2078 911 2078 q 968 2072 961 2078 q 974 2050 975 2065 q 938 1933 972 1974 q 843 1892 904 1892 q 767 1909 801 1892 q 702 1950 732 1926 q 644 1991 672 1974 q 585 2008 615 2008 q 540 1985 556 2008 q 521 1915 525 1963 q 513 1894 519 1900 q 488 1889 506 1889 m 0 -1037 l 1229 -1037 l 1229 -1051 l 0 -1051 l 0 -1037 m 0 28 l 1229 28 l 1229 0 l 0 0 l 0 28 m 0 701 l 1229 701 l 1229 694 l 0 694 l 0 701 m 0 1760 l 1229 1760 l 1229 1746 l 0 1746 l 0 1760 z "},"Ğ":{"ha":1618,"x_min":0,"x_max":1618,"o":"m 815 -26 q 553 37 671 -26 q 349 217 435 100 q 218 499 264 333 q 172 871 172 665 q 195 1127 172 1008 q 262 1346 218 1246 q 367 1524 306 1446 q 506 1656 429 1601 q 674 1738 583 1710 q 865 1767 764 1767 q 1024 1744 949 1767 q 1165 1677 1099 1722 q 1285 1561 1231 1632 q 1294 1538 1296 1547 q 1279 1518 1293 1529 q 1255 1506 1265 1506 q 1232 1519 1244 1507 q 1124 1617 1181 1578 q 1003 1674 1067 1656 q 865 1693 940 1693 q 697 1667 776 1693 q 550 1592 618 1642 q 427 1472 482 1543 q 333 1308 372 1400 q 274 1107 294 1217 q 254 871 254 997 q 294 531 254 683 q 410 271 335 379 q 588 106 485 163 q 815 49 690 49 q 981 75 903 49 q 1126 158 1060 101 q 1240 308 1192 215 q 1315 531 1289 400 q 1342 836 1342 661 l 871 836 q 853 844 860 836 q 847 871 847 851 q 853 898 847 890 q 871 906 860 906 l 1389 906 q 1413 899 1407 906 q 1419 874 1419 892 q 1376 466 1419 636 q 1253 187 1333 296 q 1061 26 1172 78 q 815 -26 950 -26 m 836 1844 q 663 1905 729 1844 q 589 2090 596 1965 q 597 2110 589 2103 q 622 2118 606 2118 q 646 2111 639 2118 q 654 2090 653 2104 q 710 1963 664 2003 q 836 1922 756 1922 q 962 1963 915 1922 q 1017 2090 1008 2003 q 1026 2111 1019 2104 q 1047 2118 1032 2118 q 1074 2110 1065 2118 q 1082 2090 1083 2103 q 1047 1954 1079 2008 q 960 1872 1014 1900 q 836 1844 907 1844 m 0 -1037 l 1618 -1037 l 1618 -1051 l 0 -1051 l 0 -1037 m 0 28 l 1618 28 l 1618 0 l 0 0 l 0 28 m 0 701 l 1618 701 l 1618 694 l 0 694 l 0 701 m 0 1760 l 1618 1760 l 1618 1746 l 0 1746 l 0 1760 z "},"Ĝ":{"ha":1618,"x_min":0,"x_max":1618,"o":"m 815 -26 q 553 36 671 -26 q 349 216 435 99 q 218 499 264 333 q 172 871 172 665 q 195 1127 172 1008 q 262 1346 218 1246 q 367 1524 306 1446 q 506 1656 429 1601 q 674 1738 583 1710 q 865 1767 764 1767 q 1024 1744 949 1767 q 1165 1677 1099 1722 q 1285 1561 1231 1632 q 1294 1538 1296 1547 q 1279 1518 1293 1529 q 1255 1506 1265 1506 q 1232 1519 1244 1507 q 1124 1617 1181 1578 q 1003 1674 1067 1656 q 865 1693 940 1693 q 697 1667 776 1693 q 550 1592 618 1642 q 427 1472 482 1543 q 333 1308 372 1400 q 274 1108 294 1217 q 254 871 254 999 q 294 531 254 683 q 409 271 335 379 q 587 106 483 163 q 815 49 690 49 q 981 75 903 49 q 1126 158 1060 101 q 1240 308 1192 215 q 1315 531 1288 400 q 1342 836 1342 661 l 871 836 q 853 844 860 836 q 847 871 847 851 q 853 898 847 890 q 871 906 860 906 l 1389 906 q 1413 899 1407 906 q 1419 874 1419 892 q 1376 465 1419 636 q 1253 186 1333 294 q 1061 26 1172 78 q 815 -26 950 -26 m 603 1839 q 581 1850 592 1839 q 571 1872 571 1861 q 572 1881 571 1876 q 578 1890 574 1885 l 800 2096 q 816 2109 808 2104 q 836 2114 824 2114 q 856 2109 849 2114 q 869 2096 863 2104 l 1093 1889 q 1100 1880 1099 1885 q 1101 1871 1101 1875 q 1091 1849 1101 1860 q 1069 1839 1081 1839 q 1058 1842 1063 1839 q 1046 1851 1053 1846 l 836 2025 l 625 1851 q 615 1842 619 1846 q 603 1839 610 1839 m 0 -1037 l 1618 -1037 l 1618 -1051 l 0 -1051 l 0 -1037 m 0 28 l 1618 28 l 1618 0 l 0 0 l 0 28 m 0 701 l 1618 701 l 1618 694 l 0 694 l 0 701 m 0 1760 l 1618 1760 l 1618 1746 l 0 1746 l 0 1760 z "},"Ģ":{"ha":1618,"x_min":0,"x_max":1618,"o":"m 815 -26 q 553 37 671 -26 q 349 217 435 100 q 218 499 264 333 q 172 871 172 665 q 195 1127 172 1008 q 262 1346 218 1246 q 367 1524 306 1446 q 506 1656 429 1601 q 674 1738 583 1710 q 865 1767 764 1767 q 1024 1744 949 1767 q 1165 1677 1099 1722 q 1285 1561 1231 1632 q 1294 1538 1296 1547 q 1279 1518 1293 1529 q 1255 1506 1265 1506 q 1232 1519 1244 1507 q 1124 1617 1181 1578 q 1003 1674 1067 1656 q 865 1693 940 1693 q 697 1667 776 1693 q 550 1592 618 1642 q 427 1472 482 1543 q 333 1308 372 1400 q 274 1107 294 1217 q 254 871 254 997 q 294 531 254 683 q 410 271 335 379 q 588 106 485 163 q 815 49 690 49 q 981 75 903 49 q 1126 158 1060 101 q 1240 308 1192 215 q 1315 531 1289 400 q 1342 836 1342 661 l 871 836 q 853 844 860 836 q 847 871 847 851 q 853 898 847 890 q 871 906 860 906 l 1389 906 q 1413 899 1407 906 q 1419 874 1419 892 q 1376 466 1419 636 q 1253 187 1333 296 q 1061 26 1172 78 q 815 -26 950 -26 m 739 -414 q 722 -398 724 -407 q 729 -371 719 -389 q 756 -303 746 -336 q 772 -233 767 -271 q 776 -147 776 -196 q 785 -123 776 -132 q 813 -114 793 -114 q 844 -125 833 -114 q 854 -153 854 -136 q 845 -234 854 -190 q 820 -320 836 -278 q 783 -396 804 -362 q 764 -415 774 -410 q 739 -414 754 -419 m 0 -1037 l 1618 -1037 l 1618 -1051 l 0 -1051 l 0 -1037 m 0 28 l 1618 28 l 1618 0 l 0 0 l 0 28 m 0 701 l 1618 701 l 1618 694 l 0 694 l 0 701 m 0 1760 l 1618 1760 l 1618 1746 l 0 1746 l 0 1760 z "},"Ġ":{"ha":1618,"x_min":0,"x_max":1618,"o":"m 815 -26 q 553 37 671 -26 q 349 217 435 100 q 218 499 264 333 q 172 871 172 665 q 195 1127 172 1008 q 262 1346 218 1246 q 367 1524 306 1446 q 506 1656 429 1601 q 674 1738 583 1710 q 865 1767 764 1767 q 1024 1744 949 1767 q 1165 1677 1099 1722 q 1285 1561 1231 1632 q 1294 1538 1296 1547 q 1279 1518 1293 1529 q 1255 1506 1265 1506 q 1232 1519 1244 1507 q 1124 1617 1181 1578 q 1003 1674 1067 1656 q 865 1693 940 1693 q 697 1667 776 1693 q 550 1592 618 1642 q 427 1472 482 1543 q 333 1308 372 1400 q 274 1107 294 1217 q 254 871 254 997 q 294 531 254 683 q 410 271 335 379 q 588 106 485 163 q 815 49 690 49 q 981 75 903 49 q 1126 158 1060 101 q 1240 308 1192 215 q 1315 531 1289 400 q 1342 836 1342 661 l 871 836 q 853 844 860 836 q 847 871 847 851 q 853 898 847 890 q 871 906 860 906 l 1389 906 q 1413 899 1407 906 q 1419 874 1419 892 q 1376 466 1419 636 q 1253 187 1333 296 q 1061 26 1172 78 q 815 -26 950 -26 m 836 1901 q 790 1917 806 1901 q 775 1968 775 1933 q 790 2021 775 2004 q 836 2038 806 2038 q 881 2021 865 2038 q 896 1968 896 2004 q 881 1917 897 1933 q 836 1901 865 1901 m 0 -1037 l 1618 -1037 l 1618 -1051 l 0 -1051 l 0 -1037 m 0 28 l 1618 28 l 1618 0 l 0 0 l 0 28 m 0 701 l 1618 701 l 1618 694 l 0 694 l 0 701 m 0 1760 l 1618 1760 l 1618 1746 l 0 1746 l 0 1760 z "},"Ħ":{"ha":1647,"x_min":0,"x_max":1647,"o":"m 313 -19 q 274 7 274 -19 l 274 1740 q 283 1760 274 1754 q 313 1767 293 1767 q 350 1740 350 1767 l 350 944 l 1297 944 l 1297 1740 q 1306 1760 1297 1754 q 1335 1767 1315 1767 q 1372 1740 1372 1767 l 1372 7 q 1364 -13 1372 -7 q 1335 -19 1356 -19 q 1297 7 1297 -19 l 1297 875 l 350 875 l 350 7 q 341 -13 350 -7 q 313 -19 332 -19 m 107 1314 q 85 1322 90 1314 q 81 1346 81 1331 q 85 1373 81 1364 q 107 1382 90 1382 l 1542 1382 q 1563 1373 1557 1382 q 1568 1346 1568 1364 q 1563 1322 1568 1331 q 1542 1314 1557 1314 l 107 1314 m 0 -1037 l 1647 -1037 l 1647 -1051 l 0 -1051 l 0 -1037 m 0 28 l 1647 28 l 1647 0 l 0 0 l 0 28 m 0 701 l 1647 701 l 1647 694 l 0 694 l 0 701 m 0 1760 l 1647 1760 l 1647 1746 l 0 1746 l 0 1760 z "},"Ĥ":{"ha":1647,"x_min":0,"x_max":1647,"o":"m 313 -19 q 274 7 274 -19 l 274 1740 q 283 1760 274 1754 q 313 1767 293 1767 q 350 1740 350 1767 l 350 944 l 1297 944 l 1297 1740 q 1306 1760 1297 1754 q 1335 1767 1315 1767 q 1372 1740 1372 1767 l 1372 7 q 1364 -13 1372 -7 q 1335 -19 1356 -19 q 1297 7 1297 -19 l 1297 875 l 350 875 l 350 7 q 341 -13 350 -7 q 313 -19 332 -19 m 590 1839 q 570 1850 581 1839 q 560 1872 560 1861 q 560 1881 560 1876 q 567 1890 561 1885 l 789 2096 q 803 2109 796 2104 q 824 2114 811 2114 q 843 2109 836 2114 q 858 2096 850 2104 l 1082 1889 q 1088 1880 1086 1885 q 1089 1871 1089 1875 q 1078 1849 1089 1860 q 1058 1839 1068 1839 q 1046 1842 1051 1839 q 1035 1851 1040 1846 l 824 2025 l 614 1851 q 602 1842 607 1846 q 590 1839 597 1839 m 0 -1037 l 1647 -1037 l 1647 -1051 l 0 -1051 l 0 -1037 m 0 28 l 1647 28 l 1647 0 l 0 0 l 0 28 m 0 701 l 1647 701 l 1647 694 l 0 694 l 0 701 m 0 1760 l 1647 1760 l 1647 1746 l 0 1746 l 0 1760 z "},"Í":{"ha":626,"x_min":0,"x_max":626,"o":"m 314 -19 q 285 -12 293 -19 q 276 7 276 -6 l 276 1740 q 285 1760 276 1754 q 313 1767 294 1767 q 342 1760 332 1767 q 351 1740 351 1754 l 351 7 q 342 -12 351 -6 q 314 -19 333 -19 m 228 1843 q 205 1856 217 1843 q 193 1878 193 1868 q 194 1885 193 1881 q 200 1896 194 1890 l 442 2106 q 451 2114 447 2110 q 464 2118 456 2118 q 483 2110 472 2118 q 500 2092 493 2103 q 507 2071 507 2081 q 506 2061 507 2065 q 497 2050 504 2057 l 247 1853 q 236 1847 240 1850 q 228 1843 232 1843 m 0 -1037 l 626 -1037 l 626 -1051 l 0 -1051 l 0 -1037 m 0 28 l 626 28 l 626 0 l 0 0 l 0 28 m 0 701 l 626 701 l 626 694 l 0 694 l 0 701 m 0 1760 l 626 1760 l 626 1746 l 0 1746 l 0 1760 z "},"Ĭ":{"ha":626,"x_min":0,"x_max":626,"o":"m 314 -19 q 285 -13 293 -19 q 276 7 276 -7 l 276 1740 q 285 1760 276 1754 q 314 1767 293 1767 q 342 1760 332 1767 q 351 1740 351 1754 l 351 7 q 342 -13 351 -7 q 314 -19 333 -19 m 313 1844 q 140 1905 207 1844 q 67 2090 72 1965 q 74 2110 65 2103 q 100 2118 82 2118 q 123 2111 117 2118 q 132 2090 129 2104 q 188 1963 142 2003 q 314 1922 233 1922 q 440 1963 393 1922 q 494 2090 486 2003 q 503 2111 497 2104 q 525 2118 510 2118 q 551 2110 543 2118 q 560 2090 560 2103 q 524 1954 556 2008 q 438 1872 492 1900 q 313 1844 383 1844 m 0 -1037 l 626 -1037 l 626 -1051 l 0 -1051 l 0 -1037 m 0 28 l 626 28 l 626 0 l 0 0 l 0 28 m 0 701 l 626 701 l 626 694 l 0 694 l 0 701 m 0 1760 l 626 1760 l 626 1746 l 0 1746 l 0 1760 z "},"Ǐ":{"ha":626,"x_min":0,"x_max":626,"o":"m 313 -19 q 285 -13 293 -19 q 276 7 276 -7 l 276 1740 q 285 1760 276 1754 q 314 1767 293 1767 q 342 1760 332 1767 q 351 1740 351 1754 l 351 7 q 342 -13 351 -7 q 313 -19 333 -19 m 547 2118 q 567 2108 557 2118 q 578 2085 578 2097 q 577 2076 578 2081 q 571 2067 576 2072 l 349 1861 q 333 1848 340 1853 q 313 1843 326 1843 q 293 1848 300 1843 q 279 1861 286 1853 l 56 2068 q 50 2078 51 2074 q 49 2086 49 2083 q 59 2108 49 2099 q 79 2118 69 2118 q 91 2115 86 2118 q 103 2107 96 2111 l 313 1932 l 524 2107 q 535 2115 531 2111 q 547 2118 540 2118 m 0 -1037 l 626 -1037 l 626 -1051 l 0 -1051 l 0 -1037 m 0 28 l 626 28 l 626 0 l 0 0 l 0 28 m 0 701 l 626 701 l 626 694 l 0 694 l 0 701 m 0 1760 l 626 1760 l 626 1746 l 0 1746 l 0 1760 z "},"Î":{"ha":626,"x_min":0,"x_max":626,"o":"m 313 -19 q 285 -13 293 -19 q 276 7 276 -7 l 276 1740 q 285 1760 276 1754 q 314 1767 293 1767 q 342 1760 332 1767 q 351 1740 351 1754 l 351 7 q 342 -13 351 -7 q 313 -19 333 -19 m 79 1839 q 59 1850 69 1839 q 49 1872 49 1861 q 50 1881 49 1876 q 56 1890 51 1885 l 278 2096 q 293 2109 286 2104 q 313 2114 300 2114 q 333 2109 325 2114 q 347 2096 340 2104 l 571 1889 q 577 1880 576 1885 q 578 1871 578 1875 q 567 1849 578 1860 q 547 1839 557 1839 q 535 1842 540 1839 q 524 1851 531 1846 l 313 2025 l 103 1851 q 91 1842 96 1846 q 79 1839 86 1839 m 0 -1037 l 626 -1037 l 626 -1051 l 0 -1051 l 0 -1037 m 0 28 l 626 28 l 626 0 l 0 0 l 0 28 m 0 701 l 626 701 l 626 694 l 0 694 l 0 701 m 0 1760 l 626 1760 l 626 1746 l 0 1746 l 0 1760 z "},"Ï":{"ha":626,"x_min":0,"x_max":626,"o":"m 314 -19 q 285 -12 293 -19 q 276 7 276 -6 l 276 1740 q 285 1760 276 1754 q 313 1767 294 1767 q 342 1760 332 1767 q 351 1740 351 1754 l 351 7 q 342 -12 351 -6 q 314 -19 333 -19 m 122 1901 q 77 1918 92 1901 q 63 1969 63 1935 q 78 2022 63 2004 q 122 2039 93 2039 q 168 2022 153 2039 q 183 1969 183 2004 q 169 1918 185 1935 q 122 1901 153 1901 m 504 1901 q 458 1918 474 1901 q 443 1969 443 1935 q 458 2022 443 2004 q 504 2039 474 2039 q 549 2022 533 2039 q 564 1969 564 2004 q 549 1918 565 1935 q 504 1901 533 1901 m 0 -1037 l 626 -1037 l 626 -1051 l 0 -1051 l 0 -1037 m 0 28 l 626 28 l 626 0 l 0 0 l 0 28 m 0 701 l 626 701 l 626 694 l 0 694 l 0 701 m 0 1760 l 626 1760 l 626 1746 l 0 1746 l 0 1760 z "},"İ":{"ha":626,"x_min":0,"x_max":626,"o":"m 314 -19 q 285 -12 293 -19 q 276 7 276 -6 l 276 1740 q 285 1760 276 1754 q 313 1767 294 1767 q 342 1760 332 1767 q 351 1740 351 1754 l 351 7 q 342 -12 351 -6 q 314 -19 333 -19 m 313 1901 q 267 1917 282 1901 q 253 1968 253 1933 q 268 2021 253 2004 q 313 2038 283 2038 q 358 2020 343 2038 q 374 1968 374 2003 q 358 1917 374 1933 q 313 1901 343 1901 m 0 -1037 l 626 -1037 l 626 -1051 l 0 -1051 l 0 -1037 m 0 28 l 626 28 l 626 0 l 0 0 l 0 28 m 0 701 l 626 701 l 626 694 l 0 694 l 0 701 m 0 1760 l 626 1760 l 626 1746 l 0 1746 l 0 1760 z "},"Ì":{"ha":626,"x_min":0,"x_max":626,"o":"m 314 -19 q 285 -12 293 -19 q 276 7 276 -6 l 276 1740 q 285 1760 276 1754 q 313 1767 294 1767 q 342 1760 332 1767 q 351 1740 351 1754 l 351 7 q 342 -12 351 -6 q 314 -19 333 -19 m 392 1843 q 383 1847 386 1843 q 372 1853 379 1850 l 122 2050 q 114 2061 115 2057 q 113 2071 113 2065 q 119 2091 113 2081 q 137 2110 126 2101 q 156 2118 147 2118 q 167 2114 163 2118 q 178 2104 172 2110 l 418 1896 q 426 1885 425 1890 q 426 1878 426 1881 q 415 1856 426 1868 q 392 1843 403 1843 m 0 -1037 l 626 -1037 l 626 -1051 l 0 -1051 l 0 -1037 m 0 28 l 626 28 l 626 0 l 0 0 l 0 28 m 0 701 l 626 701 l 626 694 l 0 694 l 0 701 m 0 1760 l 626 1760 l 626 1746 l 0 1746 l 0 1760 z "},"Ī":{"ha":626,"x_min":0,"x_max":626,"o":"m 314 -19 q 285 -13 293 -19 q 276 7 276 -7 l 276 1740 q 285 1760 276 1754 q 314 1767 293 1767 q 342 1760 332 1767 q 351 1740 351 1754 l 351 7 q 342 -13 351 -7 q 314 -19 333 -19 m 104 1940 q 83 1949 89 1940 q 78 1975 78 1958 q 83 2001 78 1992 q 104 2011 89 2011 l 522 2011 q 543 2001 538 2011 q 549 1975 549 1992 q 543 1949 549 1958 q 522 1940 538 1940 l 104 1940 m 0 -1037 l 626 -1037 l 626 -1051 l 0 -1051 l 0 -1037 m 0 28 l 626 28 l 626 0 l 0 0 l 0 28 m 0 701 l 626 701 l 626 694 l 0 694 l 0 701 m 0 1760 l 626 1760 l 626 1746 l 0 1746 l 0 1760 z "},"Į":{"ha":626,"x_min":0,"x_max":626,"o":"m 314 -19 q 285 -13 293 -19 q 276 7 276 -7 l 276 1740 q 285 1760 276 1754 q 314 1767 293 1767 q 342 1760 332 1767 q 351 1740 351 1754 l 351 7 q 342 -13 351 -7 q 314 -19 333 -19 m 219 -397 q 131 -365 167 -397 q 94 -265 94 -332 q 109 -192 94 -228 q 150 -121 124 -156 q 213 -54 176 -86 q 293 8 249 -22 l 347 7 l 347 0 q 282 -55 315 -25 q 222 -117 249 -85 q 180 -183 196 -149 q 164 -249 164 -217 q 181 -312 164 -292 q 228 -332 199 -332 q 281 -319 251 -332 q 338 -276 310 -306 q 356 -267 346 -268 q 374 -274 365 -267 q 387 -295 385 -283 q 382 -317 389 -307 q 336 -360 364 -342 q 278 -387 308 -378 q 219 -397 247 -397 m 0 -1037 l 626 -1037 l 626 -1051 l 0 -1051 l 0 -1037 m 0 28 l 626 28 l 626 0 l 0 0 l 0 28 m 0 701 l 626 701 l 626 694 l 0 694 l 0 701 m 0 1760 l 626 1760 l 626 1746 l 0 1746 l 0 1760 z "},"Ĩ":{"ha":626,"x_min":0,"x_max":626,"o":"m 314 -19 q 285 -13 293 -19 q 276 7 276 -7 l 276 1740 q 285 1760 276 1754 q 314 1767 293 1767 q 342 1760 332 1767 q 351 1740 351 1754 l 351 7 q 342 -13 351 -7 q 314 -19 333 -19 m 83 1889 q 53 1917 53 1889 q 90 2034 56 1992 q 181 2076 124 2076 q 259 2058 224 2076 q 324 2017 294 2040 q 383 1977 354 1994 q 442 1960 411 1960 q 487 1984 471 1960 q 504 2053 503 2008 q 538 2078 507 2078 q 564 2072 557 2078 q 569 2050 571 2065 q 534 1933 568 1974 q 440 1892 500 1892 q 363 1909 399 1892 q 298 1950 328 1926 q 240 1991 268 1974 q 181 2008 211 2008 q 136 1985 151 2008 q 117 1915 121 1963 q 108 1894 115 1900 q 83 1889 101 1889 m 0 -1037 l 626 -1037 l 626 -1051 l 0 -1051 l 0 -1037 m 0 28 l 626 28 l 626 0 l 0 0 l 0 28 m 0 701 l 626 701 l 626 694 l 0 694 l 0 701 m 0 1760 l 626 1760 l 626 1746 l 0 1746 l 0 1760 z "},"Ị":{"ha":626,"x_min":0,"x_max":626,"o":"m 314 -19 q 285 -12 293 -19 q 276 7 276 -6 l 276 1740 q 285 1760 276 1754 q 313 1767 294 1767 q 342 1760 332 1767 q 351 1740 351 1754 l 351 7 q 342 -12 351 -6 q 314 -19 333 -19 m 313 -306 q 267 -289 282 -306 q 253 -237 253 -272 q 268 -185 253 -201 q 313 -168 283 -168 q 358 -185 343 -168 q 374 -237 374 -201 q 358 -289 374 -272 q 313 -306 343 -306 m 0 -1037 l 626 -1037 l 626 -1051 l 0 -1051 l 0 -1037 m 0 28 l 626 28 l 626 0 l 0 0 l 0 28 m 0 701 l 626 701 l 626 694 l 0 694 l 0 701 m 0 1760 l 626 1760 l 626 1746 l 0 1746 l 0 1760 z "},"Ỉ":{"ha":626,"x_min":0,"x_max":626,"o":"m 314 -19 q 285 -13 293 -19 q 276 7 276 -7 l 276 1740 q 285 1760 276 1754 q 314 1767 293 1767 q 342 1760 332 1767 q 351 1740 351 1754 l 351 7 q 342 -13 351 -7 q 314 -19 333 -19 m 328 2154 q 430 2124 393 2154 q 467 2047 467 2094 q 449 1990 467 2014 q 390 1939 431 1965 q 356 1908 364 1921 q 357 1872 347 1894 l 360 1865 q 357 1844 364 1853 q 338 1832 350 1836 q 315 1830 326 1828 q 300 1842 304 1832 l 288 1869 q 285 1931 274 1904 q 329 1979 296 1958 q 373 2011 360 1996 q 386 2043 386 2026 q 367 2076 386 2063 q 318 2089 347 2089 q 267 2081 292 2089 q 224 2060 243 2074 q 183 2072 197 2046 q 190 2113 171 2096 q 252 2144 217 2133 q 328 2154 288 2154 m 0 -1037 l 626 -1037 l 626 -1051 l 0 -1051 l 0 -1037 m 0 28 l 626 28 l 626 0 l 0 0 l 0 28 m 0 701 l 626 701 l 626 694 l 0 694 l 0 701 m 0 1760 l 626 1760 l 626 1746 l 0 1746 l 0 1760 z "},"Ĵ":{"ha":1206,"x_min":0,"x_max":1206,"o":"m 535 -26 q 341 11 425 -26 q 201 123 257 49 q 117 307 144 197 q 115 340 110 329 q 138 356 121 351 q 165 355 156 361 q 182 326 175 349 q 258 169 213 231 q 371 78 303 107 q 535 49 439 49 q 663 67 607 49 q 762 124 719 86 q 833 219 804 163 q 875 349 861 275 q 889 517 889 424 l 889 1738 q 898 1760 889 1754 q 928 1767 907 1767 q 956 1760 947 1767 q 965 1738 965 1754 l 965 521 q 948 325 965 413 q 894 172 931 238 q 806 63 858 107 q 686 -4 754 18 q 535 -26 618 -26 m 694 1839 q 674 1850 685 1839 q 664 1872 664 1861 q 665 1881 664 1876 q 671 1890 665 1885 l 893 2096 q 908 2109 900 2104 q 928 2114 915 2114 q 947 2109 940 2114 q 963 2096 954 2104 l 1186 1889 q 1192 1880 1190 1885 q 1193 1871 1193 1875 q 1183 1849 1193 1860 q 1161 1839 1172 1839 q 1150 1842 1156 1839 q 1139 1851 1144 1846 l 928 2025 l 718 1851 q 706 1842 711 1846 q 694 1839 701 1839 m 0 -1037 l 1206 -1037 l 1206 -1051 l 0 -1051 l 0 -1037 m 0 28 l 1206 28 l 1206 0 l 0 0 l 0 28 m 0 701 l 1206 701 l 1206 694 l 0 694 l 0 701 m 0 1760 l 1206 1760 l 1206 1746 l 0 1746 l 0 1760 z "},"Ķ":{"ha":1275,"x_min":0,"x_max":1275,"o":"m 313 -19 q 283 -12 293 -19 q 274 8 274 -6 l 274 1740 q 313 1767 274 1767 q 350 1740 350 1767 l 350 944 l 1156 1757 q 1178 1769 1168 1769 q 1201 1754 1189 1768 q 1216 1731 1215 1740 q 1206 1710 1217 1721 l 419 918 q 676 599 544 756 q 946 300 808 442 q 1222 38 1083 158 q 1235 17 1235 28 q 1218 -11 1235 6 q 1194 -23 1206 -24 q 1169 -11 1182 -22 q 951 190 1061 79 q 736 419 842 300 q 533 659 631 539 q 350 892 435 779 l 350 8 q 342 -12 350 -6 q 313 -19 333 -19 m 632 -414 q 615 -398 617 -407 q 622 -371 614 -389 q 651 -303 640 -336 q 666 -233 661 -271 q 671 -147 671 -196 q 678 -123 671 -132 q 706 -114 686 -114 q 737 -125 726 -114 q 747 -153 747 -136 q 739 -234 747 -190 q 714 -320 731 -278 q 676 -396 697 -362 q 658 -415 668 -410 q 632 -414 647 -419 m 0 -1037 l 1275 -1037 l 1275 -1051 l 0 -1051 l 0 -1037 m 0 28 l 1275 28 l 1275 0 l 0 0 l 0 28 m 0 701 l 1275 701 l 1275 694 l 0 694 l 0 701 m 0 1760 l 1275 1760 l 1275 1746 l 0 1746 l 0 1760 z "},"Ĺ":{"ha":1160,"x_min":0,"x_max":1160,"o":"m 313 0 q 274 32 274 0 l 274 1740 q 283 1760 274 1754 q 313 1767 293 1767 q 341 1760 332 1767 q 350 1740 350 1754 l 350 69 l 1090 69 q 1108 62 1103 69 q 1114 35 1114 54 q 1108 8 1114 15 q 1090 0 1103 0 l 313 0 m 228 1843 q 205 1856 217 1843 q 193 1878 193 1868 q 194 1885 193 1881 q 200 1896 194 1890 l 442 2106 q 451 2114 447 2110 q 464 2118 456 2118 q 483 2110 472 2118 q 500 2092 493 2103 q 507 2071 507 2081 q 506 2061 507 2065 q 497 2050 504 2057 l 247 1853 q 236 1847 240 1850 q 228 1843 232 1843 m 0 -1037 l 1160 -1037 l 1160 -1051 l 0 -1051 l 0 -1037 m 0 28 l 1160 28 l 1160 0 l 0 0 l 0 28 m 0 701 l 1160 701 l 1160 694 l 0 694 l 0 701 m 0 1760 l 1160 1760 l 1160 1746 l 0 1746 l 0 1760 z "},"Ľ":{"ha":1160,"x_min":0,"x_max":1160,"o":"m 313 0 q 274 32 274 0 l 274 1740 q 283 1760 274 1754 q 313 1767 293 1767 q 341 1760 332 1767 q 350 1740 350 1754 l 350 69 l 1090 69 q 1108 62 1103 69 q 1114 35 1114 54 q 1108 8 1114 15 q 1090 0 1103 0 l 313 0 m 576 1438 q 558 1452 561 1443 q 558 1475 554 1461 q 577 1554 568 1508 q 593 1648 586 1600 q 601 1732 600 1696 q 609 1753 601 1744 q 639 1763 617 1763 q 670 1753 660 1763 q 679 1732 681 1744 q 668 1641 678 1693 q 644 1540 658 1589 q 617 1454 631 1490 q 603 1439 611 1444 q 576 1438 596 1433 m 0 -1037 l 1160 -1037 l 1160 -1051 l 0 -1051 l 0 -1037 m 0 28 l 1160 28 l 1160 0 l 0 0 l 0 28 m 0 701 l 1160 701 l 1160 694 l 0 694 l 0 701 m 0 1760 l 1160 1760 l 1160 1746 l 0 1746 l 0 1760 z "},"Ļ":{"ha":1160,"x_min":0,"x_max":1160,"o":"m 313 0 q 274 32 274 0 l 274 1740 q 283 1760 274 1754 q 313 1767 293 1767 q 341 1760 332 1767 q 350 1740 350 1754 l 350 69 l 1090 69 q 1108 62 1103 69 q 1114 35 1114 54 q 1108 8 1114 15 q 1090 0 1103 0 l 313 0 m 621 -414 q 605 -398 607 -407 q 611 -371 603 -389 q 640 -303 629 -336 q 655 -233 650 -271 q 660 -147 660 -196 q 668 -123 660 -132 q 694 -114 676 -114 q 726 -125 715 -114 q 736 -153 736 -136 q 728 -234 736 -190 q 703 -320 719 -278 q 665 -396 688 -362 q 647 -415 657 -410 q 621 -414 638 -419 m 0 -1037 l 1160 -1037 l 1160 -1051 l 0 -1051 l 0 -1037 m 0 28 l 1160 28 l 1160 0 l 0 0 l 0 28 m 0 701 l 1160 701 l 1160 694 l 0 694 l 0 701 m 0 1760 l 1160 1760 l 1160 1746 l 0 1746 l 0 1760 z "},"Ŀ":{"ha":1160,"x_min":0,"x_max":1160,"o":"m 313 0 q 274 32 274 0 l 274 1740 q 283 1760 274 1754 q 313 1767 293 1767 q 341 1760 332 1767 q 350 1740 350 1754 l 350 69 l 1090 69 q 1108 62 1103 69 q 1114 35 1114 54 q 1108 8 1114 15 q 1090 0 1103 0 l 313 0 m 867 829 q 821 846 836 829 q 806 897 806 863 q 821 949 806 932 q 867 965 836 965 q 911 949 896 965 q 926 897 926 932 q 911 846 926 863 q 867 829 896 829 m 0 -1037 l 1160 -1037 l 1160 -1051 l 0 -1051 l 0 -1037 m 0 28 l 1160 28 l 1160 0 l 0 0 l 0 28 m 0 701 l 1160 701 l 1160 694 l 0 694 l 0 701 m 0 1760 l 1160 1760 l 1160 1746 l 0 1746 l 0 1760 z "},"Ł":{"ha":1160,"x_min":0,"x_max":1160,"o":"m 313 0 q 274 32 274 0 l 274 1740 q 283 1760 274 1754 q 313 1767 293 1767 q 341 1760 332 1767 q 350 1740 350 1754 l 350 69 l 1090 69 q 1108 62 1103 69 q 1114 35 1114 54 q 1108 8 1114 15 q 1090 0 1103 0 l 313 0 m 136 751 q 113 749 122 744 q 94 765 104 753 q 88 791 88 779 q 101 810 89 803 l 603 1096 q 626 1100 617 1104 q 643 1082 635 1096 q 639 1040 661 1053 l 136 751 m 0 -1037 l 1160 -1037 l 1160 -1051 l 0 -1051 l 0 -1037 m 0 28 l 1160 28 l 1160 0 l 0 0 l 0 28 m 0 701 l 1160 701 l 1160 694 l 0 694 l 0 701 m 0 1760 l 1160 1760 l 1160 1746 l 0 1746 l 0 1760 z "},"Ń":{"ha":1647,"x_min":0,"x_max":1647,"o":"m 313 -19 q 274 7 274 -19 l 274 1740 q 283 1760 274 1754 q 311 1767 293 1767 q 337 1762 328 1767 q 354 1746 346 1757 l 1297 144 l 1297 1740 q 1306 1760 1297 1754 q 1335 1767 1315 1767 q 1372 1740 1372 1767 l 1372 7 q 1363 -13 1372 -7 q 1336 -19 1354 -19 q 1313 -15 1321 -19 q 1296 4 1304 -10 l 350 1608 l 350 7 q 341 -13 350 -7 q 313 -19 332 -19 m 739 1843 q 715 1856 728 1843 q 703 1878 703 1868 q 704 1885 703 1881 q 711 1896 706 1890 l 953 2106 q 963 2114 958 2110 q 975 2118 967 2118 q 994 2110 983 2118 q 1011 2092 1004 2103 q 1018 2071 1018 2081 q 1017 2061 1018 2065 q 1008 2050 1015 2057 l 758 1853 q 747 1847 751 1850 q 739 1843 743 1843 m 0 -1037 l 1647 -1037 l 1647 -1051 l 0 -1051 l 0 -1037 m 0 28 l 1647 28 l 1647 0 l 0 0 l 0 28 m 0 701 l 1647 701 l 1647 694 l 0 694 l 0 701 m 0 1760 l 1647 1760 l 1647 1746 l 0 1746 l 0 1760 z "},"Ň":{"ha":1647,"x_min":0,"x_max":1647,"o":"m 313 -19 q 274 7 274 -19 l 274 1740 q 283 1760 274 1754 q 311 1767 293 1767 q 337 1762 328 1767 q 354 1746 346 1757 l 1297 144 l 1297 1740 q 1306 1760 1297 1754 q 1335 1767 1315 1767 q 1372 1740 1372 1767 l 1372 7 q 1363 -13 1372 -7 q 1336 -19 1354 -19 q 1313 -15 1321 -19 q 1296 4 1304 -10 l 350 1608 l 350 7 q 341 -13 350 -7 q 313 -19 332 -19 m 1058 2118 q 1078 2108 1068 2118 q 1089 2085 1089 2097 q 1088 2076 1089 2081 q 1082 2067 1086 2072 l 860 1861 q 844 1848 851 1853 q 824 1843 838 1843 q 804 1848 811 1843 q 790 1861 797 1853 l 567 2068 q 560 2078 561 2074 q 560 2086 560 2083 q 570 2108 560 2099 q 590 2118 581 2118 q 602 2115 597 2118 q 614 2107 607 2111 l 824 1932 l 1035 2107 q 1046 2115 1040 2111 q 1058 2118 1051 2118 m 0 -1037 l 1647 -1037 l 1647 -1051 l 0 -1051 l 0 -1037 m 0 28 l 1647 28 l 1647 0 l 0 0 l 0 28 m 0 701 l 1647 701 l 1647 694 l 0 694 l 0 701 m 0 1760 l 1647 1760 l 1647 1746 l 0 1746 l 0 1760 z "},"Ņ":{"ha":1647,"x_min":0,"x_max":1647,"o":"m 313 -19 q 274 7 274 -19 l 274 1740 q 283 1760 274 1754 q 311 1767 293 1767 q 337 1762 328 1767 q 354 1746 346 1757 l 1297 144 l 1297 1740 q 1306 1760 1297 1754 q 1335 1767 1315 1767 q 1372 1740 1372 1767 l 1372 7 q 1363 -13 1372 -7 q 1336 -19 1354 -19 q 1313 -15 1321 -19 q 1296 4 1304 -10 l 350 1608 l 350 7 q 341 -13 350 -7 q 313 -19 332 -19 m 749 -414 q 733 -398 735 -407 q 740 -371 731 -389 q 767 -303 757 -336 q 783 -233 778 -271 q 788 -147 788 -196 q 796 -123 788 -132 q 824 -114 804 -114 q 855 -125 844 -114 q 865 -153 865 -136 q 856 -234 865 -190 q 831 -320 847 -278 q 793 -396 815 -362 q 775 -415 785 -410 q 749 -414 765 -419 m 0 -1037 l 1647 -1037 l 1647 -1051 l 0 -1051 l 0 -1037 m 0 28 l 1647 28 l 1647 0 l 0 0 l 0 28 m 0 701 l 1647 701 l 1647 694 l 0 694 l 0 701 m 0 1760 l 1647 1760 l 1647 1746 l 0 1746 l 0 1760 z "},"Ñ":{"ha":1647,"x_min":0,"x_max":1647,"o":"m 313 -19 q 274 7 274 -19 l 274 1740 q 283 1760 274 1754 q 311 1767 293 1767 q 337 1762 328 1767 q 354 1746 346 1757 l 1297 144 l 1297 1740 q 1306 1760 1297 1754 q 1335 1767 1315 1767 q 1372 1740 1372 1767 l 1372 7 q 1363 -13 1372 -7 q 1336 -19 1354 -19 q 1313 -15 1321 -19 q 1296 4 1304 -10 l 350 1608 l 350 7 q 341 -13 350 -7 q 313 -19 332 -19 m 594 1889 q 564 1917 564 1889 q 601 2034 567 1992 q 692 2076 635 2076 q 770 2058 735 2076 q 835 2017 806 2040 q 894 1977 865 1994 q 951 1960 922 1960 q 998 1984 982 1960 q 1015 2053 1014 2008 q 1049 2078 1018 2078 q 1075 2072 1068 2078 q 1081 2050 1082 2065 q 1045 1933 1079 1974 q 950 1892 1011 1892 q 874 1909 908 1892 q 809 1950 839 1926 q 751 1991 779 1974 q 692 2008 722 2008 q 647 1985 663 2008 q 628 1915 632 1963 q 619 1894 626 1900 q 594 1889 613 1889 m 0 -1037 l 1647 -1037 l 1647 -1051 l 0 -1051 l 0 -1037 m 0 28 l 1647 28 l 1647 0 l 0 0 l 0 28 m 0 701 l 1647 701 l 1647 694 l 0 694 l 0 701 m 0 1760 l 1647 1760 l 1647 1746 l 0 1746 l 0 1760 z "},"Ó":{"ha":1717,"x_min":0,"x_max":1717,"o":"m 861 -26 q 579 38 706 -26 q 362 219 453 101 q 222 503 271 338 q 172 871 172 668 q 194 1125 172 1007 q 259 1343 217 1243 q 362 1521 301 1443 q 499 1654 422 1599 q 666 1738 575 1710 q 861 1767 757 1767 q 1141 1703 1015 1767 q 1357 1521 1267 1639 q 1496 1238 1447 1403 q 1544 871 1544 1074 q 1522 617 1544 736 q 1458 398 1500 499 q 1356 219 1417 297 q 1219 86 1296 142 q 1053 2 1143 31 q 861 -26 963 -26 m 861 49 q 1030 74 950 49 q 1177 150 1110 100 q 1297 272 1244 200 q 1387 435 1350 344 q 1444 636 1424 526 q 1464 871 1464 746 q 1420 1210 1464 1058 q 1297 1469 1376 1361 q 1106 1635 1217 1578 q 861 1693 996 1693 q 690 1667 769 1693 q 542 1590 610 1640 q 422 1469 475 1540 q 331 1306 368 1399 q 274 1105 293 1214 q 254 871 254 996 q 297 532 254 683 q 421 272 340 381 q 613 106 501 164 q 861 49 725 49 m 774 1843 q 751 1856 763 1843 q 739 1878 739 1868 q 740 1885 739 1881 q 747 1896 742 1890 l 989 2106 q 999 2114 994 2110 q 1010 2118 1003 2118 q 1030 2110 1019 2118 q 1047 2092 1040 2103 q 1054 2071 1054 2081 q 1053 2061 1054 2065 q 1043 2050 1051 2057 l 793 1853 q 783 1847 786 1850 q 774 1843 779 1843 m 0 -1037 l 1717 -1037 l 1717 -1051 l 0 -1051 l 0 -1037 m 0 28 l 1717 28 l 1717 0 l 0 0 l 0 28 m 0 701 l 1717 701 l 1717 694 l 0 694 l 0 701 m 0 1760 l 1717 1760 l 1717 1746 l 0 1746 l 0 1760 z "},"Ŏ":{"ha":1717,"x_min":0,"x_max":1717,"o":"m 861 -26 q 579 38 706 -26 q 362 219 453 101 q 222 503 271 338 q 172 871 172 668 q 194 1125 172 1007 q 259 1343 217 1243 q 362 1521 301 1443 q 499 1654 422 1599 q 666 1738 575 1710 q 861 1767 757 1767 q 1141 1703 1015 1767 q 1357 1521 1267 1639 q 1496 1238 1447 1403 q 1544 871 1544 1074 q 1522 617 1544 736 q 1458 398 1500 499 q 1356 219 1417 297 q 1219 86 1296 142 q 1053 2 1143 31 q 861 -26 963 -26 m 861 49 q 1030 74 950 49 q 1177 150 1110 100 q 1297 272 1244 200 q 1387 435 1350 344 q 1444 636 1424 526 q 1464 871 1464 746 q 1420 1210 1464 1058 q 1297 1469 1376 1361 q 1106 1635 1217 1578 q 861 1693 996 1693 q 690 1667 769 1693 q 542 1590 610 1640 q 422 1469 475 1540 q 331 1306 368 1399 q 274 1105 293 1214 q 254 871 254 996 q 297 532 254 683 q 421 272 340 381 q 613 106 501 164 q 861 49 725 49 m 860 1844 q 686 1905 753 1844 q 613 2090 619 1965 q 621 2110 613 2103 q 647 2118 629 2118 q 669 2111 663 2118 q 678 2090 676 2104 q 734 1963 688 2003 q 860 1922 781 1922 q 986 1963 939 1922 q 1042 2090 1033 2003 q 1049 2111 1043 2104 q 1072 2118 1056 2118 q 1099 2110 1090 2118 q 1107 2090 1107 2103 q 1071 1954 1103 2008 q 985 1872 1039 1900 q 860 1844 931 1844 m 0 -1037 l 1717 -1037 l 1717 -1051 l 0 -1051 l 0 -1037 m 0 28 l 1717 28 l 1717 0 l 0 0 l 0 28 m 0 701 l 1717 701 l 1717 694 l 0 694 l 0 701 m 0 1760 l 1717 1760 l 1717 1746 l 0 1746 l 0 1760 z "},"Ǒ":{"ha":1717,"x_min":0,"x_max":1717,"o":"m 861 -26 q 579 38 706 -26 q 362 219 453 101 q 222 503 271 338 q 172 871 172 668 q 194 1125 172 1007 q 259 1343 217 1243 q 362 1521 301 1443 q 499 1654 422 1599 q 666 1738 575 1710 q 861 1767 757 1767 q 1141 1703 1015 1767 q 1357 1521 1267 1639 q 1496 1238 1447 1403 q 1544 871 1544 1074 q 1522 617 1544 736 q 1458 398 1500 499 q 1356 219 1417 297 q 1219 86 1296 142 q 1053 2 1143 31 q 861 -26 963 -26 m 861 49 q 1030 74 950 49 q 1177 150 1110 100 q 1297 272 1244 200 q 1387 435 1350 344 q 1444 636 1424 526 q 1464 871 1464 746 q 1420 1210 1464 1058 q 1297 1469 1376 1361 q 1106 1635 1217 1578 q 861 1693 996 1693 q 690 1667 769 1693 q 542 1590 610 1640 q 422 1469 475 1540 q 331 1306 368 1399 q 274 1105 293 1214 q 254 871 254 996 q 297 532 254 683 q 421 272 340 381 q 613 106 501 164 q 861 49 725 49 m 1093 2118 q 1115 2108 1104 2118 q 1125 2085 1125 2097 q 1124 2076 1125 2081 q 1118 2067 1122 2072 l 894 1861 q 880 1848 888 1853 q 860 1843 872 1843 q 840 1848 847 1843 q 825 1861 833 1853 l 603 2068 q 596 2078 597 2074 q 594 2086 594 2083 q 605 2108 594 2099 q 626 2118 615 2118 q 638 2115 633 2118 q 650 2107 643 2111 l 860 1932 l 1071 2107 q 1081 2115 1076 2111 q 1093 2118 1086 2118 m 0 -1037 l 1717 -1037 l 1717 -1051 l 0 -1051 l 0 -1037 m 0 28 l 1717 28 l 1717 0 l 0 0 l 0 28 m 0 701 l 1717 701 l 1717 694 l 0 694 l 0 701 m 0 1760 l 1717 1760 l 1717 1746 l 0 1746 l 0 1760 z "},"Ô":{"ha":1717,"x_min":0,"x_max":1717,"o":"m 861 -26 q 579 38 706 -26 q 362 219 453 101 q 222 503 271 338 q 172 871 172 668 q 194 1125 172 1007 q 259 1343 217 1243 q 362 1521 301 1443 q 499 1654 422 1599 q 666 1738 575 1710 q 861 1767 757 1767 q 1141 1703 1015 1767 q 1357 1521 1267 1639 q 1496 1238 1447 1403 q 1544 871 1544 1074 q 1522 617 1544 736 q 1458 398 1500 499 q 1356 219 1417 297 q 1219 86 1296 142 q 1053 2 1143 31 q 861 -26 963 -26 m 861 49 q 1030 74 950 49 q 1177 150 1110 100 q 1297 272 1244 200 q 1387 435 1350 344 q 1444 636 1424 526 q 1464 871 1464 746 q 1420 1210 1464 1058 q 1297 1469 1376 1361 q 1106 1635 1217 1578 q 861 1693 996 1693 q 690 1667 769 1693 q 542 1590 610 1640 q 422 1469 475 1540 q 331 1306 368 1399 q 274 1105 293 1214 q 254 871 254 996 q 297 532 254 683 q 421 272 340 381 q 613 106 501 164 q 861 49 725 49 m 626 1839 q 605 1850 615 1839 q 594 1872 594 1861 q 596 1881 594 1876 q 603 1890 597 1885 l 825 2096 q 840 2109 832 2104 q 860 2114 847 2114 q 879 2109 872 2114 q 894 2096 886 2104 l 1118 1889 q 1124 1880 1122 1885 q 1125 1871 1125 1875 q 1115 1849 1125 1860 q 1093 1839 1104 1839 q 1081 1842 1086 1839 q 1069 1851 1076 1846 l 860 2025 l 650 1851 q 638 1842 643 1846 q 626 1839 633 1839 m 0 -1037 l 1717 -1037 l 1717 -1051 l 0 -1051 l 0 -1037 m 0 28 l 1717 28 l 1717 0 l 0 0 l 0 28 m 0 701 l 1717 701 l 1717 694 l 0 694 l 0 701 m 0 1760 l 1717 1760 l 1717 1746 l 0 1746 l 0 1760 z "},"Ö":{"ha":1717,"x_min":0,"x_max":1717,"o":"m 861 -26 q 579 38 706 -26 q 362 219 453 101 q 222 503 271 338 q 172 871 172 668 q 194 1125 172 1007 q 259 1343 217 1243 q 362 1521 301 1443 q 499 1654 422 1599 q 666 1738 575 1710 q 861 1767 757 1767 q 1141 1703 1015 1767 q 1357 1521 1267 1639 q 1496 1238 1447 1403 q 1544 871 1544 1074 q 1522 617 1544 736 q 1458 398 1500 499 q 1356 219 1417 297 q 1219 86 1296 142 q 1053 2 1143 31 q 861 -26 963 -26 m 861 49 q 1030 74 950 49 q 1177 150 1110 100 q 1297 272 1244 200 q 1387 435 1350 344 q 1444 636 1424 526 q 1464 871 1464 746 q 1420 1210 1464 1058 q 1297 1469 1376 1361 q 1106 1635 1217 1578 q 861 1693 996 1693 q 690 1667 769 1693 q 542 1590 610 1640 q 422 1469 475 1540 q 331 1306 368 1399 q 274 1105 293 1214 q 254 871 254 996 q 297 532 254 683 q 421 272 340 381 q 613 106 501 164 q 861 49 725 49 m 669 1901 q 624 1918 639 1901 q 608 1969 608 1935 q 624 2022 608 2004 q 669 2039 639 2039 q 715 2022 700 2039 q 731 1969 731 2004 q 715 1918 731 1935 q 669 1901 700 1901 m 1050 1901 q 1005 1918 1019 1901 q 990 1969 990 1935 q 1005 2022 990 2004 q 1050 2039 1019 2039 q 1096 2022 1081 2039 q 1111 1969 1111 2004 q 1096 1918 1111 1935 q 1050 1901 1081 1901 m 0 -1037 l 1717 -1037 l 1717 -1051 l 0 -1051 l 0 -1037 m 0 28 l 1717 28 l 1717 0 l 0 0 l 0 28 m 0 701 l 1717 701 l 1717 694 l 0 694 l 0 701 m 0 1760 l 1717 1760 l 1717 1746 l 0 1746 l 0 1760 z "},"Ò":{"ha":1717,"x_min":0,"x_max":1717,"o":"m 861 -26 q 579 38 706 -26 q 362 219 453 101 q 222 503 271 338 q 172 871 172 668 q 194 1125 172 1007 q 259 1343 217 1243 q 362 1521 301 1443 q 499 1654 422 1599 q 666 1738 575 1710 q 861 1767 757 1767 q 1141 1703 1015 1767 q 1357 1521 1267 1639 q 1496 1238 1447 1403 q 1544 871 1544 1074 q 1522 617 1544 736 q 1458 398 1500 499 q 1356 219 1417 297 q 1219 86 1296 142 q 1053 2 1143 31 q 861 -26 963 -26 m 861 49 q 1031 74 951 49 q 1177 150 1110 100 q 1297 272 1244 200 q 1387 435 1350 344 q 1444 636 1424 526 q 1464 871 1464 746 q 1420 1210 1464 1058 q 1297 1469 1376 1361 q 1106 1635 1217 1578 q 861 1693 996 1693 q 690 1667 769 1693 q 542 1590 610 1640 q 422 1469 475 1540 q 331 1306 368 1399 q 274 1105 293 1214 q 254 871 254 996 q 297 532 254 683 q 421 272 340 381 q 613 106 501 164 q 861 49 725 49 m 938 1843 q 929 1847 933 1843 q 919 1853 925 1850 l 669 2050 q 660 2061 663 2057 q 658 2071 658 2065 q 665 2092 658 2081 q 683 2110 672 2103 q 703 2118 693 2118 q 714 2114 710 2118 q 725 2106 718 2110 l 965 1896 q 972 1885 971 1890 q 974 1878 974 1881 q 961 1856 974 1868 q 938 1843 949 1843 m 0 -1037 l 1717 -1037 l 1717 -1051 l 0 -1051 l 0 -1037 m 0 28 l 1717 28 l 1717 0 l 0 0 l 0 28 m 0 701 l 1717 701 l 1717 694 l 0 694 l 0 701 m 0 1760 l 1717 1760 l 1717 1746 l 0 1746 l 0 1760 z "},"Ő":{"ha":1717,"x_min":0,"x_max":1717,"o":"m 861 -26 q 579 38 706 -26 q 362 219 453 101 q 222 503 271 338 q 172 871 172 668 q 194 1125 172 1007 q 258 1343 217 1243 q 361 1521 300 1443 q 499 1654 422 1599 q 666 1738 575 1710 q 861 1767 757 1767 q 1141 1703 1015 1767 q 1357 1521 1267 1639 q 1496 1238 1447 1403 q 1544 871 1544 1074 q 1522 617 1544 736 q 1458 398 1500 499 q 1356 219 1417 297 q 1219 86 1296 142 q 1053 2 1143 31 q 861 -26 963 -26 m 861 49 q 1031 74 951 49 q 1177 150 1110 100 q 1297 272 1244 200 q 1387 435 1350 344 q 1444 636 1424 526 q 1464 871 1464 746 q 1420 1210 1464 1058 q 1297 1469 1376 1361 q 1106 1635 1217 1578 q 861 1693 996 1693 q 690 1667 769 1693 q 542 1590 610 1640 q 422 1469 475 1540 q 331 1306 368 1399 q 274 1105 293 1214 q 254 871 254 996 q 297 532 254 683 q 421 272 340 381 q 613 106 501 164 q 861 49 725 49 m 714 1843 q 692 1856 703 1843 q 681 1878 681 1868 q 681 1885 681 1881 q 688 1896 682 1890 l 919 2106 q 930 2114 925 2110 q 942 2118 935 2118 q 961 2110 951 2118 q 978 2092 971 2103 q 985 2072 985 2081 q 983 2061 985 2065 q 975 2050 982 2057 l 733 1853 q 723 1847 728 1850 q 714 1843 718 1843 m 982 1843 q 958 1856 969 1843 q 947 1878 947 1868 q 948 1885 947 1881 q 954 1896 949 1890 l 1188 2106 q 1198 2114 1193 2110 q 1208 2118 1203 2118 q 1228 2110 1218 2118 q 1246 2092 1239 2103 q 1253 2072 1253 2081 q 1251 2061 1253 2065 q 1243 2050 1249 2057 l 1001 1853 q 990 1847 994 1850 q 982 1843 986 1843 m 0 -1037 l 1717 -1037 l 1717 -1051 l 0 -1051 l 0 -1037 m 0 28 l 1717 28 l 1717 0 l 0 0 l 0 28 m 0 701 l 1717 701 l 1717 694 l 0 694 l 0 701 m 0 1760 l 1717 1760 l 1717 1746 l 0 1746 l 0 1760 z "},"Ō":{"ha":1717,"x_min":0,"x_max":1717,"o":"m 861 -26 q 579 38 706 -26 q 362 219 453 101 q 222 503 271 338 q 172 871 172 668 q 194 1125 172 1007 q 259 1343 217 1243 q 362 1521 301 1443 q 499 1654 422 1599 q 666 1738 575 1710 q 861 1767 757 1767 q 1141 1703 1015 1767 q 1357 1521 1267 1639 q 1496 1238 1447 1403 q 1544 871 1544 1074 q 1522 617 1544 736 q 1458 398 1500 499 q 1356 219 1417 297 q 1219 86 1296 142 q 1053 2 1143 31 q 861 -26 963 -26 m 861 49 q 1030 74 950 49 q 1177 150 1110 100 q 1297 272 1244 200 q 1387 435 1350 344 q 1444 636 1424 526 q 1464 871 1464 746 q 1420 1210 1464 1058 q 1297 1469 1376 1361 q 1106 1635 1217 1578 q 861 1693 996 1693 q 690 1667 769 1693 q 542 1590 610 1640 q 422 1469 475 1540 q 331 1306 368 1399 q 274 1105 293 1214 q 254 871 254 996 q 297 532 254 683 q 421 272 340 381 q 613 106 501 164 q 861 49 725 49 m 650 1940 q 629 1949 635 1940 q 624 1975 624 1958 q 629 2001 624 1992 q 650 2011 635 2011 l 1069 2011 q 1090 2001 1085 2011 q 1096 1975 1096 1992 q 1090 1949 1096 1958 q 1069 1940 1085 1940 l 650 1940 m 0 -1037 l 1717 -1037 l 1717 -1051 l 0 -1051 l 0 -1037 m 0 28 l 1717 28 l 1717 0 l 0 0 l 0 28 m 0 701 l 1717 701 l 1717 694 l 0 694 l 0 701 m 0 1760 l 1717 1760 l 1717 1746 l 0 1746 l 0 1760 z "},"Ø":{"ha":1717,"x_min":0,"x_max":1717,"o":"m 861 -26 q 579 38 706 -26 q 362 219 453 101 q 222 503 271 338 q 172 871 172 668 q 194 1125 172 1007 q 259 1343 217 1243 q 362 1521 301 1443 q 499 1654 422 1599 q 666 1738 575 1710 q 861 1767 757 1767 q 1141 1703 1015 1767 q 1357 1521 1267 1639 q 1496 1238 1447 1403 q 1544 871 1544 1074 q 1522 617 1544 736 q 1458 398 1500 499 q 1356 219 1417 297 q 1219 86 1296 142 q 1053 2 1143 31 q 861 -26 963 -26 m 861 49 q 1031 74 951 49 q 1177 150 1110 100 q 1297 272 1244 200 q 1387 435 1350 344 q 1444 636 1424 526 q 1464 871 1464 746 q 1420 1210 1464 1058 q 1297 1469 1376 1361 q 1106 1635 1217 1578 q 861 1693 996 1693 q 690 1667 769 1693 q 542 1590 610 1640 q 422 1469 475 1540 q 331 1306 368 1399 q 274 1105 293 1214 q 254 871 254 996 q 297 532 254 683 q 421 272 340 381 q 613 106 501 164 q 861 49 725 49 m 349 -75 q 330 -91 342 -87 q 300 -85 318 -94 q 283 -40 268 -65 l 1368 1800 q 1390 1815 1376 1813 q 1418 1808 1403 1818 q 1436 1790 1432 1801 q 1432 1764 1440 1779 l 349 -75 m 0 -1037 l 1717 -1037 l 1717 -1051 l 0 -1051 l 0 -1037 m 0 28 l 1717 28 l 1717 0 l 0 0 l 0 28 m 0 701 l 1717 701 l 1717 694 l 0 694 l 0 701 m 0 1760 l 1717 1760 l 1717 1746 l 0 1746 l 0 1760 z "},"Õ":{"ha":1717,"x_min":0,"x_max":1717,"o":"m 861 -26 q 579 38 706 -26 q 362 219 453 101 q 222 503 271 338 q 172 871 172 668 q 194 1125 172 1007 q 259 1343 217 1243 q 362 1521 301 1443 q 499 1654 422 1599 q 666 1738 575 1710 q 861 1767 757 1767 q 1141 1703 1015 1767 q 1357 1521 1267 1639 q 1496 1238 1447 1403 q 1544 871 1544 1074 q 1522 617 1544 736 q 1458 398 1500 499 q 1356 219 1417 297 q 1219 86 1296 142 q 1053 2 1143 31 q 861 -26 963 -26 m 861 49 q 1030 74 950 49 q 1177 150 1110 100 q 1297 272 1244 200 q 1387 435 1350 344 q 1444 636 1424 526 q 1464 871 1464 746 q 1420 1210 1464 1058 q 1297 1469 1376 1361 q 1106 1635 1217 1578 q 861 1693 996 1693 q 690 1667 769 1693 q 542 1590 610 1640 q 422 1469 475 1540 q 331 1306 368 1399 q 274 1105 293 1214 q 254 871 254 996 q 297 532 254 683 q 421 272 340 381 q 613 106 501 164 q 861 49 725 49 m 631 1889 q 599 1917 599 1889 q 636 2034 603 1992 q 726 2076 669 2076 q 806 2058 771 2076 q 871 2017 840 2040 q 930 1977 901 1994 q 988 1960 958 1960 q 1034 1984 1018 1960 q 1051 2053 1050 2008 q 1085 2078 1053 2078 q 1110 2072 1104 2078 q 1117 2050 1117 2065 q 1081 1933 1115 1974 q 986 1892 1047 1892 q 910 1909 944 1892 q 844 1950 875 1926 q 785 1991 814 1974 q 728 2008 757 2008 q 683 1985 699 2008 q 664 1915 667 1963 q 655 1894 663 1900 q 631 1889 647 1889 m 0 -1037 l 1717 -1037 l 1717 -1051 l 0 -1051 l 0 -1037 m 0 28 l 1717 28 l 1717 0 l 0 0 l 0 28 m 0 701 l 1717 701 l 1717 694 l 0 694 l 0 701 m 0 1760 l 1717 1760 l 1717 1746 l 0 1746 l 0 1760 z "},"Ố":{"ha":1717,"x_min":0,"x_max":1717,"o":"m 861 -26 q 579 38 706 -26 q 362 219 453 101 q 222 503 271 338 q 172 871 172 668 q 194 1125 172 1007 q 259 1343 217 1243 q 362 1521 301 1443 q 499 1654 422 1599 q 666 1738 575 1710 q 861 1767 757 1767 q 1141 1703 1015 1767 q 1357 1521 1267 1639 q 1496 1238 1447 1403 q 1544 871 1544 1074 q 1522 617 1544 736 q 1458 398 1500 499 q 1356 219 1417 297 q 1219 86 1296 142 q 1053 2 1143 31 q 861 -26 963 -26 m 861 49 q 1030 74 950 49 q 1177 150 1110 100 q 1297 272 1244 200 q 1387 435 1350 344 q 1444 636 1424 526 q 1464 871 1464 746 q 1420 1210 1464 1058 q 1297 1469 1376 1361 q 1106 1635 1217 1578 q 861 1693 996 1693 q 690 1667 769 1693 q 542 1590 610 1640 q 422 1469 475 1540 q 331 1306 368 1399 q 274 1105 293 1214 q 254 871 254 996 q 297 532 254 683 q 421 272 340 381 q 613 106 501 164 q 861 49 725 49 m 626 1839 q 605 1850 615 1839 q 594 1872 594 1861 q 596 1881 594 1876 q 603 1890 597 1885 l 825 2096 q 840 2109 832 2104 q 860 2114 847 2114 q 879 2109 872 2114 q 894 2096 886 2104 l 1117 1889 q 1124 1880 1122 1885 q 1125 1871 1125 1875 q 1115 1849 1125 1860 q 1093 1839 1104 1839 q 1081 1842 1086 1839 q 1069 1851 1076 1846 l 860 2025 l 650 1851 q 638 1842 643 1846 q 626 1839 633 1839 m 1081 2054 q 1058 2066 1069 2054 q 1046 2089 1046 2078 q 1047 2097 1046 2093 q 1054 2107 1049 2100 l 1274 2299 q 1285 2308 1281 2304 q 1297 2311 1289 2311 q 1316 2303 1306 2311 q 1333 2285 1326 2296 q 1340 2265 1340 2275 q 1339 2255 1340 2260 q 1329 2244 1338 2250 l 1100 2064 q 1089 2057 1093 2060 q 1081 2054 1085 2054 m 0 -1037 l 1717 -1037 l 1717 -1051 l 0 -1051 l 0 -1037 m 0 28 l 1717 28 l 1717 0 l 0 0 l 0 28 m 0 701 l 1717 701 l 1717 694 l 0 694 l 0 701 m 0 1760 l 1717 1760 l 1717 1746 l 0 1746 l 0 1760 z "},"Ộ":{"ha":1717,"x_min":0,"x_max":1717,"o":"m 861 -26 q 579 38 706 -26 q 362 219 453 101 q 222 503 271 338 q 172 871 172 668 q 194 1125 172 1007 q 259 1343 217 1243 q 362 1521 301 1443 q 499 1654 422 1599 q 666 1738 575 1710 q 861 1767 757 1767 q 1141 1703 1015 1767 q 1357 1521 1267 1639 q 1496 1238 1447 1403 q 1544 871 1544 1074 q 1522 617 1544 736 q 1458 398 1500 499 q 1356 219 1417 297 q 1219 86 1296 142 q 1053 2 1143 31 q 861 -26 963 -26 m 861 49 q 1030 74 950 49 q 1177 150 1110 100 q 1297 272 1244 200 q 1387 435 1350 344 q 1444 636 1424 526 q 1464 871 1464 746 q 1420 1210 1464 1058 q 1297 1469 1376 1361 q 1106 1635 1217 1578 q 861 1693 996 1693 q 690 1667 769 1693 q 542 1590 610 1640 q 422 1469 475 1540 q 331 1306 368 1399 q 274 1105 293 1214 q 254 871 254 996 q 297 532 254 683 q 421 272 340 381 q 613 106 501 164 q 861 49 725 49 m 860 -306 q 815 -289 829 -306 q 800 -237 800 -272 q 815 -185 800 -201 q 860 -168 829 -168 q 906 -185 890 -168 q 921 -237 921 -201 q 906 -289 921 -272 q 860 -306 890 -306 m 626 1839 q 605 1850 615 1839 q 594 1872 594 1861 q 596 1881 594 1876 q 603 1890 597 1885 l 825 2096 q 840 2109 832 2104 q 860 2114 847 2114 q 879 2109 872 2114 q 894 2096 886 2104 l 1118 1889 q 1124 1880 1122 1885 q 1125 1871 1125 1875 q 1115 1849 1125 1860 q 1093 1839 1104 1839 q 1081 1842 1086 1839 q 1069 1851 1076 1846 l 860 2025 l 650 1851 q 638 1842 643 1846 q 626 1839 633 1839 m 0 -1037 l 1717 -1037 l 1717 -1051 l 0 -1051 l 0 -1037 m 0 28 l 1717 28 l 1717 0 l 0 0 l 0 28 m 0 701 l 1717 701 l 1717 694 l 0 694 l 0 701 m 0 1760 l 1717 1760 l 1717 1746 l 0 1746 l 0 1760 z "},"Ồ":{"ha":1717,"x_min":0,"x_max":1717,"o":"m 861 -26 q 579 38 706 -26 q 362 219 453 101 q 222 503 271 338 q 172 871 172 668 q 194 1125 172 1007 q 259 1343 217 1243 q 362 1521 301 1443 q 499 1654 422 1599 q 666 1738 575 1710 q 861 1767 757 1767 q 1141 1703 1015 1767 q 1357 1521 1267 1639 q 1496 1238 1447 1403 q 1544 871 1544 1074 q 1522 617 1544 736 q 1458 398 1500 499 q 1356 219 1417 297 q 1219 86 1296 142 q 1053 2 1143 31 q 861 -26 963 -26 m 861 49 q 1030 74 950 49 q 1177 150 1110 100 q 1297 272 1244 200 q 1387 435 1350 344 q 1444 636 1424 526 q 1464 871 1464 746 q 1420 1210 1464 1058 q 1297 1469 1376 1361 q 1106 1635 1217 1578 q 861 1693 996 1693 q 690 1667 769 1693 q 542 1590 610 1640 q 422 1469 475 1540 q 331 1306 368 1399 q 274 1105 293 1214 q 254 871 254 996 q 297 532 254 683 q 421 272 340 381 q 613 106 501 164 q 861 49 725 49 m 626 1839 q 605 1850 615 1839 q 594 1872 594 1861 q 596 1881 594 1876 q 603 1890 597 1885 l 825 2096 q 840 2109 832 2104 q 860 2114 847 2114 q 879 2109 872 2114 q 894 2096 886 2104 l 1117 1889 q 1124 1880 1122 1885 q 1125 1871 1125 1875 q 1115 1849 1125 1860 q 1093 1839 1104 1839 q 1081 1842 1086 1839 q 1069 1851 1076 1846 l 860 2025 l 650 1851 q 638 1842 643 1846 q 626 1839 633 1839 m 1178 2039 q 1169 2042 1174 2039 q 1158 2049 1165 2044 l 926 2249 q 918 2258 919 2254 q 917 2269 917 2263 q 924 2290 917 2279 q 941 2307 931 2300 q 961 2314 951 2314 q 972 2310 968 2314 q 982 2301 976 2307 l 1206 2090 q 1212 2081 1211 2086 q 1213 2072 1213 2076 q 1201 2051 1213 2063 q 1178 2039 1190 2039 m 0 -1037 l 1717 -1037 l 1717 -1051 l 0 -1051 l 0 -1037 m 0 28 l 1717 28 l 1717 0 l 0 0 l 0 28 m 0 701 l 1717 701 l 1717 694 l 0 694 l 0 701 m 0 1760 l 1717 1760 l 1717 1746 l 0 1746 l 0 1760 z "},"Ổ":{"ha":1717,"x_min":0,"x_max":1717,"o":"m 861 -26 q 579 38 706 -26 q 362 219 453 101 q 222 503 271 338 q 172 871 172 668 q 194 1125 172 1007 q 259 1343 217 1243 q 362 1521 301 1443 q 499 1654 422 1599 q 666 1738 575 1710 q 861 1767 757 1767 q 1141 1703 1015 1767 q 1357 1521 1267 1639 q 1496 1238 1447 1403 q 1544 871 1544 1074 q 1522 617 1544 736 q 1458 398 1500 499 q 1356 219 1417 297 q 1219 86 1296 142 q 1053 2 1143 31 q 861 -26 963 -26 m 861 49 q 1030 74 950 49 q 1177 150 1110 100 q 1297 272 1244 200 q 1387 435 1350 344 q 1444 636 1424 526 q 1464 871 1464 746 q 1420 1210 1464 1058 q 1297 1469 1376 1361 q 1106 1635 1217 1578 q 861 1693 996 1693 q 690 1667 769 1693 q 542 1590 610 1640 q 422 1469 475 1540 q 331 1306 368 1399 q 274 1105 293 1214 q 254 871 254 996 q 297 532 254 683 q 421 272 340 381 q 613 106 501 164 q 861 49 725 49 m 626 1839 q 605 1850 615 1839 q 594 1872 594 1861 q 596 1881 594 1876 q 603 1890 597 1885 l 825 2096 q 840 2109 832 2104 q 860 2114 847 2114 q 879 2109 872 2114 q 894 2096 886 2104 l 1117 1889 q 1124 1880 1122 1885 q 1125 1871 1125 1875 q 1115 1849 1125 1860 q 1093 1839 1104 1839 q 1081 1842 1086 1839 q 1069 1851 1076 1846 l 860 2025 l 650 1851 q 638 1842 643 1846 q 626 1839 633 1839 m 1106 2333 q 1208 2303 1171 2333 q 1244 2225 1244 2272 q 1226 2169 1244 2193 q 1168 2117 1208 2144 q 1133 2087 1142 2100 q 1135 2051 1125 2074 l 1138 2043 q 1135 2023 1142 2032 q 1116 2010 1128 2014 q 1093 2008 1104 2007 q 1078 2021 1082 2010 l 1065 2047 q 1063 2110 1051 2082 q 1107 2157 1074 2138 q 1151 2190 1138 2175 q 1164 2222 1164 2204 q 1144 2254 1164 2242 q 1096 2267 1125 2267 q 1045 2259 1069 2267 q 1001 2238 1021 2251 q 961 2251 975 2224 q 968 2292 950 2275 q 1030 2322 994 2311 q 1106 2333 1065 2333 m 0 -1037 l 1717 -1037 l 1717 -1051 l 0 -1051 l 0 -1037 m 0 28 l 1717 28 l 1717 0 l 0 0 l 0 28 m 0 701 l 1717 701 l 1717 694 l 0 694 l 0 701 m 0 1760 l 1717 1760 l 1717 1746 l 0 1746 l 0 1760 z "},"Ỗ":{"ha":1717,"x_min":0,"x_max":1717,"o":"m 861 -26 q 579 38 706 -26 q 362 219 453 101 q 222 503 271 338 q 172 871 172 668 q 194 1125 172 1007 q 259 1343 217 1243 q 362 1521 301 1443 q 499 1654 422 1599 q 666 1738 575 1710 q 861 1767 757 1767 q 1141 1703 1015 1767 q 1357 1521 1267 1639 q 1496 1238 1447 1403 q 1544 871 1544 1074 q 1522 617 1544 736 q 1458 398 1500 499 q 1356 219 1417 297 q 1219 86 1296 142 q 1053 2 1143 31 q 861 -26 963 -26 m 861 49 q 1030 74 950 49 q 1177 150 1110 100 q 1297 272 1244 200 q 1387 435 1350 344 q 1444 636 1424 526 q 1464 871 1464 746 q 1420 1210 1464 1058 q 1297 1469 1376 1361 q 1106 1635 1217 1578 q 861 1693 996 1693 q 690 1667 769 1693 q 542 1590 610 1640 q 422 1469 475 1540 q 331 1306 368 1399 q 274 1105 293 1214 q 254 871 254 996 q 297 532 254 683 q 421 272 340 381 q 613 106 501 164 q 861 49 725 49 m 626 1839 q 605 1850 615 1839 q 594 1872 594 1861 q 596 1881 594 1876 q 603 1890 597 1885 l 825 2096 q 840 2109 832 2104 q 860 2114 847 2114 q 879 2109 872 2114 q 894 2096 886 2104 l 1117 1889 q 1124 1880 1122 1885 q 1125 1871 1125 1875 q 1115 1849 1125 1860 q 1093 1839 1104 1839 q 1081 1842 1086 1839 q 1069 1851 1076 1846 l 860 2025 l 650 1851 q 638 1842 643 1846 q 626 1839 633 1839 m 632 2139 q 600 2167 600 2139 q 638 2284 604 2242 q 728 2326 671 2326 q 807 2308 772 2326 q 872 2267 842 2290 q 931 2227 903 2244 q 989 2210 960 2210 q 1035 2234 1019 2210 q 1053 2303 1051 2258 q 1086 2328 1056 2328 q 1112 2322 1106 2328 q 1118 2299 1118 2315 q 1083 2183 1117 2224 q 988 2142 1049 2142 q 911 2159 946 2142 q 846 2199 876 2176 q 787 2240 815 2222 q 729 2258 758 2258 q 685 2235 700 2258 q 665 2165 669 2213 q 656 2144 664 2150 q 632 2139 649 2139 m 0 -1037 l 1717 -1037 l 1717 -1051 l 0 -1051 l 0 -1037 m 0 28 l 1717 28 l 1717 0 l 0 0 l 0 28 m 0 701 l 1717 701 l 1717 694 l 0 694 l 0 701 m 0 1760 l 1717 1760 l 1717 1746 l 0 1746 l 0 1760 z "},"Ọ":{"ha":1717,"x_min":0,"x_max":1717,"o":"m 861 -26 q 579 38 706 -26 q 362 219 453 101 q 222 503 271 338 q 172 871 172 668 q 194 1125 172 1007 q 259 1343 217 1243 q 362 1521 301 1443 q 499 1654 422 1599 q 666 1738 575 1710 q 861 1767 757 1767 q 1141 1703 1015 1767 q 1357 1521 1267 1639 q 1496 1238 1447 1403 q 1544 871 1544 1074 q 1522 617 1544 736 q 1458 398 1500 499 q 1356 219 1417 297 q 1219 86 1296 142 q 1053 2 1143 31 q 861 -26 963 -26 m 861 49 q 1030 74 950 49 q 1177 150 1110 100 q 1297 272 1244 200 q 1387 435 1350 344 q 1444 636 1424 526 q 1464 871 1464 746 q 1420 1210 1464 1058 q 1297 1469 1376 1361 q 1106 1635 1217 1578 q 861 1693 996 1693 q 690 1667 769 1693 q 542 1590 610 1640 q 422 1469 475 1540 q 331 1306 368 1399 q 274 1105 293 1214 q 254 871 254 996 q 297 532 254 683 q 421 272 340 381 q 613 106 501 164 q 861 49 725 49 m 860 -306 q 815 -289 829 -306 q 800 -237 800 -272 q 815 -185 800 -201 q 860 -168 829 -168 q 906 -185 890 -168 q 921 -237 921 -201 q 906 -289 921 -272 q 860 -306 890 -306 m 0 -1037 l 1717 -1037 l 1717 -1051 l 0 -1051 l 0 -1037 m 0 28 l 1717 28 l 1717 0 l 0 0 l 0 28 m 0 701 l 1717 701 l 1717 694 l 0 694 l 0 701 m 0 1760 l 1717 1760 l 1717 1746 l 0 1746 l 0 1760 z "},"Ỏ":{"ha":1717,"x_min":0,"x_max":1717,"o":"m 861 -26 q 579 38 706 -26 q 362 219 453 101 q 222 503 271 338 q 172 871 172 668 q 194 1125 172 1007 q 259 1343 217 1243 q 362 1521 301 1443 q 499 1654 422 1599 q 666 1738 575 1710 q 861 1767 757 1767 q 1141 1703 1015 1767 q 1357 1521 1267 1639 q 1496 1238 1447 1403 q 1544 871 1544 1074 q 1522 617 1544 736 q 1458 398 1500 499 q 1356 219 1417 297 q 1219 86 1296 142 q 1053 2 1143 31 q 861 -26 963 -26 m 861 49 q 1031 74 951 49 q 1177 150 1110 100 q 1297 272 1244 200 q 1387 435 1350 344 q 1444 636 1424 526 q 1464 871 1464 746 q 1420 1210 1464 1058 q 1297 1469 1376 1361 q 1106 1635 1217 1578 q 861 1693 996 1693 q 690 1667 769 1693 q 542 1590 610 1640 q 422 1469 475 1540 q 331 1306 368 1399 q 274 1105 293 1214 q 254 871 254 996 q 297 532 254 683 q 421 272 340 381 q 613 106 501 164 q 861 49 725 49 m 875 2154 q 976 2124 939 2154 q 1014 2047 1014 2094 q 996 1990 1014 2014 q 936 1939 978 1965 q 902 1908 910 1921 q 904 1872 894 1894 l 907 1865 q 904 1844 911 1853 q 885 1832 897 1836 q 862 1830 874 1828 q 846 1842 850 1832 l 835 1869 q 832 1931 821 1904 q 875 1979 843 1958 q 919 2011 906 1996 q 933 2043 933 2026 q 914 2076 933 2063 q 864 2089 894 2089 q 814 2081 839 2089 q 769 2060 789 2074 q 731 2072 744 2046 q 736 2113 718 2096 q 799 2144 764 2133 q 875 2154 833 2154 m 0 -1037 l 1717 -1037 l 1717 -1051 l 0 -1051 l 0 -1037 m 0 28 l 1717 28 l 1717 0 l 0 0 l 0 28 m 0 701 l 1717 701 l 1717 694 l 0 694 l 0 701 m 0 1760 l 1717 1760 l 1717 1746 l 0 1746 l 0 1760 z "},"Ơ":{"ha":1717,"x_min":0,"x_max":1717,"o":"m 861 -26 q 579 38 706 -26 q 362 219 453 101 q 222 503 271 338 q 172 871 172 668 q 194 1125 172 1007 q 259 1343 217 1243 q 362 1521 301 1443 q 499 1654 422 1599 q 666 1738 575 1710 q 861 1767 757 1767 q 1024 1745 947 1767 q 1167 1681 1101 1724 q 1294 1709 1246 1685 q 1361 1773 1343 1733 q 1369 1863 1379 1813 q 1322 1967 1360 1914 q 1319 1994 1314 1981 q 1339 2017 1325 2008 q 1367 2024 1353 2025 q 1392 2010 1382 2024 q 1447 1885 1435 1947 q 1442 1771 1460 1824 q 1374 1681 1424 1718 q 1244 1633 1324 1644 q 1465 1326 1385 1522 q 1544 871 1544 1129 q 1522 617 1544 736 q 1458 398 1500 499 q 1356 219 1417 297 q 1219 86 1296 142 q 1053 2 1143 31 q 861 -26 963 -26 m 861 49 q 1031 74 951 49 q 1177 150 1110 100 q 1297 272 1244 200 q 1387 435 1350 344 q 1444 636 1424 526 q 1464 871 1464 746 q 1420 1210 1464 1058 q 1297 1469 1376 1361 q 1106 1635 1217 1578 q 861 1693 996 1693 q 690 1667 769 1693 q 542 1590 610 1640 q 422 1469 475 1540 q 331 1306 368 1399 q 274 1105 293 1214 q 254 871 254 996 q 297 532 254 683 q 421 272 340 381 q 613 106 501 164 q 861 49 725 49 m 0 -1037 l 1717 -1037 l 1717 -1051 l 0 -1051 l 0 -1037 m 0 28 l 1717 28 l 1717 0 l 0 0 l 0 28 m 0 701 l 1717 701 l 1717 694 l 0 694 l 0 701 m 0 1760 l 1717 1760 l 1717 1746 l 0 1746 l 0 1760 z "},"Ớ":{"ha":1717,"x_min":0,"x_max":1717,"o":"m 861 -26 q 579 38 706 -26 q 362 219 453 101 q 222 503 271 338 q 172 871 172 668 q 194 1125 172 1007 q 259 1343 217 1243 q 362 1521 301 1443 q 499 1654 422 1599 q 666 1738 575 1710 q 861 1767 757 1767 q 1024 1745 947 1767 q 1167 1681 1101 1724 q 1294 1709 1246 1685 q 1361 1773 1343 1733 q 1369 1863 1379 1813 q 1322 1967 1360 1914 q 1319 1994 1314 1981 q 1339 2017 1325 2008 q 1367 2024 1353 2025 q 1392 2010 1382 2024 q 1447 1885 1435 1947 q 1442 1771 1460 1824 q 1374 1681 1424 1718 q 1244 1633 1324 1644 q 1465 1326 1385 1522 q 1544 871 1544 1129 q 1522 617 1544 736 q 1458 398 1500 499 q 1356 219 1417 297 q 1219 86 1296 142 q 1053 2 1143 31 q 861 -26 963 -26 m 861 49 q 1031 74 951 49 q 1177 150 1110 100 q 1297 272 1244 200 q 1387 435 1350 344 q 1444 636 1424 526 q 1464 871 1464 746 q 1420 1210 1464 1058 q 1297 1469 1376 1361 q 1106 1635 1217 1578 q 861 1693 996 1693 q 690 1667 769 1693 q 542 1590 610 1640 q 422 1469 475 1540 q 331 1306 368 1399 q 274 1105 293 1214 q 254 871 254 996 q 297 532 254 683 q 421 272 340 381 q 613 106 501 164 q 861 49 725 49 m 774 1843 q 751 1856 763 1843 q 739 1878 739 1868 q 740 1885 739 1881 q 747 1896 742 1890 l 989 2106 q 999 2114 994 2110 q 1010 2118 1003 2118 q 1030 2110 1019 2118 q 1047 2092 1040 2103 q 1054 2071 1054 2081 q 1053 2061 1054 2065 q 1043 2050 1051 2057 l 793 1853 q 783 1847 786 1850 q 774 1843 779 1843 m 0 -1037 l 1717 -1037 l 1717 -1051 l 0 -1051 l 0 -1037 m 0 28 l 1717 28 l 1717 0 l 0 0 l 0 28 m 0 701 l 1717 701 l 1717 694 l 0 694 l 0 701 m 0 1760 l 1717 1760 l 1717 1746 l 0 1746 l 0 1760 z "},"Ợ":{"ha":1717,"x_min":0,"x_max":1717,"o":"m 861 -26 q 579 38 706 -26 q 362 219 453 101 q 222 503 271 338 q 172 871 172 668 q 194 1125 172 1007 q 259 1343 217 1243 q 362 1521 301 1443 q 499 1654 422 1599 q 666 1738 575 1710 q 861 1767 757 1767 q 1024 1745 947 1767 q 1167 1681 1101 1724 q 1294 1709 1246 1685 q 1361 1773 1343 1733 q 1369 1863 1379 1813 q 1322 1967 1360 1914 q 1319 1994 1314 1981 q 1339 2017 1325 2008 q 1367 2024 1353 2025 q 1392 2010 1382 2024 q 1447 1885 1435 1947 q 1442 1771 1460 1824 q 1374 1681 1424 1718 q 1244 1633 1324 1644 q 1465 1326 1385 1522 q 1544 871 1544 1129 q 1522 617 1544 736 q 1458 398 1500 499 q 1356 219 1417 297 q 1219 86 1296 142 q 1053 2 1143 31 q 861 -26 963 -26 m 861 49 q 1030 74 950 49 q 1177 150 1110 100 q 1297 272 1244 200 q 1387 435 1350 344 q 1444 636 1424 526 q 1464 871 1464 746 q 1420 1210 1464 1058 q 1297 1469 1376 1361 q 1106 1635 1217 1578 q 861 1693 996 1693 q 690 1667 769 1693 q 542 1590 610 1640 q 422 1469 475 1540 q 331 1306 368 1399 q 274 1105 293 1214 q 254 871 254 996 q 297 532 254 683 q 421 272 340 381 q 613 106 501 164 q 861 49 725 49 m 860 -306 q 815 -289 829 -306 q 800 -237 800 -272 q 815 -185 800 -201 q 860 -168 829 -168 q 906 -185 890 -168 q 921 -237 921 -201 q 906 -289 921 -272 q 860 -306 890 -306 m 0 -1037 l 1717 -1037 l 1717 -1051 l 0 -1051 l 0 -1037 m 0 28 l 1717 28 l 1717 0 l 0 0 l 0 28 m 0 701 l 1717 701 l 1717 694 l 0 694 l 0 701 m 0 1760 l 1717 1760 l 1717 1746 l 0 1746 l 0 1760 z "},"Ờ":{"ha":1717,"x_min":0,"x_max":1717,"o":"m 861 -26 q 579 38 706 -26 q 362 219 453 101 q 222 503 271 338 q 172 871 172 668 q 194 1125 172 1007 q 259 1343 217 1243 q 362 1521 301 1443 q 499 1654 422 1599 q 666 1738 575 1710 q 861 1767 757 1767 q 1024 1745 947 1767 q 1167 1681 1101 1724 q 1294 1709 1246 1685 q 1361 1773 1343 1733 q 1369 1863 1379 1813 q 1322 1967 1360 1914 q 1319 1994 1314 1981 q 1339 2017 1325 2008 q 1367 2024 1353 2025 q 1392 2010 1382 2024 q 1447 1885 1435 1947 q 1442 1771 1460 1824 q 1374 1681 1424 1718 q 1244 1633 1324 1644 q 1465 1326 1385 1522 q 1544 871 1544 1129 q 1522 617 1544 736 q 1458 398 1500 499 q 1356 219 1417 297 q 1219 86 1296 142 q 1053 2 1143 31 q 861 -26 963 -26 m 861 49 q 1031 74 951 49 q 1177 150 1110 100 q 1297 272 1244 200 q 1387 435 1350 344 q 1444 636 1424 526 q 1464 871 1464 746 q 1420 1210 1464 1058 q 1297 1469 1376 1361 q 1106 1635 1217 1578 q 861 1693 996 1693 q 690 1667 769 1693 q 542 1590 610 1640 q 422 1469 475 1540 q 331 1306 368 1399 q 274 1105 293 1214 q 254 871 254 996 q 297 532 254 683 q 421 272 340 381 q 613 106 501 164 q 861 49 725 49 m 938 1843 q 929 1847 933 1843 q 919 1853 925 1850 l 669 2050 q 660 2061 663 2057 q 658 2071 658 2065 q 665 2092 658 2081 q 683 2110 672 2103 q 703 2118 693 2118 q 714 2114 710 2118 q 725 2106 718 2110 l 965 1896 q 972 1885 971 1890 q 974 1878 974 1881 q 961 1856 974 1868 q 938 1843 949 1843 m 0 -1037 l 1717 -1037 l 1717 -1051 l 0 -1051 l 0 -1037 m 0 28 l 1717 28 l 1717 0 l 0 0 l 0 28 m 0 701 l 1717 701 l 1717 694 l 0 694 l 0 701 m 0 1760 l 1717 1760 l 1717 1746 l 0 1746 l 0 1760 z "},"Ở":{"ha":1717,"x_min":0,"x_max":1717,"o":"m 861 -26 q 579 38 706 -26 q 362 219 453 101 q 222 503 271 338 q 172 871 172 668 q 194 1125 172 1007 q 259 1343 217 1243 q 362 1521 301 1443 q 499 1654 422 1599 q 666 1738 575 1710 q 861 1767 757 1767 q 1024 1745 947 1767 q 1167 1681 1101 1724 q 1294 1709 1246 1685 q 1361 1773 1343 1733 q 1369 1863 1379 1813 q 1322 1967 1360 1914 q 1319 1994 1314 1981 q 1339 2017 1325 2008 q 1367 2024 1353 2025 q 1392 2010 1382 2024 q 1447 1885 1435 1947 q 1442 1771 1460 1824 q 1374 1681 1424 1718 q 1244 1633 1324 1644 q 1465 1326 1385 1522 q 1544 871 1544 1129 q 1522 617 1544 736 q 1458 398 1500 499 q 1356 219 1417 297 q 1219 86 1296 142 q 1053 2 1143 31 q 861 -26 963 -26 m 861 49 q 1031 74 951 49 q 1177 150 1110 100 q 1297 272 1244 200 q 1387 435 1350 344 q 1444 636 1424 526 q 1464 871 1464 746 q 1420 1210 1464 1058 q 1297 1469 1376 1361 q 1106 1635 1217 1578 q 861 1693 996 1693 q 690 1667 769 1693 q 542 1590 610 1640 q 422 1469 475 1540 q 331 1306 368 1399 q 274 1105 293 1214 q 254 871 254 996 q 297 532 254 683 q 421 272 340 381 q 613 106 501 164 q 861 49 725 49 m 875 2154 q 976 2124 939 2154 q 1014 2047 1014 2094 q 996 1990 1014 2014 q 936 1939 978 1965 q 902 1908 910 1921 q 904 1872 894 1894 l 907 1865 q 904 1844 911 1853 q 885 1832 897 1836 q 862 1830 874 1828 q 846 1842 850 1832 l 835 1869 q 832 1931 821 1904 q 875 1979 843 1958 q 919 2011 906 1996 q 933 2043 933 2026 q 914 2076 933 2063 q 864 2089 894 2089 q 814 2081 839 2089 q 769 2060 789 2074 q 731 2072 744 2046 q 736 2113 718 2096 q 799 2144 764 2133 q 875 2154 833 2154 m 0 -1037 l 1717 -1037 l 1717 -1051 l 0 -1051 l 0 -1037 m 0 28 l 1717 28 l 1717 0 l 0 0 l 0 28 m 0 701 l 1717 701 l 1717 694 l 0 694 l 0 701 m 0 1760 l 1717 1760 l 1717 1746 l 0 1746 l 0 1760 z "},"Ỡ":{"ha":1717,"x_min":0,"x_max":1717,"o":"m 861 -26 q 579 38 706 -26 q 362 219 453 101 q 222 503 271 338 q 172 871 172 668 q 194 1125 172 1007 q 259 1343 217 1243 q 362 1521 301 1443 q 499 1654 422 1599 q 666 1738 575 1710 q 861 1767 757 1767 q 1024 1745 947 1767 q 1167 1681 1101 1724 q 1294 1709 1246 1685 q 1361 1773 1343 1733 q 1369 1863 1379 1813 q 1322 1967 1360 1914 q 1319 1994 1314 1981 q 1339 2017 1325 2008 q 1367 2024 1353 2025 q 1392 2010 1382 2024 q 1447 1885 1435 1947 q 1442 1771 1460 1824 q 1374 1681 1424 1718 q 1244 1633 1324 1644 q 1465 1326 1385 1522 q 1544 871 1544 1129 q 1522 617 1544 736 q 1458 398 1500 499 q 1356 219 1417 297 q 1219 86 1296 142 q 1053 2 1143 31 q 861 -26 963 -26 m 861 49 q 1030 74 950 49 q 1177 150 1110 100 q 1297 272 1244 200 q 1387 435 1350 344 q 1444 636 1424 526 q 1464 871 1464 746 q 1420 1210 1464 1058 q 1297 1469 1376 1361 q 1106 1635 1217 1578 q 861 1693 996 1693 q 690 1667 769 1693 q 542 1590 610 1640 q 422 1469 475 1540 q 331 1306 368 1399 q 274 1105 293 1214 q 254 871 254 996 q 297 532 254 683 q 421 272 340 381 q 613 106 501 164 q 861 49 725 49 m 631 1889 q 599 1917 599 1889 q 636 2034 603 1992 q 726 2076 669 2076 q 806 2058 771 2076 q 871 2017 840 2040 q 930 1977 901 1994 q 988 1960 958 1960 q 1034 1984 1018 1960 q 1051 2053 1050 2008 q 1085 2078 1053 2078 q 1110 2072 1104 2078 q 1117 2050 1117 2065 q 1081 1933 1115 1974 q 986 1892 1047 1892 q 910 1909 944 1892 q 844 1950 875 1926 q 785 1991 814 1974 q 728 2008 757 2008 q 683 1985 699 2008 q 664 1915 667 1963 q 655 1894 663 1900 q 631 1889 647 1889 m 0 -1037 l 1717 -1037 l 1717 -1051 l 0 -1051 l 0 -1037 m 0 28 l 1717 28 l 1717 0 l 0 0 l 0 28 m 0 701 l 1717 701 l 1717 694 l 0 694 l 0 701 m 0 1760 l 1717 1760 l 1717 1746 l 0 1746 l 0 1760 z "},"Ŕ":{"ha":1288,"x_min":0,"x_max":1288,"o":"m 313 -19 q 283 -12 292 -19 q 274 10 274 -6 l 274 1708 q 284 1729 274 1722 q 314 1736 294 1736 l 619 1736 q 915 1695 797 1736 q 1091 1568 1032 1654 q 1150 1344 1150 1482 q 1120 1167 1150 1244 q 1038 1034 1090 1090 q 915 938 985 978 q 766 873 846 899 q 601 833 686 847 q 436 811 517 819 q 668 542 546 678 q 921 280 790 407 q 1188 39 1051 153 q 1198 19 1197 31 q 1182 -8 1199 7 q 1158 -21 1169 -21 q 1133 -10 1147 -21 q 859 239 994 104 q 596 517 724 374 q 350 803 468 661 l 350 10 q 342 -12 350 -6 q 313 -19 335 -19 m 350 872 q 492 883 419 875 q 634 906 564 890 q 769 946 704 921 q 889 1006 833 971 q 985 1090 944 1042 q 1049 1202 1026 1139 q 1072 1344 1072 1265 q 1023 1528 1072 1457 q 873 1633 974 1599 q 621 1667 772 1667 l 350 1667 l 350 872 m 560 1843 q 537 1856 549 1843 q 525 1878 525 1868 q 526 1885 525 1881 q 533 1896 528 1890 l 774 2106 q 785 2114 781 2110 q 796 2118 789 2118 q 816 2110 806 2118 q 833 2092 826 2103 q 840 2071 840 2081 q 839 2061 840 2065 q 829 2050 838 2057 l 579 1853 q 569 1847 572 1850 q 560 1843 565 1843 m 0 -1037 l 1288 -1037 l 1288 -1051 l 0 -1051 l 0 -1037 m 0 28 l 1288 28 l 1288 0 l 0 0 l 0 28 m 0 701 l 1288 701 l 1288 694 l 0 694 l 0 701 m 0 1760 l 1288 1760 l 1288 1746 l 0 1746 l 0 1760 z "},"Ř":{"ha":1288,"x_min":0,"x_max":1288,"o":"m 313 -19 q 283 -12 292 -19 q 274 10 274 -6 l 274 1708 q 284 1729 274 1722 q 314 1736 294 1736 l 619 1736 q 915 1695 797 1736 q 1091 1568 1032 1654 q 1150 1344 1150 1482 q 1120 1167 1150 1244 q 1038 1034 1090 1090 q 915 938 985 978 q 766 873 846 899 q 601 833 686 847 q 436 811 517 819 q 668 542 546 678 q 921 280 790 407 q 1188 39 1051 153 q 1198 19 1197 31 q 1182 -8 1199 7 q 1158 -21 1169 -21 q 1133 -10 1147 -21 q 859 239 994 104 q 596 517 724 374 q 350 803 468 661 l 350 10 q 342 -12 350 -6 q 313 -19 335 -19 m 350 872 q 492 883 419 875 q 634 906 564 890 q 769 946 704 921 q 889 1006 833 971 q 985 1090 944 1042 q 1049 1202 1026 1139 q 1072 1344 1072 1265 q 1023 1528 1072 1457 q 873 1633 974 1599 q 621 1667 772 1667 l 350 1667 l 350 872 m 879 2118 q 901 2108 890 2118 q 911 2085 911 2097 q 910 2076 911 2081 q 903 2067 908 2072 l 681 1861 q 666 1848 674 1853 q 646 1843 658 1843 q 626 1848 633 1843 q 611 1861 619 1853 l 388 2068 q 382 2078 383 2074 q 381 2086 381 2083 q 391 2108 381 2099 q 413 2118 401 2118 q 424 2115 419 2118 q 436 2107 429 2111 l 646 1932 l 856 2107 q 867 2115 863 2111 q 879 2118 872 2118 m 0 -1037 l 1288 -1037 l 1288 -1051 l 0 -1051 l 0 -1037 m 0 28 l 1288 28 l 1288 0 l 0 0 l 0 28 m 0 701 l 1288 701 l 1288 694 l 0 694 l 0 701 m 0 1760 l 1288 1760 l 1288 1746 l 0 1746 l 0 1760 z "},"Ŗ":{"ha":1288,"x_min":0,"x_max":1288,"o":"m 313 -19 q 283 -12 292 -19 q 274 10 274 -6 l 274 1708 q 284 1729 274 1722 q 314 1736 294 1736 l 619 1736 q 915 1695 797 1736 q 1091 1568 1032 1654 q 1150 1344 1150 1482 q 1120 1167 1150 1244 q 1038 1034 1090 1090 q 915 938 985 978 q 766 873 846 899 q 601 833 686 847 q 436 811 517 819 q 668 542 546 678 q 921 280 790 407 q 1188 39 1051 153 q 1198 19 1197 31 q 1182 -8 1199 7 q 1158 -21 1169 -21 q 1133 -10 1147 -21 q 859 239 994 104 q 596 517 724 374 q 350 803 468 661 l 350 10 q 342 -12 350 -6 q 313 -19 335 -19 m 350 872 q 492 883 419 875 q 634 906 564 890 q 769 946 704 921 q 889 1006 833 971 q 985 1090 944 1042 q 1049 1202 1026 1139 q 1072 1344 1072 1265 q 1023 1528 1072 1457 q 873 1633 974 1599 q 621 1667 772 1667 l 350 1667 l 350 872 m 639 -414 q 623 -398 625 -407 q 629 -371 621 -389 q 658 -303 647 -336 q 673 -233 668 -271 q 678 -147 678 -196 q 686 -123 678 -132 q 713 -114 694 -114 q 744 -125 733 -114 q 754 -153 754 -136 q 746 -234 754 -190 q 722 -320 738 -278 q 683 -396 706 -362 q 665 -415 675 -410 q 639 -414 656 -419 m 0 -1037 l 1288 -1037 l 1288 -1051 l 0 -1051 l 0 -1037 m 0 28 l 1288 28 l 1288 0 l 0 0 l 0 28 m 0 701 l 1288 701 l 1288 694 l 0 694 l 0 701 m 0 1760 l 1288 1760 l 1288 1746 l 0 1746 l 0 1760 z "},"Ś":{"ha":1276,"x_min":0,"x_max":1276,"o":"m 622 -26 q 492 -15 557 -26 q 367 22 428 -3 q 253 85 307 46 q 158 178 200 124 q 147 201 147 190 q 160 222 147 211 q 183 235 174 235 q 211 218 193 236 q 324 126 263 164 q 461 68 386 88 q 622 49 536 49 q 794 76 717 49 q 929 157 872 104 q 1017 285 986 210 q 1047 451 1047 360 q 1015 601 1047 539 q 928 709 983 664 q 804 789 874 754 q 658 854 735 824 q 529 912 593 882 q 410 980 465 942 q 311 1069 354 1018 q 244 1187 268 1119 q 219 1343 219 1254 q 254 1521 219 1443 q 350 1654 289 1599 q 490 1738 411 1710 q 660 1767 569 1767 q 838 1739 758 1767 q 980 1667 917 1711 q 1097 1572 1043 1622 q 1109 1551 1110 1561 q 1097 1529 1108 1542 q 1073 1516 1083 1517 q 1047 1526 1063 1515 q 928 1615 988 1576 q 803 1673 869 1653 q 660 1693 738 1693 q 513 1667 579 1693 q 399 1596 446 1642 q 326 1485 351 1550 q 300 1343 300 1421 q 334 1181 300 1247 q 425 1067 368 1114 q 553 987 482 1021 q 697 922 624 953 q 851 853 775 892 q 991 761 928 814 q 1091 633 1054 708 q 1128 451 1128 557 q 1092 258 1128 346 q 988 107 1056 171 q 828 8 921 43 q 622 -26 736 -26 m 585 1843 q 562 1856 574 1843 q 550 1878 550 1868 q 551 1885 550 1881 q 557 1896 551 1890 l 799 2106 q 808 2114 804 2110 q 821 2118 813 2118 q 840 2110 829 2118 q 858 2092 850 2103 q 865 2071 865 2081 q 863 2061 865 2065 q 854 2050 861 2057 l 604 1853 q 593 1847 597 1850 q 585 1843 589 1843 m 0 -1037 l 1276 -1037 l 1276 -1051 l 0 -1051 l 0 -1037 m 0 28 l 1276 28 l 1276 0 l 0 0 l 0 28 m 0 701 l 1276 701 l 1276 694 l 0 694 l 0 701 m 0 1760 l 1276 1760 l 1276 1746 l 0 1746 l 0 1760 z "},"Š":{"ha":1276,"x_min":0,"x_max":1276,"o":"m 622 -26 q 492 -15 557 -26 q 367 22 428 -3 q 253 85 307 46 q 158 178 200 124 q 147 201 147 190 q 160 222 147 211 q 183 235 174 235 q 211 218 193 236 q 324 126 263 164 q 461 68 386 88 q 622 49 536 49 q 794 76 717 49 q 929 157 872 104 q 1017 285 986 210 q 1047 451 1047 360 q 1015 601 1047 539 q 928 709 983 664 q 804 789 874 754 q 658 854 735 824 q 529 912 593 882 q 410 980 465 942 q 311 1069 354 1018 q 244 1187 268 1119 q 219 1343 219 1254 q 254 1521 219 1443 q 350 1654 289 1599 q 490 1738 411 1710 q 660 1767 569 1767 q 838 1739 758 1767 q 980 1667 917 1711 q 1097 1572 1043 1622 q 1109 1551 1110 1561 q 1097 1529 1108 1542 q 1073 1516 1083 1517 q 1047 1526 1063 1515 q 928 1615 988 1576 q 803 1673 869 1653 q 660 1693 738 1693 q 513 1667 579 1693 q 399 1596 446 1642 q 326 1485 351 1550 q 300 1343 300 1421 q 334 1181 300 1247 q 425 1067 368 1114 q 553 987 482 1021 q 697 922 624 953 q 851 853 775 892 q 991 761 928 814 q 1091 633 1054 708 q 1128 451 1128 557 q 1092 258 1128 346 q 988 107 1056 171 q 828 8 921 43 q 622 -26 736 -26 m 904 2118 q 924 2108 914 2118 q 935 2085 935 2097 q 934 2076 935 2081 q 928 2067 933 2072 l 706 1861 q 690 1848 697 1853 q 669 1843 683 1843 q 650 1848 657 1843 q 636 1861 643 1853 l 413 2068 q 407 2078 408 2074 q 406 2086 406 2083 q 416 2108 406 2099 q 436 2118 426 2118 q 448 2115 443 2118 q 460 2107 453 2111 l 669 1932 l 881 2107 q 892 2115 888 2111 q 904 2118 897 2118 m 0 -1037 l 1276 -1037 l 1276 -1051 l 0 -1051 l 0 -1037 m 0 28 l 1276 28 l 1276 0 l 0 0 l 0 28 m 0 701 l 1276 701 l 1276 694 l 0 694 l 0 701 m 0 1760 l 1276 1760 l 1276 1746 l 0 1746 l 0 1760 z "},"Ş":{"ha":1276,"x_min":0,"x_max":1276,"o":"m 622 -26 q 492 -15 557 -26 q 367 22 428 -3 q 253 85 307 46 q 158 178 200 124 q 147 201 147 190 q 160 222 147 211 q 183 235 174 235 q 211 218 193 236 q 324 126 263 164 q 461 68 386 88 q 622 49 536 49 q 794 76 717 49 q 929 157 872 104 q 1017 285 986 210 q 1047 451 1047 360 q 1015 601 1047 539 q 928 709 983 664 q 804 789 874 754 q 658 854 735 824 q 529 912 593 882 q 410 980 465 942 q 311 1069 354 1018 q 244 1187 268 1119 q 219 1343 219 1254 q 254 1521 219 1443 q 350 1654 289 1599 q 490 1738 411 1710 q 660 1767 569 1767 q 838 1739 758 1767 q 980 1667 917 1711 q 1097 1572 1043 1622 q 1109 1551 1110 1561 q 1097 1529 1108 1542 q 1073 1516 1083 1517 q 1047 1526 1063 1515 q 928 1615 988 1576 q 803 1673 869 1653 q 660 1693 738 1693 q 513 1667 579 1693 q 399 1596 446 1642 q 326 1485 351 1550 q 300 1343 300 1421 q 334 1181 300 1247 q 425 1067 368 1114 q 553 987 482 1021 q 697 922 624 953 q 851 853 775 892 q 991 761 928 814 q 1091 633 1054 708 q 1128 451 1128 557 q 1092 258 1128 346 q 988 107 1056 171 q 828 8 921 43 q 622 -26 736 -26 m 617 -381 q 554 -374 592 -381 q 483 -346 517 -367 q 469 -327 471 -337 q 474 -304 468 -317 q 490 -289 481 -292 q 511 -292 499 -286 q 558 -308 532 -300 q 613 -315 583 -315 q 683 -297 658 -315 q 708 -242 708 -279 q 678 -189 708 -206 q 589 -179 649 -172 q 569 -178 576 -181 q 557 -169 563 -176 q 552 -151 551 -160 q 558 -131 553 -143 l 614 6 l 675 6 l 610 -150 l 588 -131 q 683 -124 639 -115 q 755 -162 728 -132 q 782 -242 782 -192 q 762 -316 782 -285 q 704 -364 742 -347 q 617 -381 667 -381 m 0 -1037 l 1276 -1037 l 1276 -1051 l 0 -1051 l 0 -1037 m 0 28 l 1276 28 l 1276 0 l 0 0 l 0 28 m 0 701 l 1276 701 l 1276 694 l 0 694 l 0 701 m 0 1760 l 1276 1760 l 1276 1746 l 0 1746 l 0 1760 z "},"Ŝ":{"ha":1276,"x_min":0,"x_max":1276,"o":"m 622 -26 q 492 -15 557 -26 q 367 22 428 -3 q 253 85 307 46 q 158 178 200 124 q 147 201 147 190 q 160 222 147 211 q 183 235 174 235 q 211 218 193 236 q 324 126 263 164 q 461 68 386 88 q 622 49 536 49 q 794 76 717 49 q 929 157 872 104 q 1017 285 986 210 q 1047 451 1047 360 q 1015 601 1047 539 q 928 709 983 664 q 804 789 874 754 q 658 854 735 824 q 529 912 593 882 q 410 980 465 942 q 311 1069 354 1018 q 244 1187 268 1119 q 219 1343 219 1254 q 254 1521 219 1443 q 350 1654 289 1599 q 490 1738 411 1710 q 660 1767 569 1767 q 838 1739 758 1767 q 980 1667 917 1711 q 1097 1572 1043 1622 q 1109 1551 1110 1561 q 1097 1529 1108 1542 q 1073 1516 1083 1517 q 1047 1526 1063 1515 q 928 1615 988 1576 q 803 1673 869 1653 q 660 1693 738 1693 q 513 1667 579 1693 q 399 1596 446 1642 q 326 1485 351 1550 q 300 1343 300 1421 q 334 1181 300 1247 q 425 1067 368 1114 q 553 987 482 1021 q 697 922 624 953 q 851 853 775 892 q 991 761 928 814 q 1091 633 1054 708 q 1128 451 1128 557 q 1092 258 1128 346 q 988 107 1056 171 q 828 8 921 43 q 622 -26 736 -26 m 436 1839 q 416 1850 426 1839 q 406 1872 406 1861 q 407 1881 406 1876 q 413 1890 408 1885 l 635 2096 q 650 2109 643 2104 q 669 2114 657 2114 q 690 2109 682 2114 q 704 2096 697 2104 l 928 1889 q 934 1880 933 1885 q 935 1871 935 1875 q 924 1849 935 1860 q 904 1839 914 1839 q 892 1842 897 1839 q 881 1851 888 1846 l 669 2025 l 460 1851 q 448 1842 453 1846 q 436 1839 443 1839 m 0 -1037 l 1276 -1037 l 1276 -1051 l 0 -1051 l 0 -1037 m 0 28 l 1276 28 l 1276 0 l 0 0 l 0 28 m 0 701 l 1276 701 l 1276 694 l 0 694 l 0 701 m 0 1760 l 1276 1760 l 1276 1746 l 0 1746 l 0 1760 z "},"Ș":{"ha":1276,"x_min":0,"x_max":1276,"o":"m 622 -26 q 492 -15 557 -26 q 367 22 428 -3 q 253 85 307 46 q 158 178 200 124 q 147 201 147 190 q 160 222 147 211 q 183 235 174 235 q 211 218 193 236 q 324 126 263 164 q 461 68 386 88 q 622 49 536 49 q 794 76 717 49 q 929 157 872 104 q 1017 285 986 210 q 1047 451 1047 360 q 1015 601 1047 539 q 928 709 983 664 q 804 789 874 754 q 658 854 735 824 q 529 912 593 882 q 410 980 465 942 q 311 1069 354 1018 q 244 1187 268 1119 q 219 1343 219 1254 q 254 1521 219 1443 q 350 1654 289 1599 q 490 1738 411 1710 q 660 1767 569 1767 q 838 1739 758 1767 q 980 1667 917 1711 q 1097 1572 1043 1622 q 1109 1551 1110 1561 q 1097 1529 1108 1542 q 1073 1516 1083 1517 q 1047 1526 1063 1515 q 928 1615 988 1576 q 803 1673 869 1653 q 660 1693 738 1693 q 513 1667 579 1693 q 399 1596 446 1642 q 326 1485 351 1550 q 300 1343 300 1421 q 334 1181 300 1247 q 425 1067 368 1114 q 553 987 482 1021 q 697 922 624 953 q 851 853 775 892 q 991 761 928 814 q 1091 633 1054 708 q 1128 451 1128 557 q 1092 258 1128 346 q 988 107 1056 171 q 828 8 921 43 q 622 -26 736 -26 m 563 -414 q 546 -398 547 -407 q 553 -371 544 -389 q 581 -303 571 -336 q 597 -233 592 -271 q 601 -147 601 -196 q 609 -123 601 -132 q 636 -114 617 -114 q 667 -125 657 -114 q 678 -153 678 -136 q 669 -234 678 -190 q 644 -320 661 -278 q 607 -396 628 -362 q 588 -415 599 -410 q 563 -414 578 -419 m 0 -1037 l 1276 -1037 l 1276 -1051 l 0 -1051 l 0 -1037 m 0 28 l 1276 28 l 1276 0 l 0 0 l 0 28 m 0 701 l 1276 701 l 1276 694 l 0 694 l 0 701 m 0 1760 l 1276 1760 l 1276 1746 l 0 1746 l 0 1760 z "},"Ŧ":{"ha":1282,"x_min":0,"x_max":1282,"o":"m 640 -19 q 603 7 603 -19 l 603 1667 l 74 1667 q 56 1674 63 1667 q 50 1701 50 1682 q 56 1728 50 1721 q 74 1736 63 1736 l 1208 1736 q 1226 1728 1219 1736 q 1232 1701 1232 1721 q 1226 1675 1232 1683 q 1208 1667 1219 1667 l 678 1667 l 678 7 q 669 -13 678 -7 q 640 -19 661 -19 m 319 835 q 299 843 304 835 q 293 865 293 851 q 299 890 293 881 q 319 900 304 900 l 961 900 q 983 890 978 900 q 988 865 988 881 q 983 843 988 851 q 961 835 978 835 l 319 835 m 0 -1037 l 1282 -1037 l 1282 -1051 l 0 -1051 l 0 -1037 m 0 28 l 1282 28 l 1282 0 l 0 0 l 0 28 m 0 701 l 1282 701 l 1282 694 l 0 694 l 0 701 m 0 1760 l 1282 1760 l 1282 1746 l 0 1746 l 0 1760 z "},"Ť":{"ha":1282,"x_min":0,"x_max":1282,"o":"m 640 -19 q 603 7 603 -19 l 603 1667 l 74 1667 q 56 1674 63 1667 q 50 1701 50 1682 q 56 1728 50 1721 q 74 1736 63 1736 l 1208 1736 q 1226 1728 1219 1736 q 1232 1701 1232 1721 q 1226 1674 1232 1682 q 1208 1667 1219 1667 l 678 1667 l 678 7 q 669 -13 678 -7 q 640 -19 661 -19 m 875 2118 q 895 2108 885 2118 q 906 2085 906 2097 q 904 2076 906 2081 q 899 2067 903 2072 l 676 1861 q 661 1848 668 1853 q 640 1843 654 1843 q 621 1848 628 1843 q 607 1861 614 1853 l 383 2068 q 377 2078 378 2074 q 376 2086 376 2083 q 387 2108 376 2099 q 407 2118 397 2118 q 419 2115 414 2118 q 431 2107 424 2111 l 640 1932 l 851 2107 q 863 2115 857 2111 q 875 2118 868 2118 m 0 -1037 l 1282 -1037 l 1282 -1051 l 0 -1051 l 0 -1037 m 0 28 l 1282 28 l 1282 0 l 0 0 l 0 28 m 0 701 l 1282 701 l 1282 694 l 0 694 l 0 701 m 0 1760 l 1282 1760 l 1282 1746 l 0 1746 l 0 1760 z "},"Ţ":{"ha":1282,"x_min":0,"x_max":1282,"o":"m 640 -19 q 603 7 603 -19 l 603 1667 l 74 1667 q 56 1674 63 1667 q 50 1701 50 1682 q 56 1728 50 1721 q 74 1736 63 1736 l 1208 1736 q 1226 1728 1219 1736 q 1232 1701 1232 1721 q 1226 1675 1232 1683 q 1208 1667 1219 1667 l 678 1667 l 678 7 q 669 -13 678 -7 q 640 -19 661 -19 m 617 -381 q 555 -374 593 -381 q 483 -346 517 -367 q 470 -327 472 -337 q 475 -304 468 -317 q 490 -289 482 -292 q 511 -292 499 -286 q 558 -308 532 -300 q 614 -315 585 -315 q 683 -297 658 -315 q 708 -242 708 -279 q 678 -189 708 -206 q 589 -179 649 -172 q 571 -178 578 -181 q 558 -169 564 -176 q 552 -151 551 -160 q 558 -131 553 -143 l 615 6 l 676 6 l 611 -150 l 588 -131 q 685 -124 640 -115 q 756 -162 729 -132 q 783 -242 783 -192 q 763 -316 783 -285 q 704 -364 742 -347 q 617 -381 667 -381 m 0 -1037 l 1282 -1037 l 1282 -1051 l 0 -1051 l 0 -1037 m 0 28 l 1282 28 l 1282 0 l 0 0 l 0 28 m 0 701 l 1282 701 l 1282 694 l 0 694 l 0 701 m 0 1760 l 1282 1760 l 1282 1746 l 0 1746 l 0 1760 z "},"Ț":{"ha":1282,"x_min":0,"x_max":1282,"o":"m 640 -19 q 603 7 603 -19 l 603 1667 l 74 1667 q 56 1674 63 1667 q 50 1701 50 1682 q 56 1728 50 1721 q 74 1736 63 1736 l 1208 1736 q 1226 1728 1219 1736 q 1232 1701 1232 1721 q 1226 1674 1232 1682 q 1208 1667 1219 1667 l 678 1667 l 678 7 q 669 -13 678 -7 q 640 -19 661 -19 m 563 -414 q 547 -398 549 -407 q 554 -371 544 -389 q 581 -303 571 -336 q 597 -233 592 -271 q 601 -147 601 -196 q 610 -123 601 -132 q 636 -114 618 -114 q 667 -125 657 -114 q 678 -153 678 -136 q 669 -234 678 -190 q 645 -320 661 -278 q 607 -396 629 -362 q 589 -415 599 -410 q 563 -414 579 -419 m 0 -1037 l 1282 -1037 l 1282 -1051 l 0 -1051 l 0 -1037 m 0 28 l 1282 28 l 1282 0 l 0 0 l 0 28 m 0 701 l 1282 701 l 1282 694 l 0 694 l 0 701 m 0 1760 l 1282 1760 l 1282 1746 l 0 1746 l 0 1760 z "},"Ú":{"ha":1601,"x_min":0,"x_max":1601,"o":"m 803 -26 q 565 9 668 -26 q 393 114 463 44 q 289 287 324 183 q 254 526 254 390 l 254 1740 q 263 1760 254 1754 q 290 1767 271 1767 q 320 1760 311 1767 q 329 1740 329 1754 l 329 524 q 382 260 329 365 q 541 101 435 154 q 803 49 647 49 q 1063 101 958 49 q 1219 260 1167 154 q 1272 524 1272 365 l 1272 1740 q 1281 1760 1272 1754 q 1310 1767 1290 1767 q 1347 1740 1347 1767 l 1347 526 q 1285 222 1347 344 q 1103 36 1224 99 q 803 -26 982 -26 m 715 1843 q 692 1856 704 1843 q 681 1878 681 1868 q 682 1885 681 1881 q 689 1896 683 1890 l 929 2106 q 940 2114 935 2110 q 951 2118 944 2118 q 971 2110 960 2118 q 989 2092 982 2103 q 996 2071 996 2081 q 994 2061 996 2065 q 985 2050 992 2057 l 735 1853 q 724 1847 728 1850 q 715 1843 719 1843 m 0 -1037 l 1601 -1037 l 1601 -1051 l 0 -1051 l 0 -1037 m 0 28 l 1601 28 l 1601 0 l 0 0 l 0 28 m 0 701 l 1601 701 l 1601 694 l 0 694 l 0 701 m 0 1760 l 1601 1760 l 1601 1746 l 0 1746 l 0 1760 z "},"Ŭ":{"ha":1601,"x_min":0,"x_max":1601,"o":"m 803 -26 q 565 9 668 -26 q 393 114 463 44 q 289 287 324 183 q 254 526 254 390 l 254 1740 q 263 1760 254 1754 q 290 1767 271 1767 q 320 1760 311 1767 q 329 1740 329 1754 l 329 524 q 382 260 329 365 q 541 101 435 154 q 803 49 647 49 q 1063 101 958 49 q 1219 260 1167 154 q 1272 524 1272 365 l 1272 1740 q 1281 1760 1272 1754 q 1310 1767 1290 1767 q 1347 1740 1347 1767 l 1347 526 q 1285 222 1347 344 q 1103 36 1224 99 q 803 -26 982 -26 m 800 1844 q 628 1905 694 1844 q 554 2090 561 1965 q 561 2110 553 2103 q 588 2118 569 2118 q 611 2111 604 2118 q 619 2090 618 2104 q 675 1963 629 2003 q 801 1922 721 1922 q 927 1963 881 1922 q 982 2090 974 2003 q 991 2111 985 2104 q 1013 2118 997 2118 q 1040 2110 1031 2118 q 1047 2090 1049 2103 q 1012 1954 1044 2008 q 925 1872 979 1900 q 800 1844 871 1844 m 0 -1037 l 1601 -1037 l 1601 -1051 l 0 -1051 l 0 -1037 m 0 28 l 1601 28 l 1601 0 l 0 0 l 0 28 m 0 701 l 1601 701 l 1601 694 l 0 694 l 0 701 m 0 1760 l 1601 1760 l 1601 1746 l 0 1746 l 0 1760 z "},"Ǔ":{"ha":1601,"x_min":0,"x_max":1601,"o":"m 803 -26 q 565 9 668 -26 q 393 114 463 44 q 289 287 324 183 q 254 526 254 390 l 254 1740 q 263 1760 254 1754 q 290 1767 271 1767 q 320 1760 311 1767 q 329 1740 329 1754 l 329 524 q 382 260 329 365 q 541 101 435 154 q 804 49 647 49 q 1063 101 958 49 q 1219 260 1167 154 q 1272 524 1272 365 l 1272 1740 q 1281 1760 1272 1754 q 1310 1767 1289 1767 q 1347 1740 1347 1767 l 1347 526 q 1285 222 1347 344 q 1103 36 1224 99 q 803 -26 982 -26 m 1035 2118 q 1055 2108 1044 2118 q 1065 2085 1065 2097 q 1065 2076 1065 2081 q 1058 2067 1064 2072 l 836 1861 q 821 1848 828 1853 q 801 1843 814 1843 q 782 1848 789 1843 q 767 1861 775 1853 l 543 2068 q 538 2078 539 2074 q 536 2086 536 2083 q 547 2108 536 2099 q 568 2118 557 2118 q 579 2115 574 2118 q 590 2107 585 2111 l 801 1932 l 1011 2107 q 1023 2115 1018 2111 q 1035 2118 1028 2118 m 0 -1037 l 1601 -1037 l 1601 -1051 l 0 -1051 l 0 -1037 m 0 28 l 1601 28 l 1601 0 l 0 0 l 0 28 m 0 701 l 1601 701 l 1601 694 l 0 694 l 0 701 m 0 1760 l 1601 1760 l 1601 1746 l 0 1746 l 0 1760 z "},"Û":{"ha":1601,"x_min":0,"x_max":1601,"o":"m 803 -26 q 565 9 668 -26 q 393 114 463 44 q 289 287 324 183 q 254 526 254 390 l 254 1740 q 263 1760 254 1754 q 290 1767 271 1767 q 320 1760 311 1767 q 329 1740 329 1754 l 329 524 q 382 260 329 365 q 541 101 435 154 q 804 49 647 49 q 1063 101 958 49 q 1219 260 1167 154 q 1272 524 1272 365 l 1272 1740 q 1281 1760 1272 1754 q 1310 1767 1289 1767 q 1347 1740 1347 1767 l 1347 526 q 1285 222 1347 344 q 1103 36 1224 99 q 803 -26 982 -26 m 568 1839 q 547 1850 557 1839 q 536 1872 536 1861 q 538 1881 536 1876 q 543 1890 539 1885 l 765 2096 q 781 2109 774 2104 q 800 2114 788 2114 q 820 2109 813 2114 q 835 2096 828 2104 l 1058 1889 q 1065 1880 1064 1885 q 1065 1871 1065 1875 q 1055 1849 1065 1860 q 1035 1839 1044 1839 q 1023 1842 1028 1839 q 1011 1851 1018 1846 l 800 2025 l 590 1851 q 579 1842 585 1846 q 568 1839 574 1839 m 0 -1037 l 1601 -1037 l 1601 -1051 l 0 -1051 l 0 -1037 m 0 28 l 1601 28 l 1601 0 l 0 0 l 0 28 m 0 701 l 1601 701 l 1601 694 l 0 694 l 0 701 m 0 1760 l 1601 1760 l 1601 1746 l 0 1746 l 0 1760 z "},"Ü":{"ha":1601,"x_min":0,"x_max":1601,"o":"m 803 -26 q 565 9 668 -26 q 393 114 463 44 q 289 287 324 183 q 254 526 254 390 l 254 1740 q 263 1760 254 1754 q 292 1767 271 1767 q 320 1760 311 1767 q 329 1740 329 1754 l 329 524 q 382 260 329 365 q 541 101 435 154 q 804 49 647 49 q 1063 101 958 49 q 1219 260 1167 154 q 1272 524 1272 365 l 1272 1740 q 1281 1760 1272 1754 q 1308 1767 1289 1767 q 1347 1740 1347 1767 l 1347 526 q 1285 222 1347 344 q 1103 36 1224 99 q 803 -26 982 -26 m 610 1901 q 565 1918 581 1901 q 550 1969 550 1935 q 565 2022 550 2004 q 611 2039 581 2039 q 656 2022 642 2039 q 671 1969 671 2004 q 656 1918 672 1935 q 610 1901 640 1901 m 992 1901 q 947 1918 961 1901 q 932 1969 932 1935 q 947 2022 932 2004 q 992 2039 961 2039 q 1037 2022 1021 2039 q 1053 1969 1053 2004 q 1038 1918 1053 1935 q 992 1901 1022 1901 m 0 -1037 l 1601 -1037 l 1601 -1051 l 0 -1051 l 0 -1037 m 0 28 l 1601 28 l 1601 0 l 0 0 l 0 28 m 0 701 l 1601 701 l 1601 694 l 0 694 l 0 701 m 0 1760 l 1601 1760 l 1601 1746 l 0 1746 l 0 1760 z "},"Ù":{"ha":1601,"x_min":0,"x_max":1601,"o":"m 803 -26 q 565 9 668 -26 q 393 114 463 44 q 289 287 324 183 q 254 526 254 390 l 254 1740 q 263 1760 254 1754 q 290 1767 271 1767 q 320 1760 311 1767 q 329 1740 329 1754 l 329 524 q 382 260 329 365 q 541 101 435 154 q 803 49 647 49 q 1063 101 958 49 q 1219 260 1167 154 q 1272 524 1272 365 l 1272 1740 q 1281 1760 1272 1754 q 1310 1767 1290 1767 q 1347 1740 1347 1767 l 1347 526 q 1285 222 1347 344 q 1103 36 1224 99 q 803 -26 982 -26 m 879 1843 q 871 1847 875 1843 q 860 1853 867 1850 l 610 2050 q 601 2061 603 2057 q 600 2071 600 2065 q 607 2092 600 2081 q 624 2110 614 2103 q 643 2118 635 2118 q 656 2114 651 2118 q 665 2104 660 2110 l 906 1896 q 913 1885 913 1890 q 914 1878 914 1881 q 902 1856 914 1868 q 879 1843 890 1843 m 0 -1037 l 1601 -1037 l 1601 -1051 l 0 -1051 l 0 -1037 m 0 28 l 1601 28 l 1601 0 l 0 0 l 0 28 m 0 701 l 1601 701 l 1601 694 l 0 694 l 0 701 m 0 1760 l 1601 1760 l 1601 1746 l 0 1746 l 0 1760 z "},"Ű":{"ha":1601,"x_min":0,"x_max":1601,"o":"m 803 -26 q 565 9 668 -26 q 393 114 463 44 q 289 287 324 183 q 254 526 254 390 l 254 1740 q 263 1760 254 1754 q 292 1767 271 1767 q 320 1760 311 1767 q 329 1740 329 1754 l 329 524 q 382 260 329 365 q 541 101 435 154 q 804 49 647 49 q 1063 101 958 49 q 1219 260 1167 154 q 1272 524 1272 365 l 1272 1740 q 1281 1760 1272 1754 q 1308 1767 1290 1767 q 1347 1740 1347 1767 l 1347 526 q 1285 222 1347 344 q 1103 36 1224 99 q 803 -26 982 -26 m 656 1843 q 633 1856 644 1843 q 621 1878 621 1868 q 622 1885 621 1881 q 628 1896 624 1890 l 860 2106 q 871 2114 867 2110 q 882 2118 875 2118 q 901 2110 892 2118 q 918 2092 911 2103 q 925 2072 925 2081 q 924 2061 925 2065 q 915 2050 922 2057 l 675 1853 q 664 1847 668 1850 q 656 1843 660 1843 m 922 1843 q 899 1856 911 1843 q 888 1878 888 1868 q 889 1885 888 1881 q 896 1896 890 1890 l 1128 2106 q 1139 2114 1135 2110 q 1150 2118 1143 2118 q 1169 2110 1160 2118 q 1186 2092 1179 2103 q 1193 2072 1193 2081 q 1192 2061 1193 2065 q 1183 2050 1190 2057 l 942 1853 q 931 1847 936 1850 q 922 1843 926 1843 m 0 -1037 l 1601 -1037 l 1601 -1051 l 0 -1051 l 0 -1037 m 0 28 l 1601 28 l 1601 0 l 0 0 l 0 28 m 0 701 l 1601 701 l 1601 694 l 0 694 l 0 701 m 0 1760 l 1601 1760 l 1601 1746 l 0 1746 l 0 1760 z "},"Ū":{"ha":1601,"x_min":0,"x_max":1601,"o":"m 803 -26 q 565 9 668 -26 q 393 114 463 44 q 289 287 324 183 q 254 526 254 390 l 254 1740 q 263 1760 254 1754 q 290 1767 271 1767 q 320 1760 311 1767 q 329 1740 329 1754 l 329 524 q 382 260 329 365 q 541 101 435 154 q 803 49 647 49 q 1063 101 958 49 q 1219 260 1167 154 q 1272 524 1272 365 l 1272 1740 q 1281 1760 1272 1754 q 1310 1767 1290 1767 q 1347 1740 1347 1767 l 1347 526 q 1285 222 1347 344 q 1103 36 1224 99 q 803 -26 982 -26 m 592 1940 q 571 1949 576 1940 q 565 1975 565 1958 q 571 2001 565 1992 q 592 2011 576 2011 l 1010 2011 q 1032 2001 1026 2011 q 1038 1975 1038 1992 q 1032 1949 1038 1958 q 1010 1940 1026 1940 l 592 1940 m 0 -1037 l 1601 -1037 l 1601 -1051 l 0 -1051 l 0 -1037 m 0 28 l 1601 28 l 1601 0 l 0 0 l 0 28 m 0 701 l 1601 701 l 1601 694 l 0 694 l 0 701 m 0 1760 l 1601 1760 l 1601 1746 l 0 1746 l 0 1760 z "},"Ų":{"ha":1601,"x_min":0,"x_max":1601,"o":"m 803 -26 q 565 9 668 -26 q 393 114 463 44 q 289 287 324 183 q 254 526 254 390 l 254 1740 q 263 1760 254 1754 q 290 1767 271 1767 q 320 1760 311 1767 q 329 1740 329 1754 l 329 524 q 382 260 329 365 q 541 101 435 154 q 803 49 647 49 q 1063 101 958 49 q 1219 260 1167 154 q 1272 524 1272 365 l 1272 1740 q 1281 1760 1272 1754 q 1310 1767 1290 1767 q 1347 1740 1347 1767 l 1347 526 q 1285 222 1347 344 q 1103 36 1224 99 q 803 -26 982 -26 m 953 -365 q 864 -333 900 -365 q 828 -233 828 -301 q 842 -160 828 -196 q 883 -89 857 -124 q 947 -22 910 -54 q 1026 39 983 10 l 1081 39 l 1081 31 q 1016 -23 1049 7 q 956 -85 983 -53 q 913 -151 929 -118 q 897 -218 897 -185 q 915 -280 897 -260 q 961 -300 932 -300 q 1015 -287 985 -300 q 1071 -244 1044 -275 q 1090 -235 1081 -236 q 1108 -243 1100 -235 q 1121 -264 1119 -253 q 1115 -285 1122 -275 q 1070 -328 1097 -310 q 1013 -356 1043 -346 q 953 -365 982 -365 m 0 -1037 l 1601 -1037 l 1601 -1051 l 0 -1051 l 0 -1037 m 0 28 l 1601 28 l 1601 0 l 0 0 l 0 28 m 0 701 l 1601 701 l 1601 694 l 0 694 l 0 701 m 0 1760 l 1601 1760 l 1601 1746 l 0 1746 l 0 1760 z "},"Ů":{"ha":1601,"x_min":0,"x_max":1601,"o":"m 803 -26 q 565 9 668 -26 q 393 114 463 44 q 289 287 324 183 q 254 526 254 390 l 254 1740 q 263 1760 254 1754 q 290 1767 271 1767 q 320 1760 311 1767 q 329 1740 329 1754 l 329 524 q 382 260 329 365 q 541 101 435 154 q 803 49 647 49 q 1063 101 958 49 q 1219 260 1167 154 q 1272 524 1272 365 l 1272 1740 q 1281 1760 1272 1754 q 1310 1767 1290 1767 q 1347 1740 1347 1767 l 1347 526 q 1285 222 1347 344 q 1103 36 1224 99 q 803 -26 982 -26 m 801 1826 q 706 1847 747 1826 q 641 1906 664 1868 q 618 1990 618 1943 q 641 2074 618 2038 q 706 2131 664 2110 q 801 2151 747 2151 q 897 2131 856 2151 q 961 2074 938 2110 q 985 1990 985 2038 q 961 1906 985 1943 q 897 1847 938 1868 q 801 1826 856 1826 m 800 1888 q 883 1917 853 1888 q 914 1990 914 1946 q 883 2063 914 2035 q 800 2090 853 2090 q 719 2063 749 2090 q 689 1990 689 2035 q 719 1917 689 1946 q 800 1888 749 1888 m 0 -1037 l 1601 -1037 l 1601 -1051 l 0 -1051 l 0 -1037 m 0 28 l 1601 28 l 1601 0 l 0 0 l 0 28 m 0 701 l 1601 701 l 1601 694 l 0 694 l 0 701 m 0 1760 l 1601 1760 l 1601 1746 l 0 1746 l 0 1760 z "},"Ũ":{"ha":1601,"x_min":0,"x_max":1601,"o":"m 803 -26 q 565 9 668 -26 q 393 114 463 44 q 289 287 324 183 q 254 526 254 390 l 254 1740 q 263 1760 254 1754 q 290 1767 271 1767 q 320 1760 311 1767 q 329 1740 329 1754 l 329 524 q 382 260 329 365 q 541 101 435 154 q 803 49 647 49 q 1063 101 958 49 q 1219 260 1167 154 q 1272 524 1272 365 l 1272 1740 q 1281 1760 1272 1754 q 1310 1767 1290 1767 q 1347 1740 1347 1767 l 1347 526 q 1285 222 1347 344 q 1103 36 1224 99 q 803 -26 982 -26 m 572 1889 q 540 1917 540 1889 q 577 2034 543 1992 q 668 2076 611 2076 q 747 2058 713 2076 q 812 2017 782 2040 q 870 1977 842 1994 q 929 1960 899 1960 q 975 1984 958 1960 q 993 2053 992 2008 q 1026 2078 994 2078 q 1051 2072 1044 2078 q 1058 2050 1058 2065 q 1022 1933 1056 1974 q 928 1892 988 1892 q 851 1909 886 1892 q 785 1950 815 1926 q 727 1991 756 1974 q 668 2008 699 2008 q 624 1985 640 2008 q 606 1915 608 1963 q 597 1894 604 1900 q 572 1889 589 1889 m 0 -1037 l 1601 -1037 l 1601 -1051 l 0 -1051 l 0 -1037 m 0 28 l 1601 28 l 1601 0 l 0 0 l 0 28 m 0 701 l 1601 701 l 1601 694 l 0 694 l 0 701 m 0 1760 l 1601 1760 l 1601 1746 l 0 1746 l 0 1760 z "},"Ǘ":{"ha":1601,"x_min":0,"x_max":1601,"o":"m 803 -26 q 565 9 668 -26 q 393 114 463 44 q 289 287 324 183 q 254 526 254 390 l 254 1740 q 263 1760 254 1754 q 290 1767 271 1767 q 320 1760 311 1767 q 329 1740 329 1754 l 329 524 q 382 260 329 365 q 541 101 435 154 q 804 49 647 49 q 1063 101 958 49 q 1219 260 1167 154 q 1272 524 1272 365 l 1272 1740 q 1281 1760 1272 1754 q 1310 1767 1289 1767 q 1347 1740 1347 1767 l 1347 526 q 1285 222 1347 344 q 1103 36 1224 99 q 803 -26 982 -26 m 611 1901 q 565 1918 581 1901 q 550 1969 550 1935 q 565 2022 550 2004 q 611 2039 581 2039 q 656 2022 640 2039 q 671 1969 671 2004 q 656 1918 672 1935 q 611 1901 640 1901 m 992 1901 q 947 1918 961 1901 q 932 1969 932 1935 q 947 2022 932 2004 q 992 2039 961 2039 q 1038 2022 1022 2039 q 1053 1969 1053 2004 q 1038 1918 1053 1935 q 992 1901 1022 1901 m 715 2100 q 692 2112 704 2100 q 681 2133 681 2124 q 682 2142 681 2138 q 689 2151 683 2146 l 929 2361 q 940 2370 935 2367 q 951 2374 944 2374 q 971 2366 960 2374 q 989 2347 982 2358 q 996 2326 996 2336 q 994 2317 996 2321 q 985 2306 992 2313 l 735 2110 q 724 2103 728 2106 q 715 2100 719 2100 m 0 -1037 l 1601 -1037 l 1601 -1051 l 0 -1051 l 0 -1037 m 0 28 l 1601 28 l 1601 0 l 0 0 l 0 28 m 0 701 l 1601 701 l 1601 694 l 0 694 l 0 701 m 0 1760 l 1601 1760 l 1601 1746 l 0 1746 l 0 1760 z "},"Ǚ":{"ha":1601,"x_min":0,"x_max":1601,"o":"m 803 -26 q 565 9 668 -26 q 393 114 463 44 q 289 287 324 183 q 254 526 254 390 l 254 1740 q 263 1760 254 1754 q 290 1767 271 1767 q 320 1760 311 1767 q 329 1740 329 1754 l 329 524 q 382 260 329 365 q 541 101 435 154 q 804 49 647 49 q 1063 101 958 49 q 1219 260 1167 154 q 1272 524 1272 365 l 1272 1740 q 1281 1760 1272 1754 q 1310 1767 1289 1767 q 1347 1740 1347 1767 l 1347 526 q 1285 222 1347 344 q 1103 36 1224 99 q 803 -26 982 -26 m 611 1901 q 565 1918 581 1901 q 550 1969 550 1935 q 565 2022 550 2004 q 611 2039 581 2039 q 656 2022 640 2039 q 671 1969 671 2004 q 656 1918 672 1935 q 611 1901 640 1901 m 992 1901 q 947 1918 961 1901 q 932 1969 932 1935 q 947 2022 932 2004 q 992 2039 961 2039 q 1038 2022 1022 2039 q 1053 1969 1053 2004 q 1038 1918 1053 1935 q 992 1901 1022 1901 m 1035 2374 q 1055 2363 1044 2374 q 1065 2340 1065 2353 q 1065 2333 1065 2338 q 1058 2324 1064 2329 l 836 2117 q 821 2105 828 2110 q 801 2100 814 2100 q 782 2105 789 2100 q 767 2117 775 2110 l 543 2324 q 538 2334 539 2329 q 536 2342 536 2339 q 547 2364 536 2354 q 568 2374 557 2374 q 579 2370 574 2374 q 590 2363 585 2367 l 801 2189 l 1011 2363 q 1023 2370 1018 2367 q 1035 2374 1028 2374 m 0 -1037 l 1601 -1037 l 1601 -1051 l 0 -1051 l 0 -1037 m 0 28 l 1601 28 l 1601 0 l 0 0 l 0 28 m 0 701 l 1601 701 l 1601 694 l 0 694 l 0 701 m 0 1760 l 1601 1760 l 1601 1746 l 0 1746 l 0 1760 z "},"Ǜ":{"ha":1601,"x_min":0,"x_max":1601,"o":"m 803 -26 q 565 9 668 -26 q 393 114 463 44 q 289 287 324 183 q 254 526 254 390 l 254 1740 q 263 1760 254 1754 q 292 1767 271 1767 q 320 1760 311 1767 q 329 1740 329 1754 l 329 524 q 382 260 329 365 q 541 101 435 154 q 804 49 647 49 q 1063 101 958 49 q 1219 260 1167 154 q 1272 524 1272 365 l 1272 1740 q 1281 1760 1272 1754 q 1308 1767 1289 1767 q 1347 1740 1347 1767 l 1347 526 q 1285 222 1347 344 q 1103 36 1224 99 q 803 -26 982 -26 m 610 1901 q 565 1918 581 1901 q 550 1969 550 1935 q 565 2022 550 2004 q 611 2039 581 2039 q 656 2022 642 2039 q 671 1969 671 2004 q 656 1918 672 1935 q 610 1901 640 1901 m 992 1901 q 947 1918 961 1901 q 932 1969 932 1935 q 947 2022 932 2004 q 992 2039 961 2039 q 1037 2022 1021 2039 q 1053 1969 1053 2004 q 1038 1918 1053 1935 q 992 1901 1022 1901 m 879 2100 q 871 2103 875 2100 q 860 2110 867 2106 l 610 2306 q 601 2317 603 2313 q 600 2326 600 2321 q 607 2347 600 2336 q 624 2366 614 2358 q 643 2374 635 2374 q 655 2370 650 2374 q 665 2361 660 2367 l 906 2151 q 913 2142 913 2146 q 914 2133 914 2138 q 902 2112 914 2124 q 879 2100 890 2100 m 0 -1037 l 1601 -1037 l 1601 -1051 l 0 -1051 l 0 -1037 m 0 28 l 1601 28 l 1601 0 l 0 0 l 0 28 m 0 701 l 1601 701 l 1601 694 l 0 694 l 0 701 m 0 1760 l 1601 1760 l 1601 1746 l 0 1746 l 0 1760 z "},"Ǖ":{"ha":1601,"x_min":0,"x_max":1601,"o":"m 803 -26 q 565 9 668 -26 q 393 114 463 44 q 289 287 324 183 q 254 526 254 390 l 254 1740 q 263 1760 254 1754 q 290 1767 271 1767 q 320 1760 311 1767 q 329 1740 329 1754 l 329 524 q 382 260 329 365 q 541 101 435 154 q 804 49 647 49 q 1063 101 958 49 q 1219 260 1167 154 q 1272 524 1272 365 l 1272 1740 q 1281 1760 1272 1754 q 1310 1767 1289 1767 q 1347 1740 1347 1767 l 1347 526 q 1285 222 1347 344 q 1103 36 1224 99 q 803 -26 982 -26 m 611 1901 q 565 1918 581 1901 q 550 1969 550 1935 q 565 2022 550 2004 q 611 2039 581 2039 q 656 2022 640 2039 q 671 1969 671 2004 q 656 1918 672 1935 q 611 1901 640 1901 m 992 1901 q 947 1918 961 1901 q 932 1969 932 1935 q 947 2022 932 2004 q 992 2039 961 2039 q 1038 2022 1022 2039 q 1053 1969 1053 2004 q 1038 1918 1053 1935 q 992 1901 1022 1901 m 592 2196 q 571 2205 576 2196 q 565 2231 565 2214 q 571 2258 565 2247 q 592 2268 576 2268 l 1010 2268 q 1032 2258 1026 2268 q 1038 2231 1038 2247 q 1032 2205 1038 2214 q 1010 2196 1026 2196 l 592 2196 m 0 -1037 l 1601 -1037 l 1601 -1051 l 0 -1051 l 0 -1037 m 0 28 l 1601 28 l 1601 0 l 0 0 l 0 28 m 0 701 l 1601 701 l 1601 694 l 0 694 l 0 701 m 0 1760 l 1601 1760 l 1601 1746 l 0 1746 l 0 1760 z "},"Ụ":{"ha":1601,"x_min":0,"x_max":1601,"o":"m 803 -26 q 565 9 668 -26 q 393 114 463 44 q 289 287 324 183 q 254 526 254 390 l 254 1740 q 263 1760 254 1754 q 290 1767 271 1767 q 320 1760 311 1767 q 329 1740 329 1754 l 329 524 q 382 260 329 365 q 541 101 435 154 q 803 49 647 49 q 1063 101 958 49 q 1219 260 1167 154 q 1272 524 1272 365 l 1272 1740 q 1281 1760 1272 1754 q 1310 1767 1290 1767 q 1347 1740 1347 1767 l 1347 526 q 1285 222 1347 344 q 1103 36 1224 99 q 803 -26 982 -26 m 800 -306 q 755 -289 769 -306 q 740 -237 740 -272 q 755 -185 740 -201 q 800 -168 769 -168 q 846 -185 831 -168 q 861 -237 861 -201 q 846 -289 861 -272 q 800 -306 831 -306 m 0 -1037 l 1601 -1037 l 1601 -1051 l 0 -1051 l 0 -1037 m 0 28 l 1601 28 l 1601 0 l 0 0 l 0 28 m 0 701 l 1601 701 l 1601 694 l 0 694 l 0 701 m 0 1760 l 1601 1760 l 1601 1746 l 0 1746 l 0 1760 z "},"Ủ":{"ha":1601,"x_min":0,"x_max":1601,"o":"m 803 -26 q 565 9 668 -26 q 393 114 463 44 q 289 287 324 183 q 254 526 254 390 l 254 1740 q 263 1760 254 1754 q 290 1767 271 1767 q 320 1760 311 1767 q 329 1740 329 1754 l 329 524 q 382 260 329 365 q 541 101 435 154 q 803 49 647 49 q 1063 101 958 49 q 1219 260 1167 154 q 1272 524 1272 365 l 1272 1740 q 1281 1760 1272 1754 q 1310 1767 1290 1767 q 1347 1740 1347 1767 l 1347 526 q 1285 222 1347 344 q 1103 36 1224 99 q 803 -26 982 -26 m 815 2154 q 917 2124 881 2154 q 954 2047 954 2094 q 937 1990 954 2014 q 878 1939 919 1965 q 843 1908 851 1921 q 844 1872 835 1894 l 847 1865 q 844 1844 851 1853 q 826 1832 838 1836 q 803 1830 814 1828 q 788 1842 792 1832 l 775 1869 q 773 1931 761 1904 q 817 1979 785 1958 q 860 2011 847 1996 q 874 2043 874 2026 q 854 2076 874 2063 q 806 2089 835 2089 q 755 2081 779 2089 q 711 2060 731 2074 q 671 2072 686 2046 q 678 2113 660 2096 q 740 2144 706 2133 q 815 2154 775 2154 m 0 -1037 l 1601 -1037 l 1601 -1051 l 0 -1051 l 0 -1037 m 0 28 l 1601 28 l 1601 0 l 0 0 l 0 28 m 0 701 l 1601 701 l 1601 694 l 0 694 l 0 701 m 0 1760 l 1601 1760 l 1601 1746 l 0 1746 l 0 1760 z "},"Ư":{"ha":1601,"x_min":0,"x_max":1601,"o":"m 803 -26 q 565 9 668 -26 q 393 114 463 44 q 289 287 324 183 q 254 526 254 390 l 254 1740 q 263 1760 254 1754 q 290 1767 271 1767 q 320 1760 311 1767 q 329 1740 329 1754 l 329 524 q 382 260 329 365 q 541 101 435 154 q 803 49 647 49 q 1063 101 958 49 q 1219 260 1167 154 q 1272 524 1272 365 l 1272 1740 q 1281 1760 1272 1754 q 1310 1767 1290 1767 q 1347 1740 1347 1767 l 1347 526 q 1285 222 1347 344 q 1103 36 1224 99 q 803 -26 982 -26 m 1522 2006 q 1565 1897 1560 1951 q 1544 1799 1571 1843 q 1460 1728 1518 1754 q 1313 1706 1403 1703 l 1313 1761 q 1446 1792 1404 1764 q 1488 1866 1488 1821 q 1453 1963 1488 1911 q 1450 1990 1444 1976 q 1469 2012 1456 2003 q 1497 2020 1482 2021 q 1522 2006 1513 2019 m 0 -1037 l 1601 -1037 l 1601 -1051 l 0 -1051 l 0 -1037 m 0 28 l 1601 28 l 1601 0 l 0 0 l 0 28 m 0 701 l 1601 701 l 1601 694 l 0 694 l 0 701 m 0 1760 l 1601 1760 l 1601 1746 l 0 1746 l 0 1760 z "},"Ứ":{"ha":1601,"x_min":0,"x_max":1601,"o":"m 803 -26 q 565 9 668 -26 q 393 114 463 44 q 289 287 324 183 q 254 526 254 390 l 254 1740 q 263 1760 254 1754 q 290 1767 271 1767 q 320 1760 311 1767 q 329 1740 329 1754 l 329 524 q 382 260 329 365 q 541 101 435 154 q 803 49 647 49 q 1063 101 958 49 q 1219 260 1167 154 q 1272 524 1272 365 l 1272 1740 q 1281 1760 1272 1754 q 1310 1767 1290 1767 q 1347 1740 1347 1767 l 1347 526 q 1285 222 1347 344 q 1103 36 1224 99 q 803 -26 982 -26 m 1522 2006 q 1565 1897 1560 1951 q 1544 1799 1571 1843 q 1460 1728 1518 1754 q 1313 1706 1403 1703 l 1313 1761 q 1446 1792 1404 1764 q 1488 1866 1488 1821 q 1453 1963 1488 1911 q 1450 1990 1444 1976 q 1469 2012 1456 2003 q 1497 2020 1482 2021 q 1522 2006 1513 2019 m 715 1843 q 692 1856 704 1843 q 681 1878 681 1868 q 682 1885 681 1881 q 689 1896 683 1890 l 929 2106 q 940 2114 935 2110 q 951 2118 944 2118 q 971 2110 960 2118 q 989 2092 982 2103 q 996 2071 996 2081 q 994 2061 996 2065 q 985 2050 992 2057 l 735 1853 q 724 1847 728 1850 q 715 1843 719 1843 m 0 -1037 l 1601 -1037 l 1601 -1051 l 0 -1051 l 0 -1037 m 0 28 l 1601 28 l 1601 0 l 0 0 l 0 28 m 0 701 l 1601 701 l 1601 694 l 0 694 l 0 701 m 0 1760 l 1601 1760 l 1601 1746 l 0 1746 l 0 1760 z "},"Ự":{"ha":1601,"x_min":0,"x_max":1601,"o":"m 803 -26 q 565 9 668 -26 q 393 114 463 44 q 289 287 324 183 q 254 526 254 390 l 254 1740 q 263 1760 254 1754 q 290 1767 271 1767 q 320 1760 311 1767 q 329 1740 329 1754 l 329 524 q 382 260 329 365 q 541 101 435 154 q 803 49 647 49 q 1063 101 958 49 q 1219 260 1167 154 q 1272 524 1272 365 l 1272 1740 q 1281 1760 1272 1754 q 1310 1767 1290 1767 q 1347 1740 1347 1767 l 1347 526 q 1285 222 1347 344 q 1103 36 1224 99 q 803 -26 982 -26 m 1522 2006 q 1565 1897 1560 1951 q 1544 1799 1571 1843 q 1460 1728 1518 1754 q 1313 1706 1403 1703 l 1313 1761 q 1446 1792 1404 1764 q 1488 1866 1488 1821 q 1453 1963 1488 1911 q 1450 1990 1444 1976 q 1469 2012 1456 2003 q 1497 2020 1482 2021 q 1522 2006 1513 2019 m 800 -306 q 755 -289 769 -306 q 740 -237 740 -272 q 755 -185 740 -201 q 800 -168 769 -168 q 846 -185 831 -168 q 861 -237 861 -201 q 846 -289 861 -272 q 800 -306 831 -306 m 0 -1037 l 1601 -1037 l 1601 -1051 l 0 -1051 l 0 -1037 m 0 28 l 1601 28 l 1601 0 l 0 0 l 0 28 m 0 701 l 1601 701 l 1601 694 l 0 694 l 0 701 m 0 1760 l 1601 1760 l 1601 1746 l 0 1746 l 0 1760 z "},"Ừ":{"ha":1601,"x_min":0,"x_max":1601,"o":"m 803 -26 q 565 9 668 -26 q 393 114 463 44 q 289 287 324 183 q 254 526 254 390 l 254 1740 q 263 1760 254 1754 q 290 1767 271 1767 q 320 1760 311 1767 q 329 1740 329 1754 l 329 524 q 382 260 329 365 q 541 101 435 154 q 803 49 647 49 q 1063 101 958 49 q 1219 260 1167 154 q 1272 524 1272 365 l 1272 1740 q 1281 1760 1272 1754 q 1310 1767 1290 1767 q 1347 1740 1347 1767 l 1347 526 q 1285 222 1347 344 q 1103 36 1224 99 q 803 -26 982 -26 m 1522 2006 q 1565 1897 1560 1951 q 1544 1799 1571 1843 q 1460 1728 1518 1754 q 1313 1706 1403 1703 l 1313 1761 q 1446 1792 1404 1764 q 1488 1866 1488 1821 q 1453 1963 1488 1911 q 1450 1990 1444 1976 q 1469 2012 1456 2003 q 1497 2020 1482 2021 q 1522 2006 1513 2019 m 879 1843 q 871 1847 875 1843 q 860 1853 867 1850 l 610 2050 q 601 2061 603 2057 q 600 2071 600 2065 q 607 2092 600 2081 q 624 2110 614 2103 q 643 2118 635 2118 q 656 2114 651 2118 q 665 2104 660 2110 l 906 1896 q 913 1885 913 1890 q 914 1878 914 1881 q 902 1856 914 1868 q 879 1843 890 1843 m 0 -1037 l 1601 -1037 l 1601 -1051 l 0 -1051 l 0 -1037 m 0 28 l 1601 28 l 1601 0 l 0 0 l 0 28 m 0 701 l 1601 701 l 1601 694 l 0 694 l 0 701 m 0 1760 l 1601 1760 l 1601 1746 l 0 1746 l 0 1760 z "},"Ử":{"ha":1601,"x_min":0,"x_max":1601,"o":"m 803 -26 q 565 9 668 -26 q 393 114 463 44 q 289 287 324 183 q 254 526 254 390 l 254 1740 q 263 1760 254 1754 q 290 1767 271 1767 q 320 1760 311 1767 q 329 1740 329 1754 l 329 524 q 382 260 329 365 q 541 101 435 154 q 803 49 647 49 q 1063 101 958 49 q 1219 260 1167 154 q 1272 524 1272 365 l 1272 1740 q 1281 1760 1272 1754 q 1310 1767 1290 1767 q 1347 1740 1347 1767 l 1347 526 q 1285 222 1347 344 q 1103 36 1224 99 q 803 -26 982 -26 m 1522 2006 q 1565 1897 1560 1951 q 1544 1799 1571 1843 q 1460 1728 1518 1754 q 1313 1706 1403 1703 l 1313 1761 q 1446 1792 1404 1764 q 1488 1866 1488 1821 q 1453 1963 1488 1911 q 1450 1990 1444 1976 q 1469 2012 1456 2003 q 1497 2020 1482 2021 q 1522 2006 1513 2019 m 815 2154 q 917 2124 881 2154 q 954 2047 954 2094 q 937 1990 954 2014 q 878 1939 919 1965 q 843 1908 851 1921 q 844 1872 835 1894 l 847 1865 q 844 1844 851 1853 q 826 1832 838 1836 q 803 1830 814 1828 q 788 1842 792 1832 l 775 1869 q 773 1931 761 1904 q 817 1979 785 1958 q 860 2011 847 1996 q 874 2043 874 2026 q 854 2076 874 2063 q 806 2089 835 2089 q 755 2081 779 2089 q 711 2060 731 2074 q 671 2072 686 2046 q 678 2113 660 2096 q 740 2144 706 2133 q 815 2154 775 2154 m 0 -1037 l 1601 -1037 l 1601 -1051 l 0 -1051 l 0 -1037 m 0 28 l 1601 28 l 1601 0 l 0 0 l 0 28 m 0 701 l 1601 701 l 1601 694 l 0 694 l 0 701 m 0 1760 l 1601 1760 l 1601 1746 l 0 1746 l 0 1760 z "},"Ữ":{"ha":1601,"x_min":0,"x_max":1601,"o":"m 803 -26 q 565 9 668 -26 q 393 114 463 44 q 289 287 324 183 q 254 526 254 390 l 254 1740 q 263 1760 254 1754 q 290 1767 271 1767 q 320 1760 311 1767 q 329 1740 329 1754 l 329 524 q 382 260 329 365 q 541 101 435 154 q 803 49 647 49 q 1063 101 958 49 q 1219 260 1167 154 q 1272 524 1272 365 l 1272 1740 q 1281 1760 1272 1754 q 1310 1767 1290 1767 q 1347 1740 1347 1767 l 1347 526 q 1285 222 1347 344 q 1103 36 1224 99 q 803 -26 982 -26 m 1522 2006 q 1565 1897 1560 1951 q 1544 1799 1571 1843 q 1460 1728 1518 1754 q 1313 1706 1403 1703 l 1313 1761 q 1446 1792 1404 1764 q 1488 1866 1488 1821 q 1453 1963 1488 1911 q 1450 1990 1444 1976 q 1469 2012 1456 2003 q 1497 2020 1482 2021 q 1522 2006 1513 2019 m 572 1889 q 540 1917 540 1889 q 577 2034 543 1992 q 668 2076 611 2076 q 747 2058 713 2076 q 812 2017 782 2040 q 870 1977 842 1994 q 929 1960 899 1960 q 975 1984 958 1960 q 993 2053 992 2008 q 1026 2078 994 2078 q 1051 2072 1044 2078 q 1058 2050 1058 2065 q 1022 1933 1056 1974 q 928 1892 988 1892 q 851 1909 886 1892 q 785 1950 815 1926 q 727 1991 756 1974 q 668 2008 699 2008 q 624 1985 640 2008 q 606 1915 608 1963 q 597 1894 604 1900 q 572 1889 589 1889 m 0 -1037 l 1601 -1037 l 1601 -1051 l 0 -1051 l 0 -1037 m 0 28 l 1601 28 l 1601 0 l 0 0 l 0 28 m 0 701 l 1601 701 l 1601 694 l 0 694 l 0 701 m 0 1760 l 1601 1760 l 1601 1746 l 0 1746 l 0 1760 z "},"Ẃ":{"ha":2186,"x_min":0,"x_max":2186,"o":"m 553 -19 q 523 -12 533 -19 q 507 13 513 -4 l 58 1725 q 59 1749 54 1739 q 83 1764 64 1758 q 113 1766 101 1769 q 129 1743 124 1763 l 554 103 l 1050 1736 q 1064 1760 1056 1753 q 1092 1767 1072 1767 q 1124 1760 1115 1767 q 1138 1736 1132 1753 l 1628 103 l 2060 1744 q 2075 1766 2064 1763 q 2104 1764 2086 1769 q 2127 1749 2122 1758 q 2128 1725 2132 1739 l 1674 13 q 1659 -12 1669 -4 q 1628 -19 1649 -19 q 1597 -12 1607 -19 q 1582 13 1588 -4 l 1093 1646 l 600 13 q 584 -12 594 -4 q 553 -19 574 -19 m 1007 1843 q 984 1856 996 1843 q 972 1878 972 1868 q 974 1885 972 1881 q 981 1896 975 1890 l 1221 2106 q 1232 2114 1228 2110 q 1243 2118 1236 2118 q 1263 2110 1253 2118 q 1281 2092 1274 2103 q 1288 2071 1288 2081 q 1286 2061 1288 2065 q 1276 2050 1285 2057 l 1026 1853 q 1016 1847 1019 1850 q 1007 1843 1013 1843 m 0 -1037 l 2186 -1037 l 2186 -1051 l 0 -1051 l 0 -1037 m 0 28 l 2186 28 l 2186 0 l 0 0 l 0 28 m 0 701 l 2186 701 l 2186 694 l 0 694 l 0 701 m 0 1760 l 2186 1760 l 2186 1746 l 0 1746 l 0 1760 z "},"Ŵ":{"ha":2186,"x_min":0,"x_max":2186,"o":"m 553 -19 q 523 -12 533 -19 q 507 13 513 -4 l 58 1725 q 59 1749 54 1739 q 83 1764 64 1758 q 113 1766 101 1769 q 129 1743 124 1763 l 554 103 l 1050 1736 q 1064 1760 1056 1753 q 1092 1767 1072 1767 q 1124 1760 1115 1767 q 1138 1736 1132 1753 l 1628 103 l 2060 1744 q 2075 1766 2064 1763 q 2104 1764 2086 1769 q 2128 1749 2124 1758 q 2128 1725 2132 1739 l 1674 13 q 1659 -12 1669 -4 q 1628 -19 1649 -19 q 1597 -12 1607 -19 q 1582 13 1588 -4 l 1093 1646 l 600 13 q 584 -12 594 -4 q 553 -19 574 -19 m 860 1839 q 838 1850 849 1839 q 828 1872 828 1861 q 829 1881 828 1876 q 835 1890 831 1885 l 1057 2096 q 1073 2109 1065 2104 q 1093 2114 1081 2114 q 1113 2109 1106 2114 q 1128 2096 1119 2104 l 1350 1889 q 1357 1880 1356 1885 q 1358 1871 1358 1875 q 1348 1849 1358 1860 q 1326 1839 1338 1839 q 1315 1842 1319 1839 q 1303 1851 1310 1846 l 1093 2025 l 882 1851 q 872 1842 876 1846 q 860 1839 867 1839 m 0 -1037 l 2186 -1037 l 2186 -1051 l 0 -1051 l 0 -1037 m 0 28 l 2186 28 l 2186 0 l 0 0 l 0 28 m 0 701 l 2186 701 l 2186 694 l 0 694 l 0 701 m 0 1760 l 2186 1760 l 2186 1746 l 0 1746 l 0 1760 z "},"Ẅ":{"ha":2186,"x_min":0,"x_max":2186,"o":"m 553 -19 q 523 -12 533 -19 q 507 13 513 -4 l 58 1725 q 59 1749 54 1739 q 83 1764 64 1758 q 113 1766 101 1769 q 129 1743 124 1763 l 554 103 l 1050 1736 q 1064 1760 1056 1753 q 1092 1767 1072 1767 q 1124 1760 1115 1767 q 1138 1736 1132 1753 l 1628 103 l 2060 1744 q 2075 1766 2064 1763 q 2104 1764 2086 1769 q 2127 1749 2122 1758 q 2128 1725 2132 1739 l 1674 13 q 1659 -12 1669 -4 q 1628 -19 1649 -19 q 1597 -12 1607 -19 q 1582 13 1588 -4 l 1093 1646 l 600 13 q 584 -12 594 -4 q 553 -19 574 -19 m 903 1901 q 857 1918 872 1901 q 842 1969 842 1935 q 856 2022 842 2004 q 903 2039 871 2039 q 948 2022 933 2039 q 963 1969 963 2004 q 949 1918 964 1935 q 903 1901 933 1901 m 1283 1901 q 1238 1918 1253 1901 q 1224 1969 1224 1935 q 1238 2022 1224 2004 q 1283 2039 1253 2039 q 1329 2022 1314 2039 q 1344 1969 1344 2004 q 1329 1918 1344 1935 q 1283 1901 1314 1901 m 0 -1037 l 2186 -1037 l 2186 -1051 l 0 -1051 l 0 -1037 m 0 28 l 2186 28 l 2186 0 l 0 0 l 0 28 m 0 701 l 2186 701 l 2186 694 l 0 694 l 0 701 m 0 1760 l 2186 1760 l 2186 1746 l 0 1746 l 0 1760 z "},"Ẁ":{"ha":2186,"x_min":0,"x_max":2186,"o":"m 553 -19 q 523 -12 533 -19 q 507 13 513 -4 l 58 1725 q 59 1749 54 1739 q 83 1764 64 1758 q 113 1766 101 1769 q 129 1743 124 1763 l 554 103 l 1050 1736 q 1064 1760 1056 1753 q 1092 1767 1072 1767 q 1124 1760 1115 1767 q 1138 1736 1132 1753 l 1628 103 l 2060 1744 q 2075 1766 2064 1763 q 2104 1764 2086 1769 q 2127 1749 2122 1758 q 2128 1725 2132 1739 l 1674 13 q 1659 -12 1669 -4 q 1628 -19 1649 -19 q 1597 -12 1607 -19 q 1582 13 1588 -4 l 1093 1646 l 600 13 q 584 -12 594 -4 q 553 -19 574 -19 m 1171 1843 q 1163 1847 1167 1843 q 1151 1853 1158 1850 l 901 2050 q 893 2061 894 2057 q 892 2071 892 2065 q 899 2092 892 2081 q 916 2110 906 2103 q 936 2118 926 2118 q 947 2114 943 2118 q 957 2104 951 2110 l 1199 1896 q 1206 1885 1204 1890 q 1207 1878 1207 1881 q 1194 1856 1207 1868 q 1171 1843 1182 1843 m 0 -1037 l 2186 -1037 l 2186 -1051 l 0 -1051 l 0 -1037 m 0 28 l 2186 28 l 2186 0 l 0 0 l 0 28 m 0 701 l 2186 701 l 2186 694 l 0 694 l 0 701 m 0 1760 l 2186 1760 l 2186 1746 l 0 1746 l 0 1760 z "},"Ý":{"ha":1181,"x_min":0,"x_max":1181,"o":"m 579 -19 q 542 7 542 -19 l 542 756 l 19 1719 q 17 1743 13 1733 q 39 1761 22 1753 q 67 1767 57 1769 q 85 1749 76 1764 l 581 831 l 1093 1744 q 1115 1766 1104 1763 q 1142 1761 1125 1769 q 1163 1742 1160 1751 q 1161 1719 1167 1733 l 617 756 l 617 7 q 579 -19 617 -19 m 504 1843 q 481 1856 493 1843 q 469 1878 469 1868 q 471 1885 469 1881 q 478 1896 472 1890 l 718 2106 q 729 2114 725 2110 q 740 2118 733 2118 q 760 2110 750 2118 q 778 2092 771 2103 q 785 2071 785 2081 q 783 2061 785 2065 q 774 2050 781 2057 l 524 1853 q 513 1847 517 1850 q 504 1843 508 1843 m 0 -1037 l 1181 -1037 l 1181 -1051 l 0 -1051 l 0 -1037 m 0 28 l 1181 28 l 1181 0 l 0 0 l 0 28 m 0 701 l 1181 701 l 1181 694 l 0 694 l 0 701 m 0 1760 l 1181 1760 l 1181 1746 l 0 1746 l 0 1760 z "},"Ŷ":{"ha":1181,"x_min":0,"x_max":1181,"o":"m 579 -19 q 542 7 542 -19 l 542 756 l 19 1719 q 17 1743 13 1733 q 39 1761 22 1753 q 67 1767 57 1769 q 85 1749 76 1764 l 581 831 l 1093 1744 q 1115 1766 1104 1763 q 1142 1761 1125 1769 q 1163 1742 1160 1751 q 1161 1719 1167 1733 l 617 756 l 617 7 q 579 -19 617 -19 m 357 1839 q 335 1850 346 1839 q 325 1872 325 1861 q 326 1881 325 1876 q 332 1890 328 1885 l 554 2096 q 570 2109 563 2104 q 590 2114 578 2114 q 610 2109 603 2114 q 624 2096 617 2104 l 847 1889 q 854 1880 853 1885 q 856 1871 856 1875 q 845 1849 856 1860 q 824 1839 835 1839 q 812 1842 817 1839 q 800 1851 807 1846 l 590 2025 l 379 1851 q 369 1842 374 1846 q 357 1839 364 1839 m 0 -1037 l 1181 -1037 l 1181 -1051 l 0 -1051 l 0 -1037 m 0 28 l 1181 28 l 1181 0 l 0 0 l 0 28 m 0 701 l 1181 701 l 1181 694 l 0 694 l 0 701 m 0 1760 l 1181 1760 l 1181 1746 l 0 1746 l 0 1760 z "},"Ÿ":{"ha":1181,"x_min":0,"x_max":1181,"o":"m 579 -19 q 542 7 542 -19 l 542 756 l 19 1719 q 17 1743 13 1733 q 39 1761 22 1753 q 67 1767 57 1769 q 85 1749 76 1764 l 581 831 l 1093 1744 q 1115 1766 1104 1763 q 1142 1761 1125 1769 q 1163 1742 1160 1751 q 1161 1719 1167 1733 l 617 756 l 617 7 q 579 -19 617 -19 m 400 1901 q 354 1918 369 1901 q 339 1969 339 1935 q 354 2022 339 2004 q 400 2039 369 2039 q 445 2022 431 2039 q 460 1969 460 2004 q 446 1918 461 1935 q 400 1901 431 1901 m 781 1901 q 735 1918 750 1901 q 721 1969 721 1935 q 735 2022 721 2004 q 781 2039 750 2039 q 826 2022 811 2039 q 842 1969 842 2004 q 826 1918 842 1935 q 781 1901 811 1901 m 0 -1037 l 1181 -1037 l 1181 -1051 l 0 -1051 l 0 -1037 m 0 28 l 1181 28 l 1181 0 l 0 0 l 0 28 m 0 701 l 1181 701 l 1181 694 l 0 694 l 0 701 m 0 1760 l 1181 1760 l 1181 1746 l 0 1746 l 0 1760 z "},"Ỳ":{"ha":1181,"x_min":0,"x_max":1181,"o":"m 579 -19 q 542 7 542 -19 l 542 756 l 19 1719 q 17 1743 13 1733 q 39 1761 22 1753 q 67 1767 57 1769 q 85 1749 76 1764 l 581 831 l 1093 1744 q 1115 1766 1104 1763 q 1142 1761 1125 1769 q 1163 1742 1160 1751 q 1161 1719 1167 1733 l 617 756 l 617 7 q 579 -19 617 -19 m 668 1843 q 660 1847 664 1843 q 649 1853 656 1850 l 399 2050 q 390 2061 392 2057 q 389 2071 389 2065 q 396 2092 389 2081 q 413 2110 403 2103 q 432 2118 424 2118 q 444 2114 440 2118 q 454 2104 449 2110 l 696 1896 q 702 1885 701 1890 q 703 1878 703 1881 q 691 1856 703 1868 q 668 1843 679 1843 m 0 -1037 l 1181 -1037 l 1181 -1051 l 0 -1051 l 0 -1037 m 0 28 l 1181 28 l 1181 0 l 0 0 l 0 28 m 0 701 l 1181 701 l 1181 694 l 0 694 l 0 701 m 0 1760 l 1181 1760 l 1181 1746 l 0 1746 l 0 1760 z "},"Ỵ":{"ha":1181,"x_min":0,"x_max":1181,"o":"m 579 -19 q 542 7 542 -19 l 542 756 l 19 1719 q 17 1743 13 1733 q 39 1761 22 1753 q 67 1767 57 1769 q 85 1749 76 1764 l 581 831 l 1093 1744 q 1115 1766 1104 1763 q 1142 1761 1125 1769 q 1163 1742 1160 1751 q 1161 1719 1167 1733 l 617 756 l 617 7 q 579 -19 617 -19 m 578 -306 q 533 -289 547 -306 q 518 -237 518 -272 q 533 -185 518 -201 q 578 -168 547 -168 q 624 -185 608 -168 q 639 -237 639 -201 q 624 -289 639 -272 q 578 -306 608 -306 m 0 -1037 l 1181 -1037 l 1181 -1051 l 0 -1051 l 0 -1037 m 0 28 l 1181 28 l 1181 0 l 0 0 l 0 28 m 0 701 l 1181 701 l 1181 694 l 0 694 l 0 701 m 0 1760 l 1181 1760 l 1181 1746 l 0 1746 l 0 1760 z "},"Ỷ":{"ha":1181,"x_min":0,"x_max":1181,"o":"m 579 -19 q 542 7 542 -19 l 542 756 l 19 1719 q 17 1743 13 1733 q 39 1761 22 1753 q 67 1767 57 1769 q 85 1749 76 1764 l 581 831 l 1093 1744 q 1115 1766 1104 1763 q 1142 1761 1125 1769 q 1163 1742 1160 1751 q 1161 1719 1167 1733 l 617 756 l 617 7 q 579 -19 617 -19 m 604 2154 q 706 2124 669 2154 q 743 2047 743 2094 q 726 1990 743 2014 q 667 1939 708 1965 q 632 1908 640 1921 q 635 1872 624 1894 l 636 1865 q 634 1844 640 1853 q 615 1832 628 1836 q 592 1830 603 1828 q 576 1842 581 1832 l 565 1869 q 563 1931 551 1904 q 606 1979 574 1958 q 649 2011 636 1996 q 663 2043 663 2026 q 644 2076 663 2063 q 594 2089 625 2089 q 544 2081 568 2089 q 500 2060 519 2074 q 461 2072 475 2046 q 467 2113 449 2096 q 529 2144 494 2133 q 604 2154 564 2154 m 0 -1037 l 1181 -1037 l 1181 -1051 l 0 -1051 l 0 -1037 m 0 28 l 1181 28 l 1181 0 l 0 0 l 0 28 m 0 701 l 1181 701 l 1181 694 l 0 694 l 0 701 m 0 1760 l 1181 1760 l 1181 1746 l 0 1746 l 0 1760 z "}}}
